NimbusSanL-BoldItal.ufo
<glyph name="exclam" format="1">
  <advance width="333"/>
  <unicode hex="0021"/>
  <outline>
    <contour>
      <point x="417" y="726" type="line"/>
      <point x="267" y="726" type="line"/>
      <point x="222" y="516" type="line"/>
      <point x="198" y="207" type="line"/>
      <point x="265" y="207" type="line"/>
      <point x="372" y="516" type="line"/>
    </contour>
    <contour>
      <point x="293" y="146" type="line"/>
      <point x="143" y="146" type="line"/>
      <point x="112" y="0" type="line"/>
      <point x="262" y="0" type="line"/>
    </contour>
  </outline>
</glyph>
<glyph name="quotedbl" format="1">
  <advance width="474"/>
  <unicode hex="0022"/>
  <outline>
    <contour>
      <point x="343" y="729" type="line"/>
      <point x="205" y="729" type="line"/>
      <point x="177" y="599" type="line"/>
      <point x="190" y="470" type="line"/>
      <point x="246" y="470" type="line"/>
      <point x="315" y="599" type="line"/>
    </contour>
    <contour>
      <point x="579" y="729" type="line"/>
      <point x="441" y="729" type="line"/>
      <point x="413" y="599" type="line"/>
      <point x="426" y="470" type="line"/>
      <point x="482" y="470" type="line"/>
      <point x="551" y="599" type="line"/>
    </contour>
  </outline>
</glyph>
<glyph name="numbersign" format="1">
  <advance width="556"/>
  <unicode hex="0023"/>
  <outline>
    <contour>
      <point x="138" y="-32" type="line"/>
      <point x="222" y="172" type="line"/>
      <point x="324" y="172" type="line"/>
      <point x="241" y="-32" type="line"/>
      <point x="346" y="-32" type="line"/>
      <point x="430" y="172" type="line"/>
      <point x="549" y="172" type="line"/>
      <point x="570" y="272" type="line"/>
      <point x="471" y="272" type="line"/>
      <point x="533" y="424" type="line"/>
      <point x="639" y="424" type="line"/>
      <point x="660" y="524" type="line"/>
      <point x="573" y="524" type="line"/>
      <point x="645" y="697" type="line"/>
      <point x="539" y="697" type="line"/>
      <point x="468" y="524" type="line"/>
      <point x="365" y="524" type="line"/>
      <point x="437" y="697" type="line"/>
      <point x="331" y="697" type="line"/>
      <point x="260" y="524" type="line"/>
      <point x="142" y="524" type="line"/>
      <point x="120" y="424" type="line"/>
      <point x="219" y="424" type="line"/>
      <point x="157" y="272" type="line"/>
      <point x="60" y="272" type="line"/>
      <point x="39" y="172" type="line"/>
      <point x="116" y="172" type="line"/>
      <point x="33" y="-32" type="line"/>
    </contour>
    <contour>
      <point x="262" y="272" type="line"/>
      <point x="325" y="424" type="line"/>
      <point x="427" y="424" type="line"/>
      <point x="365" y="272" type="line"/>
    </contour>
  </outline>
</glyph>
<glyph name="dollar" format="1">
  <advance width="556"/>
  <unicode hex="0024"/>
  <outline>
    <contour>
      <point x="623" y="498" type="line"/>
      <point x="627" y="520"/>
      <point x="628" y="532"/>
      <point x="628" y="547" type="curve" smooth="yes"/>
      <point x="628" y="597"/>
      <point x="610" y="641"/>
      <point x="578" y="669" type="curve" smooth="yes"/>
      <point x="551" y="692"/>
      <point x="517" y="704"/>
      <point x="461" y="709" type="curve"/>
      <point x="473" y="763" type="line"/>
      <point x="405" y="763" type="line"/>
      <point x="394" y="709" type="line"/>
      <point x="342" y="704"/>
      <point x="307" y="694"/>
      <point x="269" y="674" type="curve" smooth="yes"/>
      <point x="191" y="634"/>
      <point x="142" y="556"/>
      <point x="142" y="475" type="curve" smooth="yes"/>
      <point x="142" y="384"/>
      <point x="196" y="327"/>
      <point x="307" y="299" type="curve"/>
      <point x="261" y="86" type="line"/>
      <point x="217" y="95"/>
      <point x="196" y="123"/>
      <point x="196" y="174" type="curve" smooth="yes"/>
      <point x="196" y="181"/>
      <point x="196" y="188"/>
      <point x="197" y="207" type="curve"/>
      <point x="67" y="207" type="line"/>
      <point x="61" y="182"/>
      <point x="59" y="166"/>
      <point x="59" y="148" type="curve" smooth="yes"/>
      <point x="59" y="51"/>
      <point x="123" y="-9"/>
      <point x="239" y="-21" type="curve"/>
      <point x="216" y="-126" type="line"/>
      <point x="284" y="-126" type="line"/>
      <point x="306" y="-21" type="line"/>
      <point x="362" y="-15"/>
      <point x="406" y="-2"/>
      <point x="445" y="19" type="curve" smooth="yes"/>
      <point x="521" y="61"/>
      <point x="573" y="149"/>
      <point x="573" y="237" type="curve" smooth="yes"/>
      <point x="573" y="283"/>
      <point x="552" y="324"/>
      <point x="514" y="353" type="curve" smooth="yes"/>
      <point x="486" y="374"/>
      <point x="452" y="390"/>
      <point x="397" y="407" type="curve"/>
      <point x="440" y="608" type="line"/>
      <point x="476" y="602"/>
      <point x="498" y="576"/>
      <point x="498" y="538" type="curve" smooth="yes"/>
      <point x="498" y="526"/>
      <point x="497" y="517"/>
      <point x="495" y="498" type="curve"/>
    </contour>
    <contour>
      <point x="334" y="427" type="line"/>
      <point x="293" y="443"/>
      <point x="272" y="468"/>
      <point x="272" y="501" type="curve" smooth="yes"/>
      <point x="272" y="535"/>
      <point x="291" y="570"/>
      <point x="319" y="589" type="curve" smooth="yes"/>
      <point x="333" y="599"/>
      <point x="346" y="603"/>
      <point x="372" y="608" type="curve"/>
    </contour>
    <contour>
      <point x="371" y="282" type="line"/>
      <point x="410" y="266"/>
      <point x="430" y="238"/>
      <point x="430" y="198" type="curve" smooth="yes"/>
      <point x="430" y="142"/>
      <point x="393" y="101"/>
      <point x="329" y="86" type="curve"/>
    </contour>
  </outline>
</glyph>
<glyph name="percent" format="1">
  <advance width="889"/>
  <unicode hex="0025"/>
  <outline>
    <contour>
      <point x="756" y="709" type="line"/>
      <point x="206" y="-20" type="line"/>
      <point x="282" y="-20" type="line"/>
      <point x="833" y="709" type="line"/>
    </contour>
    <contour>
      <point x="352" y="701" type="curve" smooth="yes"/>
      <point x="237" y="701"/>
      <point x="129" y="595"/>
      <point x="129" y="482" type="curve" smooth="yes"/>
      <point x="129" y="399"/>
      <point x="194" y="337"/>
      <point x="280" y="337" type="curve" smooth="yes"/>
      <point x="398" y="337"/>
      <point x="505" y="442"/>
      <point x="505" y="557" type="curve" smooth="yes"/>
      <point x="505" y="640"/>
      <point x="441" y="701"/>
    </contour>
    <contour>
      <point x="331" y="603" type="curve" smooth="yes"/>
      <point x="373" y="603"/>
      <point x="405" y="574"/>
      <point x="405" y="536" type="curve" smooth="yes"/>
      <point x="405" y="483"/>
      <point x="356" y="435"/>
      <point x="302" y="435" type="curve" smooth="yes"/>
      <point x="261" y="435"/>
      <point x="229" y="464"/>
      <point x="229" y="501" type="curve" smooth="yes"/>
      <point x="229" y="554"/>
      <point x="278" y="603"/>
    </contour>
    <contour>
      <point x="750" y="344" type="curve" smooth="yes"/>
      <point x="635" y="344"/>
      <point x="527" y="238"/>
      <point x="527" y="125" type="curve" smooth="yes"/>
      <point x="527" y="42"/>
      <point x="592" y="-20"/>
      <point x="678" y="-20" type="curve" smooth="yes"/>
      <point x="796" y="-20"/>
      <point x="903" y="85"/>
      <point x="903" y="200" type="curve" smooth="yes"/>
      <point x="903" y="283"/>
      <point x="839" y="344"/>
    </contour>
    <contour>
      <point x="729" y="246" type="curve" smooth="yes"/>
      <point x="771" y="246"/>
      <point x="803" y="217"/>
      <point x="803" y="179" type="curve" smooth="yes"/>
      <point x="803" y="126"/>
      <point x="754" y="78"/>
      <point x="700" y="78" type="curve" smooth="yes"/>
      <point x="659" y="78"/>
      <point x="627" y="107"/>
      <point x="627" y="144" type="curve" smooth="yes"/>
      <point x="627" y="197"/>
      <point x="676" y="246"/>
    </contour>
  </outline>
</glyph>
<glyph name="ampersand" format="1">
  <advance width="722"/>
  <unicode hex="0026"/>
  <outline>
    <contour>
      <point x="607" y="373" type="line"/>
      <point x="596" y="316"/>
      <point x="581" y="286"/>
      <point x="547" y="255" type="curve"/>
      <point x="465" y="392" type="line"/>
      <point x="519" y="424"/>
      <point x="549" y="446"/>
      <point x="571" y="471" type="curve" smooth="yes"/>
      <point x="603" y="508"/>
      <point x="624" y="560"/>
      <point x="624" y="605" type="curve" smooth="yes"/>
      <point x="624" y="676"/>
      <point x="562" y="723"/>
      <point x="471" y="723" type="curve" smooth="yes"/>
      <point x="351" y="723"/>
      <point x="246" y="630"/>
      <point x="246" y="523" type="curve" smooth="yes"/>
      <point x="246" y="492"/>
      <point x="263" y="452"/>
      <point x="299" y="401" type="curve"/>
      <point x="249" y="378"/>
      <point x="226" y="366"/>
      <point x="195" y="344" type="curve" smooth="yes"/>
      <point x="126" y="297"/>
      <point x="89" y="231"/>
      <point x="89" y="156" type="curve" smooth="yes"/>
      <point x="89" y="44"/>
      <point x="163" y="-23"/>
      <point x="287" y="-23" type="curve" smooth="yes"/>
      <point x="364" y="-23"/>
      <point x="407" y="-6"/>
      <point x="499" y="60" type="curve"/>
      <point x="536" y="0" type="line"/>
      <point x="696" y="0" type="line"/>
      <point x="602" y="160" type="line"/>
      <point x="661" y="213"/>
      <point x="709" y="300"/>
      <point x="720" y="373" type="curve"/>
    </contour>
    <contour>
      <point x="347" y="319" type="line"/>
      <point x="446" y="152" type="line"/>
      <point x="380" y="107"/>
      <point x="349" y="93"/>
      <point x="315" y="93" type="curve" smooth="yes"/>
      <point x="266" y="93"/>
      <point x="226" y="135"/>
      <point x="226" y="187" type="curve" smooth="yes"/>
      <point x="226" y="233"/>
      <point x="246" y="262"/>
      <point x="295" y="290" type="curve" smooth="yes"/>
    </contour>
    <contour>
      <point x="419" y="470" type="curve"/>
      <point x="388" y="524"/>
      <point x="383" y="534"/>
      <point x="383" y="552" type="curve" smooth="yes"/>
      <point x="383" y="589"/>
      <point x="410" y="615"/>
      <point x="448" y="615" type="curve" smooth="yes"/>
      <point x="480" y="615"/>
      <point x="499" y="599"/>
      <point x="499" y="574" type="curve" smooth="yes"/>
      <point x="499" y="533"/>
      <point x="471" y="497"/>
    </contour>
  </outline>
</glyph>
<glyph name="quotesingle" format="1">
  <advance width="238"/>
  <unicode hex="0027"/>
  <outline>
    <contour>
      <point x="343" y="729" type="line"/>
      <point x="205" y="729" type="line"/>
      <point x="177" y="599" type="line"/>
      <point x="190" y="470" type="line"/>
      <point x="245" y="470" type="line"/>
      <point x="315" y="599" type="line"/>
    </contour>
  </outline>
</glyph>
<glyph name="parenleft" format="1">
  <advance width="333"/>
  <unicode hex="0028"/>
  <outline>
    <contour>
      <point x="358" y="729" type="line"/>
      <point x="168" y="510"/>
      <point x="84" y="324"/>
      <point x="84" y="122" type="curve" smooth="yes"/>
      <point x="84" y="25"/>
      <point x="110" y="-83"/>
      <point x="161" y="-200" type="curve"/>
      <point x="261" y="-200" type="line"/>
      <point x="217" y="-56"/>
      <point x="203" y="20"/>
      <point x="203" y="112" type="curve" smooth="yes"/>
      <point x="203" y="245"/>
      <point x="240" y="377"/>
      <point x="315" y="513" type="curve" smooth="yes"/>
      <point x="351" y="577"/>
      <point x="387" y="632"/>
      <point x="458" y="729" type="curve"/>
    </contour>
  </outline>
</glyph>
<glyph name="parenright" format="1">
  <advance width="333"/>
  <unicode hex="0029"/>
  <outline>
    <contour>
      <point x="79" y="-200" type="line"/>
      <point x="136" y="-135"/>
      <point x="190" y="-64"/>
      <point x="226" y="-9" type="curve" smooth="yes"/>
      <point x="310" y="123"/>
      <point x="356" y="268"/>
      <point x="356" y="406" type="curve" smooth="yes"/>
      <point x="356" y="504"/>
      <point x="331" y="608"/>
      <point x="276" y="729" type="curve"/>
      <point x="176" y="729" type="line"/>
      <point x="223" y="582"/>
      <point x="237" y="509"/>
      <point x="237" y="416" type="curve" smooth="yes"/>
      <point x="237" y="284"/>
      <point x="200" y="152"/>
      <point x="124" y="16" type="curve" smooth="yes"/>
      <point x="88" y="-48"/>
      <point x="56" y="-96"/>
      <point x="-21" y="-200" type="curve"/>
    </contour>
  </outline>
</glyph>
<glyph name="asterisk" format="1">
  <advance width="389"/>
  <unicode hex="002A"/>
  <outline>
    <contour>
      <point x="246" y="544" type="line"/>
      <point x="159" y="450" type="line"/>
      <point x="208" y="407" type="line"/>
      <point x="295" y="501" type="line"/>
      <point x="342" y="407" type="line"/>
      <point x="409" y="450" type="line"/>
      <point x="362" y="544" type="line"/>
      <point x="478" y="579" type="line"/>
      <point x="471" y="649" type="line"/>
      <point x="354" y="613" type="line"/>
      <point x="379" y="729" type="line"/>
      <point x="307" y="729" type="line"/>
      <point x="283" y="613" type="line"/>
      <point x="182" y="649" type="line"/>
      <point x="145" y="580" type="line"/>
    </contour>
  </outline>
</glyph>
<glyph name="plus" format="1">
  <advance width="584"/>
  <unicode hex="002B"/>
  <outline>
    <contour>
      <point x="596" y="292" type="line"/>
      <point x="413" y="292" type="line"/>
      <point x="452" y="473" type="line"/>
      <point x="333" y="473" type="line"/>
      <point x="294" y="292" type="line"/>
      <point x="112" y="292" type="line"/>
      <point x="87" y="172" type="line"/>
      <point x="269" y="172" type="line"/>
      <point x="230" y="-10" type="line"/>
      <point x="349" y="-10" type="line"/>
      <point x="388" y="172" type="line"/>
      <point x="571" y="172" type="line"/>
    </contour>
  </outline>
</glyph>
<glyph name="comma" format="1">
  <advance width="278"/>
  <unicode hex="002C"/>
  <outline>
    <contour>
      <point x="95" y="146" type="line"/>
      <point x="64" y="0" type="line"/>
      <point x="150" y="0" type="line"/>
      <point x="137" y="-68"/>
      <point x="101" y="-107"/>
      <point x="39" y="-118" type="curve"/>
      <point x="27" y="-174" type="line"/>
      <point x="137" y="-158"/>
      <point x="197" y="-101"/>
      <point x="216" y="9" type="curve" smooth="yes"/>
      <point x="245" y="146" type="line"/>
    </contour>
  </outline>
</glyph>
<glyph name="hyphen" format="1">
  <advance width="333"/>
  <unicode hex="002D"/>
  <outline>
    <contour>
      <point x="371" y="342" type="line"/>
      <point x="99" y="342" type="line"/>
      <point x="70" y="207" type="line"/>
      <point x="342" y="207" type="line"/>
    </contour>
  </outline>
</glyph>
<glyph name="slash" format="1">
  <advance width="278"/>
  <unicode hex="002F"/>
  <outline>
    <contour>
      <point x="360" y="714" type="line"/>
      <point x="-1" y="-14" type="line"/>
      <point x="66" y="-14" type="line"/>
      <point x="427" y="714" type="line"/>
    </contour>
  </outline>
</glyph>
<glyph name="zero" format="1">
  <advance width="556"/>
  <unicode hex="0030"/>
  <outline>
    <contour>
      <point x="421" y="724" type="curve" smooth="yes"/>
      <point x="308" y="724"/>
      <point x="216" y="659"/>
      <point x="161" y="541" type="curve" smooth="yes"/>
      <point x="119" y="449"/>
      <point x="81" y="277"/>
      <point x="81" y="176" type="curve" smooth="yes"/>
      <point x="81" y="53"/>
      <point x="153" y="-23"/>
      <point x="271" y="-23" type="curve" smooth="yes"/>
      <point x="387" y="-23"/>
      <point x="479" y="41"/>
      <point x="534" y="160" type="curve" smooth="yes"/>
      <point x="576" y="251"/>
      <point x="614" y="425"/>
      <point x="614" y="526" type="curve" smooth="yes"/>
      <point x="614" y="649"/>
      <point x="541" y="724"/>
    </contour>
    <contour>
      <point x="394" y="612" type="curve" smooth="yes"/>
      <point x="441" y="612"/>
      <point x="471" y="579"/>
      <point x="471" y="528" type="curve" smooth="yes"/>
      <point x="471" y="466"/>
      <point x="448" y="332"/>
      <point x="421" y="237" type="curve" smooth="yes"/>
      <point x="393" y="138"/>
      <point x="359" y="99"/>
      <point x="300" y="99" type="curve" smooth="yes"/>
      <point x="254" y="99"/>
      <point x="224" y="132"/>
      <point x="224" y="183" type="curve" smooth="yes"/>
      <point x="224" y="280"/>
      <point x="273" y="502"/>
      <point x="306" y="555" type="curve" smooth="yes"/>
      <point x="330" y="593"/>
      <point x="359" y="612"/>
    </contour>
  </outline>
</glyph>
<glyph name="one" format="1">
  <advance width="556"/>
  <unicode hex="0031"/>
  <outline>
    <contour>
      <point x="342" y="489" type="line"/>
      <point x="238" y="0" type="line"/>
      <point x="378" y="0" type="line"/>
      <point x="529" y="709" type="line"/>
      <point x="436" y="709" type="line"/>
      <point x="396" y="625"/>
      <point x="314" y="582"/>
      <point x="192" y="582" type="curve"/>
      <point x="172" y="489" type="line"/>
    </contour>
  </outline>
</glyph>
<glyph name="two" format="1">
  <advance width="556"/>
  <unicode hex="0032"/>
  <outline>
    <contour>
      <point x="538" y="125" type="line"/>
      <point x="238" y="125" type="line"/>
      <point x="263" y="162"/>
      <point x="292" y="184"/>
      <point x="411" y="259" type="curve" smooth="yes"/>
      <point x="494" y="311"/>
      <point x="531" y="340"/>
      <point x="563" y="378" type="curve" smooth="yes"/>
      <point x="605" y="428"/>
      <point x="628" y="489"/>
      <point x="628" y="552" type="curve" smooth="yes"/>
      <point x="628" y="660"/>
      <point x="551" y="724"/>
      <point x="421" y="724" type="curve" smooth="yes"/>
      <point x="266" y="724"/>
      <point x="164" y="630"/>
      <point x="138" y="462" type="curve"/>
      <point x="272" y="462" type="line"/>
      <point x="285" y="559"/>
      <point x="330" y="612"/>
      <point x="399" y="612" type="curve" smooth="yes"/>
      <point x="453" y="612"/>
      <point x="485" y="582"/>
      <point x="485" y="532" type="curve" smooth="yes"/>
      <point x="485" y="486"/>
      <point x="465" y="438"/>
      <point x="431" y="404" type="curve" smooth="yes"/>
      <point x="400" y="371"/>
      <point x="367" y="348"/>
      <point x="253" y="277" type="curve" smooth="yes"/>
      <point x="114" y="194"/>
      <point x="65" y="132"/>
      <point x="30" y="0" type="curve"/>
      <point x="512" y="0" type="line"/>
    </contour>
  </outline>
</glyph>
<glyph name="three" format="1">
  <advance width="556"/>
  <unicode hex="0033"/>
  <outline>
    <contour>
      <point x="284" y="317" type="line"/>
      <point x="333" y="317"/>
      <point x="342" y="316"/>
      <point x="365" y="310" type="curve" smooth="yes"/>
      <point x="401" y="300"/>
      <point x="422" y="271"/>
      <point x="422" y="230" type="curve" smooth="yes"/>
      <point x="422" y="159"/>
      <point x="367" y="99"/>
      <point x="300" y="99" type="curve" smooth="yes"/>
      <point x="243" y="99"/>
      <point x="211" y="127"/>
      <point x="210" y="176" type="curve" smooth="yes"/>
      <point x="210" y="198" type="line"/>
      <point x="209" y="208" type="line"/>
      <point x="73" y="208" type="line"/>
      <point x="69" y="185"/>
      <point x="67" y="170"/>
      <point x="67" y="151" type="curve" smooth="yes"/>
      <point x="67" y="41"/>
      <point x="142" y="-23"/>
      <point x="272" y="-23" type="curve" smooth="yes"/>
      <point x="370" y="-23"/>
      <point x="449" y="10"/>
      <point x="500" y="72" type="curve" smooth="yes"/>
      <point x="540" y="122"/>
      <point x="565" y="193"/>
      <point x="565" y="257" type="curve" smooth="yes"/>
      <point x="565" y="311"/>
      <point x="542" y="350"/>
      <point x="493" y="380" type="curve"/>
      <point x="573" y="429"/>
      <point x="613" y="494"/>
      <point x="613" y="573" type="curve" smooth="yes"/>
      <point x="613" y="669"/>
      <point x="540" y="724"/>
      <point x="413" y="724" type="curve" smooth="yes"/>
      <point x="328" y="724"/>
      <point x="258" y="697"/>
      <point x="212" y="647" type="curve" smooth="yes"/>
      <point x="175" y="607"/>
      <point x="157" y="564"/>
      <point x="142" y="486" type="curve"/>
      <point x="271" y="486" type="line"/>
      <point x="280" y="525"/>
      <point x="286" y="544"/>
      <point x="296" y="561" type="curve" smooth="yes"/>
      <point x="315" y="593"/>
      <point x="348" y="612"/>
      <point x="388" y="612" type="curve" smooth="yes"/>
      <point x="433" y="612"/>
      <point x="465" y="583"/>
      <point x="465" y="542" type="curve" smooth="yes"/>
      <point x="465" y="463"/>
      <point x="406" y="411"/>
      <point x="316" y="411" type="curve" smooth="yes"/>
      <point x="304" y="411" type="line"/>
    </contour>
  </outline>
</glyph>
<glyph name="four" format="1">
  <advance width="556"/>
  <unicode hex="0034"/>
  <outline>
    <contour>
      <point x="580" y="273" type="line"/>
      <point x="506" y="273" type="line"/>
      <point x="599" y="709" type="line"/>
      <point x="434" y="709" type="line"/>
      <point x="82" y="275" type="line"/>
      <point x="57" y="157" type="line"/>
      <point x="342" y="157" type="line"/>
      <point x="308" y="0" type="line"/>
      <point x="448" y="0" type="line"/>
      <point x="482" y="157" type="line"/>
      <point x="555" y="157" type="line"/>
    </contour>
    <contour>
      <point x="366" y="273" type="line"/>
      <point x="182" y="273" type="line"/>
      <point x="431" y="577" type="line"/>
    </contour>
  </outline>
</glyph>
<glyph name="five" format="1">
  <advance width="556"/>
  <unicode hex="0035"/>
  <outline>
    <contour>
      <point x="641" y="709" type="line"/>
      <point x="258" y="709" type="line"/>
      <point x="112" y="314" type="line"/>
      <point x="238" y="314" type="line"/>
      <point x="260" y="348"/>
      <point x="297" y="367"/>
      <point x="339" y="367" type="curve" smooth="yes"/>
      <point x="397" y="367"/>
      <point x="429" y="334"/>
      <point x="429" y="276" type="curve" smooth="yes"/>
      <point x="429" y="175"/>
      <point x="369" y="99"/>
      <point x="288" y="99" type="curve" smooth="yes"/>
      <point x="235" y="99"/>
      <point x="200" y="124"/>
      <point x="200" y="163" type="curve" smooth="yes"/>
      <point x="200" y="168"/>
      <point x="201" y="176"/>
      <point x="202" y="185" type="curve"/>
      <point x="64" y="185" type="line"/>
      <point x="60" y="165"/>
      <point x="59" y="154"/>
      <point x="59" y="141" type="curve" smooth="yes"/>
      <point x="59" y="42"/>
      <point x="139" y="-23"/>
      <point x="259" y="-23" type="curve" smooth="yes"/>
      <point x="360" y="-23"/>
      <point x="448" y="21"/>
      <point x="506" y="101" type="curve" smooth="yes"/>
      <point x="548" y="158"/>
      <point x="572" y="231"/>
      <point x="572" y="300" type="curve" smooth="yes"/>
      <point x="572" y="410"/>
      <point x="505" y="479"/>
      <point x="396" y="479" type="curve" smooth="yes"/>
      <point x="349" y="479"/>
      <point x="311" y="467"/>
      <point x="264" y="436" type="curve"/>
      <point x="318" y="584" type="line"/>
      <point x="614" y="584" type="line"/>
    </contour>
  </outline>
</glyph>
<glyph name="six" format="1">
  <advance width="556"/>
  <unicode hex="0036"/>
  <outline>
    <contour>
      <point x="624" y="548" type="line"/>
      <point x="625" y="557"/>
      <point x="625" y="566"/>
      <point x="625" y="571" type="curve" smooth="yes"/>
      <point x="625" y="666"/>
      <point x="556" y="724"/>
      <point x="443" y="724" type="curve" smooth="yes"/>
      <point x="336" y="724"/>
      <point x="250" y="670"/>
      <point x="185" y="564" type="curve" smooth="yes"/>
      <point x="132" y="477"/>
      <point x="85" y="293"/>
      <point x="85" y="171" type="curve" smooth="yes"/>
      <point x="85" y="53"/>
      <point x="163" y="-23"/>
      <point x="284" y="-23" type="curve" smooth="yes"/>
      <point x="370" y="-23"/>
      <point x="450" y="17"/>
      <point x="503" y="88" type="curve" smooth="yes"/>
      <point x="549" y="148"/>
      <point x="577" y="229"/>
      <point x="577" y="300" type="curve" smooth="yes"/>
      <point x="577" y="404"/>
      <point x="514" y="467"/>
      <point x="409" y="467" type="curve" smooth="yes"/>
      <point x="357" y="467"/>
      <point x="310" y="449"/>
      <point x="260" y="411" type="curve"/>
      <point x="277" y="473"/>
      <point x="279" y="480"/>
      <point x="292" y="512" type="curve" smooth="yes"/>
      <point x="320" y="582"/>
      <point x="357" y="612"/>
      <point x="414" y="612" type="curve" smooth="yes"/>
      <point x="462" y="612"/>
      <point x="485" y="594"/>
      <point x="494" y="548" type="curve"/>
    </contour>
    <contour>
      <point x="352" y="355" type="curve" smooth="yes"/>
      <point x="401" y="355"/>
      <point x="434" y="320"/>
      <point x="434" y="269" type="curve" smooth="yes"/>
      <point x="434" y="176"/>
      <point x="374" y="99"/>
      <point x="301" y="99" type="curve" smooth="yes"/>
      <point x="250" y="99"/>
      <point x="215" y="136"/>
      <point x="215" y="188" type="curve" smooth="yes"/>
      <point x="215" y="278"/>
      <point x="278" y="355"/>
    </contour>
  </outline>
</glyph>
<glyph name="seven" format="1">
  <advance width="556"/>
  <unicode hex="0037"/>
  <outline>
    <contour>
      <point x="679" y="709" type="line"/>
      <point x="178" y="709" type="line"/>
      <point x="151" y="584" type="line"/>
      <point x="504" y="584" type="line"/>
      <point x="309" y="396"/>
      <point x="211" y="242"/>
      <point x="131" y="0" type="curve"/>
      <point x="273" y="0" type="line"/>
      <point x="326" y="191"/>
      <point x="404" y="328"/>
      <point x="551" y="491" type="curve" smooth="yes"/>
      <point x="656" y="599" type="line"/>
    </contour>
  </outline>
</glyph>
<glyph name="eight" format="1">
  <advance width="556"/>
  <unicode hex="0038"/>
  <outline>
    <contour>
      <point x="491" y="386" type="curve"/>
      <point x="525" y="406"/>
      <point x="544" y="419"/>
      <point x="560" y="436" type="curve" smooth="yes"/>
      <point x="598" y="473"/>
      <point x="620" y="522"/>
      <point x="620" y="570" type="curve" smooth="yes"/>
      <point x="620" y="661"/>
      <point x="539" y="724"/>
      <point x="422" y="724" type="curve" smooth="yes"/>
      <point x="277" y="724"/>
      <point x="156" y="620"/>
      <point x="156" y="495" type="curve" smooth="yes"/>
      <point x="156" y="452"/>
      <point x="174" y="422"/>
      <point x="221" y="386" type="curve"/>
      <point x="171" y="361"/>
      <point x="145" y="343"/>
      <point x="119" y="313" type="curve" smooth="yes"/>
      <point x="82" y="269"/>
      <point x="60" y="210"/>
      <point x="60" y="155" type="curve" smooth="yes"/>
      <point x="60" y="46"/>
      <point x="143" y="-23"/>
      <point x="276" y="-23" type="curve" smooth="yes"/>
      <point x="359" y="-23"/>
      <point x="435" y="6"/>
      <point x="489" y="59" type="curve" smooth="yes"/>
      <point x="542" y="110"/>
      <point x="575" y="185"/>
      <point x="575" y="253" type="curve" smooth="yes"/>
      <point x="575" y="313"/>
      <point x="552" y="349"/>
    </contour>
    <contour>
      <point x="398" y="612" type="curve" smooth="yes"/>
      <point x="453" y="612"/>
      <point x="490" y="583"/>
      <point x="490" y="540" type="curve" smooth="yes"/>
      <point x="490" y="476"/>
      <point x="433" y="425"/>
      <point x="363" y="425" type="curve" smooth="yes"/>
      <point x="312" y="425"/>
      <point x="278" y="455"/>
      <point x="278" y="500" type="curve" smooth="yes"/>
      <point x="278" y="563"/>
      <point x="331" y="612"/>
    </contour>
    <contour>
      <point x="342" y="330" type="curve" smooth="yes"/>
      <point x="397" y="330"/>
      <point x="432" y="298"/>
      <point x="432" y="247" type="curve" smooth="yes"/>
      <point x="432" y="161"/>
      <point x="376" y="99"/>
      <point x="297" y="99" type="curve" smooth="yes"/>
      <point x="243" y="99"/>
      <point x="203" y="133"/>
      <point x="203" y="180" type="curve" smooth="yes"/>
      <point x="203" y="264"/>
      <point x="264" y="330"/>
    </contour>
  </outline>
</glyph>
<glyph name="nine" format="1">
  <advance width="556"/>
  <unicode hex="0039"/>
  <outline>
    <contour>
      <point x="72" y="165" type="line"/>
      <point x="69" y="149"/>
      <point x="68" y="142"/>
      <point x="68" y="132" type="curve" smooth="yes"/>
      <point x="68" y="40"/>
      <point x="141" y="-23"/>
      <point x="248" y="-23" type="curve" smooth="yes"/>
      <point x="358" y="-23"/>
      <point x="447" y="31"/>
      <point x="507" y="135" type="curve" smooth="yes"/>
      <point x="568" y="241"/>
      <point x="611" y="398"/>
      <point x="611" y="519" type="curve" smooth="yes"/>
      <point x="611" y="643"/>
      <point x="533" y="724"/>
      <point x="413" y="724" type="curve" smooth="yes"/>
      <point x="249" y="724"/>
      <point x="120" y="582"/>
      <point x="120" y="403" type="curve" smooth="yes"/>
      <point x="120" y="295"/>
      <point x="185" y="228"/>
      <point x="289" y="228" type="curve" smooth="yes"/>
      <point x="345" y="228"/>
      <point x="380" y="243"/>
      <point x="436" y="291" type="curve"/>
      <point x="425" y="243"/>
      <point x="414" y="210"/>
      <point x="402" y="182" type="curve" smooth="yes"/>
      <point x="378" y="129"/>
      <point x="335" y="99"/>
      <point x="285" y="99" type="curve" smooth="yes"/>
      <point x="238" y="99"/>
      <point x="206" y="121"/>
      <point x="206" y="153" type="curve" smooth="yes"/>
      <point x="206" y="156"/>
      <point x="206" y="160"/>
      <point x="207" y="165" type="curve"/>
    </contour>
    <contour>
      <point x="389" y="612" type="curve" smooth="yes"/>
      <point x="445" y="612"/>
      <point x="481" y="576"/>
      <point x="481" y="519" type="curve" smooth="yes"/>
      <point x="481" y="422"/>
      <point x="417" y="344"/>
      <point x="337" y="344" type="curve" smooth="yes"/>
      <point x="288" y="344"/>
      <point x="257" y="378"/>
      <point x="257" y="431" type="curve" smooth="yes"/>
      <point x="257" y="532"/>
      <point x="315" y="612"/>
    </contour>
  </outline>
</glyph>
<glyph name="colon" format="1">
  <advance width="333"/>
  <unicode hex="003A"/>
  <outline>
    <contour>
      <point x="294" y="146" type="line"/>
      <point x="144" y="146" type="line"/>
      <point x="113" y="0" type="line"/>
      <point x="263" y="0" type="line"/>
    </contour>
    <contour>
      <point x="374" y="520" type="line"/>
      <point x="224" y="520" type="line"/>
      <point x="193" y="374" type="line"/>
      <point x="343" y="374" type="line"/>
    </contour>
  </outline>
</glyph>
<glyph name="semicolon" format="1">
  <advance width="333"/>
  <unicode hex="003B"/>
  <outline>
    <contour>
      <point x="144" y="146" type="line"/>
      <point x="113" y="0" type="line"/>
      <point x="199" y="0" type="line"/>
      <point x="186" y="-68"/>
      <point x="150" y="-107"/>
      <point x="88" y="-118" type="curve"/>
      <point x="76" y="-174" type="line"/>
      <point x="186" y="-158"/>
      <point x="246" y="-101"/>
      <point x="265" y="9" type="curve" smooth="yes"/>
      <point x="294" y="146" type="line"/>
    </contour>
    <contour>
      <point x="374" y="520" type="line"/>
      <point x="224" y="520" type="line"/>
      <point x="193" y="374" type="line"/>
      <point x="343" y="374" type="line"/>
    </contour>
  </outline>
</glyph>
<glyph name="less" format="1">
  <advance width="584"/>
  <unicode hex="003C"/>
  <outline>
    <contour>
      <point x="630" y="474" type="line"/>
      <point x="103" y="293" type="line"/>
      <point x="77" y="172" type="line"/>
      <point x="527" y="-10" type="line"/>
      <point x="555" y="121" type="line"/>
      <point x="263" y="232" type="line"/>
      <point x="603" y="345" type="line"/>
    </contour>
  </outline>
</glyph>
<glyph name="equal" format="1">
  <advance width="584"/>
  <unicode hex="003D"/>
  <outline>
    <contour>
      <point x="622" y="412" type="line"/>
      <point x="137" y="412" type="line"/>
      <point x="112" y="292" type="line"/>
      <point x="597" y="292" type="line"/>
    </contour>
    <contour>
      <point x="571" y="172" type="line"/>
      <point x="86" y="172" type="line"/>
      <point x="61" y="52" type="line"/>
      <point x="546" y="52" type="line"/>
    </contour>
  </outline>
</glyph>
<glyph name="question" format="1">
  <advance width="611"/>
  <unicode hex="003F"/>
  <outline>
    <contour>
      <point x="414" y="201" type="line"/>
      <point x="428" y="267"/>
      <point x="437" y="278"/>
      <point x="505" y="320" type="curve" smooth="yes"/>
      <point x="564" y="356"/>
      <point x="601" y="386"/>
      <point x="621" y="413" type="curve" smooth="yes"/>
      <point x="652" y="452"/>
      <point x="672" y="512"/>
      <point x="672" y="566" type="curve" smooth="yes"/>
      <point x="672" y="618"/>
      <point x="649" y="669"/>
      <point x="609" y="700" type="curve" smooth="yes"/>
      <point x="574" y="729"/>
      <point x="520" y="744"/>
      <point x="456" y="744" type="curve" smooth="yes"/>
      <point x="372" y="744"/>
      <point x="301" y="714"/>
      <point x="248" y="657" type="curve" smooth="yes"/>
      <point x="209" y="614"/>
      <point x="187" y="565"/>
      <point x="168" y="481" type="curve"/>
      <point x="304" y="481" type="line"/>
      <point x="321" y="569"/>
      <point x="370" y="620"/>
      <point x="438" y="620" type="curve" smooth="yes"/>
      <point x="491" y="620"/>
      <point x="529" y="584"/>
      <point x="529" y="533" type="curve" smooth="yes"/>
      <point x="529" y="513"/>
      <point x="523" y="492"/>
      <point x="512" y="473" type="curve" smooth="yes"/>
      <point x="497" y="447"/>
      <point x="488" y="438"/>
      <point x="432" y="399" type="curve" smooth="yes"/>
      <point x="338" y="333"/>
      <point x="299" y="277"/>
      <point x="292" y="201" type="curve"/>
    </contour>
    <contour>
      <point x="418" y="146" type="line"/>
      <point x="268" y="146" type="line"/>
      <point x="237" y="0" type="line"/>
      <point x="387" y="0" type="line"/>
    </contour>
  </outline>
</glyph>
<glyph name="at" format="1">
  <advance width="975"/>
  <unicode hex="0040"/>
  <outline>
    <contour>
      <point x="750" y="508" type="line"/>
      <point x="723" y="449" type="line"/>
      <point x="703" y="499"/>
      <point x="676" y="518"/>
      <point x="626" y="518" type="curve" smooth="yes"/>
      <point x="548" y="518"/>
      <point x="460" y="470"/>
      <point x="391" y="390" type="curve" smooth="yes"/>
      <point x="335" y="324"/>
      <point x="301" y="249"/>
      <point x="301" y="189" type="curve" smooth="yes"/>
      <point x="301" y="109"/>
      <point x="357" y="53"/>
      <point x="438" y="53" type="curve" smooth="yes"/>
      <point x="493" y="53"/>
      <point x="548" y="78"/>
      <point x="597" y="126" type="curve"/>
      <point x="612" y="80"/>
      <point x="649" y="56"/>
      <point x="705" y="56" type="curve" smooth="yes"/>
      <point x="787" y="56"/>
      <point x="873" y="106"/>
      <point x="944" y="193" type="curve" smooth="yes"/>
      <point x="1002" y="264"/>
      <point x="1032" y="349"/>
      <point x="1032" y="439" type="curve" smooth="yes"/>
      <point x="1032" y="504"/>
      <point x="1010" y="564"/>
      <point x="965" y="618" type="curve" smooth="yes"/>
      <point x="896" y="703"/>
      <point x="798" y="745"/>
      <point x="670" y="745" type="curve" smooth="yes"/>
      <point x="506" y="745"/>
      <point x="349" y="677"/>
      <point x="235" y="557" type="curve" smooth="yes"/>
      <point x="133" y="450"/>
      <point x="73" y="311"/>
      <point x="73" y="181" type="curve" smooth="yes"/>
      <point x="73" y="96"/>
      <point x="107" y="15"/>
      <point x="168" y="-42" type="curve" smooth="yes"/>
      <point x="236" y="-107"/>
      <point x="327" y="-137"/>
      <point x="453" y="-137" type="curve" smooth="yes"/>
      <point x="548" y="-137"/>
      <point x="624" y="-123"/>
      <point x="700" y="-92" type="curve"/>
      <point x="688" y="-13" type="line"/>
      <point x="594" y="-43"/>
      <point x="539" y="-54"/>
      <point x="476" y="-54" type="curve" smooth="yes"/>
      <point x="298" y="-54"/>
      <point x="173" y="50"/>
      <point x="173" y="196" type="curve" smooth="yes"/>
      <point x="173" y="286"/>
      <point x="210" y="389"/>
      <point x="272" y="475" type="curve" smooth="yes"/>
      <point x="360" y="596"/>
      <point x="490" y="662"/>
      <point x="641" y="662" type="curve" smooth="yes"/>
      <point x="746" y="662"/>
      <point x="817" y="634"/>
      <point x="876" y="571" type="curve" smooth="yes"/>
      <point x="918" y="526"/>
      <point x="939" y="476"/>
      <point x="939" y="425" type="curve" smooth="yes"/>
      <point x="939" y="363"/>
      <point x="913" y="293"/>
      <point x="870" y="237" type="curve" smooth="yes"/>
      <point x="825" y="179"/>
      <point x="766" y="139"/>
      <point x="724" y="139" type="curve" smooth="yes"/>
      <point x="701" y="139"/>
      <point x="685" y="153"/>
      <point x="685" y="174" type="curve" smooth="yes"/>
      <point x="685" y="188"/>
      <point x="687" y="195"/>
      <point x="704" y="228" type="curve" smooth="yes"/>
      <point x="840" y="508" type="line"/>
    </contour>
    <contour>
      <point x="606" y="446" type="curve" smooth="yes"/>
      <point x="645" y="444"/>
      <point x="671" y="416"/>
      <point x="671" y="376" type="curve" smooth="yes"/>
      <point x="671" y="335"/>
      <point x="646" y="277"/>
      <point x="608" y="227" type="curve" smooth="yes"/>
      <point x="565" y="169"/>
      <point x="513" y="136"/>
      <point x="468" y="136" type="curve" smooth="yes"/>
      <point x="428" y="136"/>
      <point x="401" y="168"/>
      <point x="401" y="215" type="curve" smooth="yes"/>
      <point x="401" y="317"/>
      <point x="520" y="451"/>
    </contour>
  </outline>
</glyph>
<glyph name="B" format="1">
  <advance width="722"/>
  <unicode hex="0042"/>
  <outline>
    <contour>
      <point x="82" y="0" type="line"/>
      <point x="410" y="0" type="line" smooth="yes"/>
      <point x="510" y="0"/>
      <point x="579" y="24"/>
      <point x="635" y="78" type="curve" smooth="yes"/>
      <point x="684" y="126"/>
      <point x="716" y="196"/>
      <point x="716" y="255" type="curve" smooth="yes"/>
      <point x="716" y="310"/>
      <point x="696" y="348"/>
      <point x="645" y="388" type="curve"/>
      <point x="721" y="438"/>
      <point x="762" y="502"/>
      <point x="762" y="571" type="curve" smooth="yes"/>
      <point x="762" y="610"/>
      <point x="747" y="649"/>
      <point x="721" y="676" type="curve" smooth="yes"/>
      <point x="686" y="712"/>
      <point x="636" y="729"/>
      <point x="562" y="729" type="curve" smooth="yes"/>
      <point x="237" y="729" type="line"/>
    </contour>
    <contour>
      <point x="325" y="439" type="line"/>
      <point x="360" y="604" type="line"/>
      <point x="524" y="604" type="line" smooth="yes"/>
      <point x="586" y="604"/>
      <point x="613" y="585"/>
      <point x="613" y="542" type="curve" smooth="yes"/>
      <point x="613" y="517"/>
      <point x="602" y="490"/>
      <point x="585" y="471" type="curve" smooth="yes"/>
      <point x="563" y="446"/>
      <point x="541" y="439"/>
      <point x="489" y="439" type="curve" smooth="yes"/>
    </contour>
    <contour>
      <point x="259" y="125" type="line"/>
      <point x="299" y="314" type="line"/>
      <point x="477" y="314" type="line" smooth="yes"/>
      <point x="539" y="314"/>
      <point x="568" y="292"/>
      <point x="568" y="245" type="curve" smooth="yes"/>
      <point x="568" y="220"/>
      <point x="559" y="192"/>
      <point x="545" y="171" type="curve" smooth="yes"/>
      <point x="522" y="137"/>
      <point x="494" y="125"/>
      <point x="437" y="125" type="curve" smooth="yes"/>
    </contour>
  </outline>
</glyph>
<glyph name="E" format="1">
  <advance width="667"/>
  <unicode hex="0045"/>
  <outline>
    <contour>
      <point x="296" y="314" type="line"/>
      <point x="645" y="314" type="line"/>
      <point x="671" y="439" type="line"/>
      <point x="322" y="439" type="line"/>
      <point x="357" y="604" type="line"/>
      <point x="735" y="604" type="line"/>
      <point x="762" y="729" type="line"/>
      <point x="234" y="729" type="line"/>
      <point x="79" y="0" type="line"/>
      <point x="624" y="0" type="line"/>
      <point x="651" y="125" type="line"/>
      <point x="256" y="125" type="line"/>
    </contour>
  </outline>
</glyph>
<glyph name="G" format="1">
  <advance width="778"/>
  <unicode hex="0047"/>
  <outline>
    <contour>
      <point x="795" y="392" type="line"/>
      <point x="503" y="392" type="line"/>
      <point x="476" y="267" type="line"/>
      <point x="642" y="267" type="line"/>
      <point x="629" y="226"/>
      <point x="615" y="201"/>
      <point x="588" y="175" type="curve" smooth="yes"/>
      <point x="543" y="130"/>
      <point x="484" y="105"/>
      <point x="426" y="105" type="curve" smooth="yes"/>
      <point x="328" y="105"/>
      <point x="256" y="181"/>
      <point x="256" y="284" type="curve" smooth="yes"/>
      <point x="256" y="355"/>
      <point x="282" y="446"/>
      <point x="318" y="501" type="curve" smooth="yes"/>
      <point x="366" y="575"/>
      <point x="434" y="613"/>
      <point x="519" y="613" type="curve" smooth="yes"/>
      <point x="614" y="613"/>
      <point x="671" y="571"/>
      <point x="679" y="496" type="curve"/>
      <point x="817" y="496" type="line"/>
      <point x="818" y="510"/>
      <point x="819" y="521"/>
      <point x="819" y="529" type="curve" smooth="yes"/>
      <point x="819" y="655"/>
      <point x="710" y="741"/>
      <point x="547" y="741" type="curve" smooth="yes"/>
      <point x="424" y="741"/>
      <point x="315" y="691"/>
      <point x="233" y="596" type="curve" smooth="yes"/>
      <point x="155" y="505"/>
      <point x="107" y="378"/>
      <point x="107" y="262" type="curve" smooth="yes"/>
      <point x="107" y="88"/>
      <point x="219" y="-23"/>
      <point x="395" y="-23" type="curve" smooth="yes"/>
      <point x="488" y="-23"/>
      <point x="554" y="9"/>
      <point x="628" y="88" type="curve"/>
      <point x="621" y="-2" type="line"/>
      <point x="711" y="-2" type="line"/>
    </contour>
  </outline>
</glyph>
<glyph name="H" format="1">
  <advance width="722"/>
  <unicode hex="0048"/>
  <outline>
    <contour>
      <point x="577" y="331" type="line"/>
      <point x="507" y="0" type="line"/>
      <point x="657" y="0" type="line"/>
      <point x="812" y="729" type="line"/>
      <point x="661" y="729" type="line"/>
      <point x="603" y="456" type="line"/>
      <point x="315" y="456" type="line"/>
      <point x="373" y="729" type="line"/>
      <point x="223" y="729" type="line"/>
      <point x="68" y="0" type="line"/>
      <point x="218" y="0" type="line"/>
      <point x="288" y="331" type="line"/>
    </contour>
  </outline>
</glyph>
<glyph name="I" format="1">
  <advance width="278"/>
  <unicode hex="0049"/>
  <outline>
    <contour>
      <point x="368" y="729" type="line"/>
      <point x="218" y="729" type="line"/>
      <point x="63" y="0" type="line"/>
      <point x="213" y="0" type="line"/>
    </contour>
  </outline>
</glyph>
<glyph name="J" format="1">
  <advance width="556"/>
  <unicode hex="004A"/>
  <outline>
    <contour>
      <point x="491" y="729" type="line"/>
      <point x="376" y="190" type="line" smooth="yes"/>
      <point x="365" y="135"/>
      <point x="330" y="105"/>
      <point x="277" y="105" type="curve" smooth="yes"/>
      <point x="238" y="105"/>
      <point x="211" y="127"/>
      <point x="211" y="159" type="curve" smooth="yes"/>
      <point x="211" y="169"/>
      <point x="212" y="180"/>
      <point x="215" y="193" type="curve" smooth="yes"/>
      <point x="231" y="270" type="line"/>
      <point x="81" y="270" type="line"/>
      <point x="66" y="198" type="line" smooth="yes"/>
      <point x="61" y="176"/>
      <point x="59" y="154"/>
      <point x="59" y="133" type="curve" smooth="yes"/>
      <point x="59" y="36"/>
      <point x="130" y="-23"/>
      <point x="247" y="-23" type="curve" smooth="yes"/>
      <point x="313" y="-23"/>
      <point x="383" y="-5"/>
      <point x="426" y="23" type="curve" smooth="yes"/>
      <point x="475" y="55"/>
      <point x="510" y="114"/>
      <point x="526" y="190" type="curve" smooth="yes"/>
      <point x="641" y="729" type="line"/>
    </contour>
  </outline>
</glyph>
<glyph name="K" format="1">
  <advance width="722"/>
  <unicode hex="004B"/>
  <outline>
    <contour>
      <point x="274" y="234" type="line"/>
      <point x="365" y="314" type="line"/>
      <point x="538" y="0" type="line"/>
      <point x="717" y="0" type="line"/>
      <point x="482" y="410" type="line"/>
      <point x="843" y="729" type="line"/>
      <point x="665" y="729" type="line"/>
      <point x="311" y="409" type="line"/>
      <point x="379" y="729" type="line"/>
      <point x="229" y="729" type="line"/>
      <point x="74" y="0" type="line"/>
      <point x="224" y="0" type="line"/>
    </contour>
  </outline>
</glyph>
<glyph name="L" format="1">
  <advance width="611"/>
  <unicode hex="004C"/>
  <outline>
    <contour>
      <point x="385" y="729" type="line"/>
      <point x="235" y="729" type="line"/>
      <point x="80" y="0" type="line"/>
      <point x="579" y="0" type="line"/>
      <point x="606" y="125" type="line"/>
      <point x="257" y="125" type="line"/>
    </contour>
  </outline>
</glyph>
<glyph name="M" format="1">
  <advance width="833"/>
  <unicode hex="004D"/>
  <outline>
    <contour>
      <point x="497" y="0" type="line"/>
      <point x="766" y="619" type="line"/>
      <point x="634" y="0" type="line"/>
      <point x="776" y="0" type="line"/>
      <point x="931" y="729" type="line"/>
      <point x="712" y="729" type="line"/>
      <point x="458" y="169" type="line"/>
      <point x="438" y="729" type="line"/>
      <point x="221" y="729" type="line"/>
      <point x="66" y="0" type="line"/>
      <point x="208" y="0" type="line"/>
      <point x="340" y="619" type="line"/>
      <point x="347" y="0" type="line"/>
    </contour>
  </outline>
</glyph>
<glyph name="N" format="1">
  <advance width="722"/>
  <unicode hex="004E"/>
  <outline>
    <contour>
      <point x="816" y="729" type="line"/>
      <point x="674" y="729" type="line"/>
      <point x="565" y="214" type="line"/>
      <point x="373" y="729" type="line"/>
      <point x="223" y="729" type="line"/>
      <point x="68" y="0" type="line"/>
      <point x="210" y="0" type="line"/>
      <point x="321" y="523" type="line"/>
      <point x="513" y="0" type="line"/>
      <point x="661" y="0" type="line"/>
    </contour>
  </outline>
</glyph>
<glyph name="P" format="1">
  <advance width="667"/>
  <unicode hex="0050"/>
  <outline>
    <contour>
      <point x="281" y="260" type="line"/>
      <point x="468" y="260" type="line" smooth="yes"/>
      <point x="547" y="260"/>
      <point x="605" y="284"/>
      <point x="658" y="341" type="curve" smooth="yes"/>
      <point x="712" y="398"/>
      <point x="747" y="483"/>
      <point x="747" y="560" type="curve" smooth="yes"/>
      <point x="747" y="612"/>
      <point x="724" y="659"/>
      <point x="683" y="690" type="curve" smooth="yes"/>
      <point x="647" y="718"/>
      <point x="606" y="729"/>
      <point x="539" y="729" type="curve" smooth="yes"/>
      <point x="231" y="729" type="line"/>
      <point x="76" y="0" type="line"/>
      <point x="226" y="0" type="line"/>
    </contour>
    <contour>
      <point x="308" y="385" type="line"/>
      <point x="354" y="604" type="line"/>
      <point x="508" y="604" type="line" smooth="yes"/>
      <point x="562" y="604"/>
      <point x="598" y="572"/>
      <point x="598" y="525" type="curve" smooth="yes"/>
      <point x="598" y="496"/>
      <point x="587" y="457"/>
      <point x="572" y="436" type="curve" smooth="yes"/>
      <point x="548" y="401"/>
      <point x="514" y="385"/>
      <point x="461" y="385" type="curve" smooth="yes"/>
    </contour>
  </outline>
</glyph>
<glyph name="Q" format="1">
  <advance width="778"/>
  <unicode hex="0051"/>
  <outline>
    <contour>
      <point x="686" y="103" type="line"/>
      <point x="771" y="185"/>
      <point x="831" y="330"/>
      <point x="831" y="453" type="curve" smooth="yes"/>
      <point x="831" y="632"/>
      <point x="721" y="741"/>
      <point x="538" y="741" type="curve" smooth="yes"/>
      <point x="414" y="741"/>
      <point x="315" y="694"/>
      <point x="232" y="594" type="curve" smooth="yes"/>
      <point x="156" y="504"/>
      <point x="109" y="378"/>
      <point x="109" y="262" type="curve" smooth="yes"/>
      <point x="109" y="87"/>
      <point x="220" y="-23"/>
      <point x="397" y="-23" type="curve" smooth="yes"/>
      <point x="468" y="-23"/>
      <point x="527" y="-7"/>
      <point x="588" y="27" type="curve"/>
      <point x="657" y="-54" type="line"/>
      <point x="750" y="27" type="line"/>
    </contour>
    <contour>
      <point x="539" y="278" type="line"/>
      <point x="445" y="197" type="line"/>
      <point x="507" y="124" type="line"/>
      <point x="482" y="112"/>
      <point x="450" y="105"/>
      <point x="418" y="105" type="curve" smooth="yes"/>
      <point x="319" y="105"/>
      <point x="258" y="173"/>
      <point x="258" y="282" type="curve" smooth="yes"/>
      <point x="258" y="361"/>
      <point x="285" y="447"/>
      <point x="329" y="508" type="curve" smooth="yes"/>
      <point x="379" y="578"/>
      <point x="442" y="613"/>
      <point x="518" y="613" type="curve" smooth="yes"/>
      <point x="621" y="613"/>
      <point x="682" y="547"/>
      <point x="682" y="436" type="curve" smooth="yes"/>
      <point x="682" y="354"/>
      <point x="650" y="258"/>
      <point x="604" y="200" type="curve"/>
    </contour>
  </outline>
</glyph>
<glyph name="V" format="1">
  <advance width="667"/>
  <unicode hex="0056"/>
  <outline>
    <contour>
      <point x="400" y="0" type="line"/>
      <point x="802" y="729" type="line"/>
      <point x="651" y="729" type="line"/>
      <point x="375" y="180" type="line"/>
      <point x="330" y="729" type="line"/>
      <point x="179" y="729" type="line"/>
      <point x="273" y="0" type="line"/>
    </contour>
  </outline>
</glyph>
<glyph name="W" format="1">
  <advance width="944"/>
  <unicode hex="0057"/>
  <outline>
    <contour>
      <point x="730" y="0" type="line"/>
      <point x="1087" y="729" type="line"/>
      <point x="928" y="729" type="line"/>
      <point x="703" y="181" type="line"/>
      <point x="706" y="729" type="line"/>
      <point x="548" y="729" type="line"/>
      <point x="324" y="183" type="line"/>
      <point x="327" y="729" type="line"/>
      <point x="168" y="729" type="line"/>
      <point x="219" y="0" type="line"/>
      <point x="354" y="0" type="line"/>
      <point x="591" y="555" type="line"/>
      <point x="595" y="0" type="line"/>
    </contour>
  </outline>
</glyph>
<glyph name="X" format="1">
  <advance width="667"/>
  <unicode hex="0058"/>
  <outline>
    <contour>
      <point x="499" y="372" type="line"/>
      <point x="802" y="729" type="line"/>
      <point x="627" y="729" type="line"/>
      <point x="444" y="493" type="line"/>
      <point x="365" y="729" type="line"/>
      <point x="187" y="729" type="line"/>
      <point x="332" y="367" type="line"/>
      <point x="22" y="0" type="line"/>
      <point x="197" y="0" type="line"/>
      <point x="386" y="249" type="line"/>
      <point x="476" y="0" type="line"/>
      <point x="655" y="0" type="line"/>
    </contour>
  </outline>
</glyph>
<glyph name="Y" format="1">
  <advance width="667"/>
  <unicode hex="0059"/>
  <outline>
    <contour>
      <point x="477" y="270" type="line"/>
      <point x="805" y="729" type="line"/>
      <point x="638" y="729" type="line"/>
      <point x="431" y="414" type="line"/>
      <point x="349" y="729" type="line"/>
      <point x="182" y="729" type="line"/>
      <point x="327" y="270" type="line"/>
      <point x="269" y="0" type="line"/>
      <point x="419" y="0" type="line"/>
    </contour>
  </outline>
</glyph>
<glyph name="Z" format="1">
  <advance width="611"/>
  <unicode hex="005A"/>
  <outline>
    <contour>
      <point x="733" y="729" type="line"/>
      <point x="185" y="729" type="line"/>
      <point x="158" y="604" type="line"/>
      <point x="531" y="604" type="line"/>
      <point x="57" y="125" type="line"/>
      <point x="30" y="0" type="line"/>
      <point x="578" y="0" type="line"/>
      <point x="605" y="125" type="line"/>
      <point x="232" y="125" type="line"/>
      <point x="706" y="604" type="line"/>
    </contour>
  </outline>
</glyph>
<glyph name="bracketleft" format="1">
  <advance width="333"/>
  <unicode hex="005B"/>
  <outline>
    <contour>
      <point x="463" y="729" type="line"/>
      <point x="220" y="729" type="line"/>
      <point x="23" y="-200" type="line"/>
      <point x="266" y="-200" type="line"/>
      <point x="287" y="-100" type="line"/>
      <point x="174" y="-100" type="line"/>
      <point x="328" y="629" type="line"/>
      <point x="441" y="629" type="line"/>
    </contour>
  </outline>
</glyph>
<glyph name="backslash" format="1">
  <advance width="278"/>
  <unicode hex="005C"/>
  <outline>
    <contour>
      <point x="138" y="709" type="line"/>
      <point x="210" y="-23" type="line"/>
      <point x="285" y="-23" type="line"/>
      <point x="212" y="709" type="line"/>
    </contour>
  </outline>
</glyph>
<glyph name="bracketright" format="1">
  <advance width="333"/>
  <unicode hex="005D"/>
  <outline>
    <contour>
      <point x="-25" y="-200" type="line"/>
      <point x="218" y="-200" type="line"/>
      <point x="415" y="729" type="line"/>
      <point x="172" y="729" type="line"/>
      <point x="151" y="629" type="line"/>
      <point x="264" y="629" type="line"/>
      <point x="110" y="-100" type="line"/>
      <point x="-3" y="-100" type="line"/>
    </contour>
  </outline>
</glyph>
<glyph name="asciicircum" format="1">
  <advance width="584"/>
  <unicode hex="005E"/>
  <outline>
    <contour>
      <point x="580" y="270" type="line"/>
      <point x="499" y="695" type="line"/>
      <point x="374" y="695" type="line"/>
      <point x="119" y="270" type="line"/>
      <point x="231" y="270" type="line"/>
      <point x="409" y="570" type="line"/>
      <point x="467" y="270" type="line"/>
    </contour>
  </outline>
</glyph>
<glyph name="underscore" format="1">
  <advance width="556"/>
  <unicode hex="005F"/>
  <outline>
    <contour>
      <point x="550" y="-76" type="line"/>
      <point x="-50" y="-76" type="line"/>
      <point x="-65" y="-145" type="line"/>
      <point x="535" y="-145" type="line"/>
    </contour>
  </outline>
</glyph>
<glyph name="grave" format="1">
  <advance width="333"/>
  <unicode hex="0060"/>
  <outline>
    <contour>
      <point x="175" y="757" type="line"/>
      <point x="276" y="607" type="line"/>
      <point x="339" y="607" type="line"/>
      <point x="294" y="757" type="line"/>
    </contour>
  </outline>
</glyph>
<glyph name="b" format="1">
  <advance width="611"/>
  <unicode hex="0062"/>
  <outline>
    <contour>
      <point x="214" y="729" type="line"/>
      <point x="59" y="0" type="line"/>
      <point x="199" y="0" type="line"/>
      <point x="211" y="55" type="line"/>
      <point x="233" y="2"/>
      <point x="276" y="-23"/>
      <point x="343" y="-23" type="curve" smooth="yes"/>
      <point x="497" y="-23"/>
      <point x="640" y="152"/>
      <point x="640" y="342" type="curve" smooth="yes"/>
      <point x="640" y="467"/>
      <point x="571" y="549"/>
      <point x="465" y="549" type="curve" smooth="yes"/>
      <point x="397" y="549"/>
      <point x="344" y="524"/>
      <point x="299" y="470" type="curve"/>
      <point x="354" y="729" type="line"/>
    </contour>
    <contour>
      <point x="409" y="437" type="curve" smooth="yes"/>
      <point x="463" y="437"/>
      <point x="497" y="392"/>
      <point x="497" y="319" type="curve" smooth="yes"/>
      <point x="497" y="197"/>
      <point x="421" y="89"/>
      <point x="336" y="89" type="curve" smooth="yes"/>
      <point x="283" y="89"/>
      <point x="248" y="134"/>
      <point x="248" y="202" type="curve" smooth="yes"/>
      <point x="248" y="327"/>
      <point x="323" y="437"/>
    </contour>
  </outline>
</glyph>
<glyph name="g" format="1">
  <advance width="611"/>
  <unicode hex="0067"/>
  <outline>
    <contour>
      <point x="523" y="540" type="line"/>
      <point x="505" y="457" type="line"/>
      <point x="478" y="519"/>
      <point x="437" y="549"/>
      <point x="378" y="549" type="curve" smooth="yes"/>
      <point x="302" y="549"/>
      <point x="227" y="511"/>
      <point x="174" y="445" type="curve" smooth="yes"/>
      <point x="116" y="374"/>
      <point x="79" y="264"/>
      <point x="79" y="167" type="curve" smooth="yes"/>
      <point x="79" y="57"/>
      <point x="153" y="-23"/>
      <point x="254" y="-23" type="curve" smooth="yes"/>
      <point x="316" y="-23"/>
      <point x="356" y="-4"/>
      <point x="420" y="55" type="curve"/>
      <point x="404" y="-18" type="line" smooth="yes"/>
      <point x="390" y="-83"/>
      <point x="331" y="-128"/>
      <point x="258" y="-128" type="curve" smooth="yes"/>
      <point x="209" y="-128"/>
      <point x="172" y="-106"/>
      <point x="172" y="-77" type="curve"/>
      <point x="173" y="-65" type="line"/>
      <point x="29" y="-65" type="line"/>
      <point x="27" y="-77"/>
      <point x="26" y="-88"/>
      <point x="26" y="-96" type="curve" smooth="yes"/>
      <point x="26" y="-134"/>
      <point x="52" y="-172"/>
      <point x="93" y="-192" type="curve" smooth="yes"/>
      <point x="129" y="-210"/>
      <point x="173" y="-218"/>
      <point x="235" y="-218" type="curve" smooth="yes"/>
      <point x="401" y="-218"/>
      <point x="510" y="-146"/>
      <point x="537" y="-18" type="curve" smooth="yes"/>
      <point x="656" y="540" type="line"/>
    </contour>
    <contour>
      <point x="379" y="437" type="curve" smooth="yes"/>
      <point x="435" y="437"/>
      <point x="471" y="389"/>
      <point x="471" y="315" type="curve" smooth="yes"/>
      <point x="471" y="193"/>
      <point x="395" y="89"/>
      <point x="306" y="89" type="curve" smooth="yes"/>
      <point x="254" y="89"/>
      <point x="222" y="132"/>
      <point x="222" y="201" type="curve" smooth="yes"/>
      <point x="222" y="324"/>
      <point x="297" y="437"/>
    </contour>
  </outline>
</glyph>
<glyph name="h" format="1">
  <advance width="611"/>
  <unicode hex="0068"/>
  <outline>
    <contour>
      <point x="222" y="729" type="line"/>
      <point x="67" y="0" type="line"/>
      <point x="207" y="0" type="line"/>
      <point x="272" y="304" type="line" smooth="yes"/>
      <point x="289" y="385"/>
      <point x="342" y="437"/>
      <point x="406" y="437" type="curve" smooth="yes"/>
      <point x="453" y="437"/>
      <point x="479" y="410"/>
      <point x="479" y="361" type="curve" smooth="yes"/>
      <point x="479" y="348"/>
      <point x="477" y="334"/>
      <point x="473" y="313" type="curve" smooth="yes"/>
      <point x="406" y="0" type="line"/>
      <point x="546" y="0" type="line"/>
      <point x="623" y="362" type="line" smooth="yes"/>
      <point x="627" y="381"/>
      <point x="629" y="399"/>
      <point x="629" y="417" type="curve" smooth="yes"/>
      <point x="629" y="496"/>
      <point x="571" y="549"/>
      <point x="484" y="549" type="curve" smooth="yes"/>
      <point x="413" y="549"/>
      <point x="357" y="521"/>
      <point x="304" y="458" type="curve"/>
      <point x="362" y="729" type="line"/>
    </contour>
  </outline>
</glyph>
<glyph name="j" format="1">
  <advance width="278"/>
  <unicode hex="006A"/>
  <outline>
    <contour>
      <point x="365" y="729" type="line"/>
      <point x="225" y="729" type="line"/>
      <point x="198" y="604" type="line"/>
      <point x="338" y="604" type="line"/>
    </contour>
    <contour>
      <point x="325" y="540" type="line"/>
      <point x="185" y="540" type="line"/>
      <point x="57" y="-62" type="line" smooth="yes"/>
      <point x="50" y="-94"/>
      <point x="36" y="-106"/>
      <point x="6" y="-106" type="curve" smooth="yes"/>
      <point x="-8" y="-106"/>
      <point x="-15" y="-105"/>
      <point x="-19" y="-102" type="curve"/>
      <point x="-43" y="-213" type="line"/>
      <point x="-29" y="-217"/>
      <point x="-17" y="-218"/>
      <point x="2" y="-218" type="curve" smooth="yes"/>
      <point x="116" y="-218"/>
      <point x="172" y="-181"/>
      <point x="190" y="-94" type="curve" smooth="yes"/>
    </contour>
  </outline>
</glyph>
<glyph name="k" format="1">
  <advance width="556"/>
  <unicode hex="006B"/>
  <outline>
    <contour>
      <point x="354" y="729" type="line"/>
      <point x="214" y="729" type="line"/>
      <point x="59" y="0" type="line"/>
      <point x="199" y="0" type="line"/>
      <point x="237" y="177" type="line"/>
      <point x="305" y="239" type="line"/>
      <point x="384" y="0" type="line"/>
      <point x="548" y="0" type="line"/>
      <point x="419" y="334" type="line"/>
      <point x="651" y="540" type="line"/>
      <point x="492" y="540" type="line"/>
      <point x="269" y="330" type="line"/>
    </contour>
  </outline>
</glyph>
<glyph name="l" format="1">
  <advance width="278"/>
  <unicode hex="006C"/>
  <outline>
    <contour>
      <point x="362" y="729" type="line"/>
      <point x="222" y="729" type="line"/>
      <point x="67" y="0" type="line"/>
      <point x="207" y="0" type="line"/>
    </contour>
  </outline>
</glyph>
<glyph name="m" format="1">
  <advance width="889"/>
  <unicode hex="006D"/>
  <outline>
    <contour>
      <point x="175" y="540" type="line"/>
      <point x="60" y="0" type="line"/>
      <point x="200" y="0" type="line"/>
      <point x="269" y="324" type="line" smooth="yes"/>
      <point x="284" y="394"/>
      <point x="329" y="437"/>
      <point x="387" y="437" type="curve" smooth="yes"/>
      <point x="425" y="437"/>
      <point x="450" y="414"/>
      <point x="450" y="379" type="curve" smooth="yes"/>
      <point x="450" y="367"/>
      <point x="449" y="357"/>
      <point x="447" y="346" type="curve" smooth="yes"/>
      <point x="373" y="0" type="line"/>
      <point x="513" y="0" type="line"/>
      <point x="582" y="324" type="line" smooth="yes"/>
      <point x="597" y="396"/>
      <point x="642" y="437"/>
      <point x="705" y="437" type="curve" smooth="yes"/>
      <point x="742" y="437"/>
      <point x="763" y="417"/>
      <point x="763" y="381" type="curve" smooth="yes"/>
      <point x="763" y="369"/>
      <point x="761" y="354"/>
      <point x="758" y="340" type="curve" smooth="yes"/>
      <point x="686" y="0" type="line"/>
      <point x="826" y="0" type="line"/>
      <point x="903" y="362" type="line" smooth="yes"/>
      <point x="909" y="391"/>
      <point x="911" y="405"/>
      <point x="911" y="423" type="curve" smooth="yes"/>
      <point x="911" y="502"/>
      <point x="859" y="549"/>
      <point x="769" y="549" type="curve" smooth="yes"/>
      <point x="701" y="549"/>
      <point x="647" y="524"/>
      <point x="592" y="467" type="curve"/>
      <point x="578" y="517"/>
      <point x="530" y="549"/>
      <point x="468" y="549" type="curve" smooth="yes"/>
      <point x="403" y="549"/>
      <point x="356" y="524"/>
      <point x="297" y="459" type="curve"/>
      <point x="314" y="540" type="line"/>
    </contour>
  </outline>
</glyph>
<glyph name="p" format="1">
  <advance width="611"/>
  <unicode hex="0070"/>
  <outline>
    <contour>
      <point x="312" y="540" type="line"/>
      <point x="172" y="540" type="line"/>
      <point x="11" y="-218" type="line"/>
      <point x="151" y="-218" type="line"/>
      <point x="211" y="64" type="line"/>
      <point x="232" y="4"/>
      <point x="274" y="-24"/>
      <point x="344" y="-24" type="curve" smooth="yes"/>
      <point x="505" y="-24"/>
      <point x="637" y="141"/>
      <point x="637" y="342" type="curve" smooth="yes"/>
      <point x="637" y="469"/>
      <point x="570" y="549"/>
      <point x="464" y="549" type="curve" smooth="yes"/>
      <point x="397" y="549"/>
      <point x="341" y="519"/>
      <point x="295" y="460" type="curve"/>
    </contour>
    <contour>
      <point x="406" y="437" type="curve" smooth="yes"/>
      <point x="460" y="437"/>
      <point x="494" y="392"/>
      <point x="494" y="323" type="curve" smooth="yes"/>
      <point x="494" y="196"/>
      <point x="420" y="88"/>
      <point x="334" y="88" type="curve" smooth="yes"/>
      <point x="281" y="88"/>
      <point x="246" y="133"/>
      <point x="246" y="201" type="curve" smooth="yes"/>
      <point x="246" y="327"/>
      <point x="320" y="437"/>
    </contour>
  </outline>
</glyph>
<glyph name="q" format="1">
  <advance width="611"/>
  <unicode hex="0071"/>
  <outline>
    <contour>
      <point x="519" y="540" type="line"/>
      <point x="502" y="460" type="line"/>
      <point x="482" y="520"/>
      <point x="438" y="549"/>
      <point x="369" y="549" type="curve" smooth="yes"/>
      <point x="286" y="549"/>
      <point x="206" y="505"/>
      <point x="152" y="430" type="curve" smooth="yes"/>
      <point x="102" y="359"/>
      <point x="72" y="266"/>
      <point x="72" y="180" type="curve" smooth="yes"/>
      <point x="72" y="57"/>
      <point x="142" y="-24"/>
      <point x="248" y="-24" type="curve" smooth="yes"/>
      <point x="316" y="-24"/>
      <point x="373" y="5"/>
      <point x="418" y="64" type="curve"/>
      <point x="358" y="-218" type="line"/>
      <point x="498" y="-218" type="line"/>
      <point x="659" y="540" type="line"/>
    </contour>
    <contour>
      <point x="377" y="437" type="curve" smooth="yes"/>
      <point x="431" y="437"/>
      <point x="466" y="393"/>
      <point x="466" y="324" type="curve" smooth="yes"/>
      <point x="466" y="197"/>
      <point x="391" y="88"/>
      <point x="304" y="88" type="curve" smooth="yes"/>
      <point x="250" y="88"/>
      <point x="215" y="133"/>
      <point x="215" y="202" type="curve" smooth="yes"/>
      <point x="215" y="327"/>
      <point x="291" y="437"/>
    </contour>
  </outline>
</glyph>
<glyph name="r" format="1">
  <advance width="389"/>
  <unicode hex="0072"/>
  <outline>
    <contour>
      <point x="178" y="540" type="line"/>
      <point x="63" y="0" type="line"/>
      <point x="203" y="0" type="line"/>
      <point x="264" y="287" type="line" smooth="yes"/>
      <point x="281" y="369"/>
      <point x="332" y="410"/>
      <point x="414" y="410" type="curve" smooth="yes"/>
      <point x="429" y="410"/>
      <point x="439" y="409"/>
      <point x="457" y="406" type="curve"/>
      <point x="487" y="548" type="line"/>
      <point x="479" y="549"/>
      <point x="474" y="549"/>
      <point x="470" y="549" type="curve" smooth="yes"/>
      <point x="406" y="549"/>
      <point x="342" y="507"/>
      <point x="295" y="434" type="curve"/>
      <point x="318" y="540" type="line"/>
    </contour>
  </outline>
</glyph>
<glyph name="w" format="1">
  <advance width="778"/>
  <unicode hex="0077"/>
  <outline>
    <contour>
      <point x="617" y="0" type="line"/>
      <point x="881" y="540" type="line"/>
      <point x="736" y="540" type="line"/>
      <point x="573" y="162" type="line"/>
      <point x="573" y="540" type="line"/>
      <point x="429" y="540" type="line"/>
      <point x="270" y="162" type="line"/>
      <point x="265" y="540" type="line"/>
      <point x="120" y="540" type="line"/>
      <point x="157" y="0" type="line"/>
      <point x="301" y="0" type="line"/>
      <point x="467" y="380" type="line"/>
      <point x="472" y="0" type="line"/>
    </contour>
  </outline>
</glyph>
<glyph name="x" format="1">
  <advance width="556"/>
  <unicode hex="0078"/>
  <outline>
    <contour>
      <point x="411" y="274" type="line"/>
      <point x="648" y="540" type="line"/>
      <point x="480" y="540" type="line"/>
      <point x="357" y="377" type="line"/>
      <point x="306" y="540" type="line"/>
      <point x="138" y="540" type="line"/>
      <point x="249" y="274" type="line"/>
      <point x="16" y="0" type="line"/>
      <point x="184" y="0" type="line"/>
      <point x="307" y="168" type="line"/>
      <point x="366" y="0" type="line"/>
      <point x="534" y="0" type="line"/>
    </contour>
  </outline>
</glyph>
<glyph name="z" format="1">
  <advance width="500"/>
  <unicode hex="007A"/>
  <outline>
    <contour>
      <point x="575" y="540" type="line"/>
      <point x="154" y="540" type="line"/>
      <point x="130" y="427" type="line"/>
      <point x="379" y="427" type="line"/>
      <point x="45" y="113" type="line"/>
      <point x="21" y="0" type="line"/>
      <point x="469" y="0" type="line"/>
      <point x="493" y="113" type="line"/>
      <point x="219" y="113" type="line"/>
      <point x="551" y="427" type="line"/>
    </contour>
  </outline>
</glyph>
<glyph name="braceleft" format="1">
  <advance width="389"/>
  <unicode hex="007B"/>
  <outline>
    <contour>
      <point x="472" y="729" type="line"/>
      <point x="396" y="729" type="line" smooth="yes"/>
      <point x="317" y="729"/>
      <point x="262" y="679"/>
      <point x="243" y="589" type="curve" smooth="yes"/>
      <point x="198" y="378" type="line" smooth="yes"/>
      <point x="190" y="336"/>
      <point x="164" y="315"/>
      <point x="120" y="315" type="curve" smooth="yes"/>
      <point x="108" y="315" type="line"/>
      <point x="104" y="315" type="line"/>
      <point x="84" y="223" type="line"/>
      <point x="88" y="222" type="line"/>
      <point x="101" y="222" type="line" smooth="yes"/>
      <point x="135" y="222"/>
      <point x="155" y="208"/>
      <point x="155" y="184" type="curve" smooth="yes"/>
      <point x="155" y="178"/>
      <point x="153" y="165"/>
      <point x="150" y="150" type="curve" smooth="yes"/>
      <point x="105" y="-60" type="line" smooth="yes"/>
      <point x="102" y="-73"/>
      <point x="101" y="-86"/>
      <point x="101" y="-99" type="curve" smooth="yes"/>
      <point x="101" y="-159"/>
      <point x="140" y="-200"/>
      <point x="198" y="-200" type="curve" smooth="yes"/>
      <point x="275" y="-200" type="line"/>
      <point x="296" y="-101" type="line"/>
      <point x="261" y="-101" type="line" smooth="yes"/>
      <point x="236" y="-101"/>
      <point x="222" y="-92"/>
      <point x="222" y="-76" type="curve" smooth="yes"/>
      <point x="222" y="-66"/>
      <point x="224" y="-53"/>
      <point x="227" y="-36" type="curve" smooth="yes"/>
      <point x="269" y="159" type="line" smooth="yes"/>
      <point x="272" y="174"/>
      <point x="274" y="190"/>
      <point x="274" y="200" type="curve" smooth="yes"/>
      <point x="274" y="227"/>
      <point x="261" y="248"/>
      <point x="240" y="257" type="curve"/>
      <point x="228" y="263"/>
      <point x="220" y="265"/>
      <point x="195" y="269" type="curve"/>
      <point x="268" y="277"/>
      <point x="300" y="306"/>
      <point x="316" y="378" type="curve" smooth="yes"/>
      <point x="357" y="573" type="line" smooth="yes"/>
      <point x="367" y="620"/>
      <point x="377" y="630"/>
      <point x="414" y="630" type="curve" smooth="yes"/>
      <point x="451" y="630" type="line"/>
    </contour>
  </outline>
</glyph>
<glyph name="bar" format="1">
  <advance width="280"/>
  <unicode hex="007C"/>
  <outline>
    <contour>
      <point x="335" y="729" type="line"/>
      <point x="255" y="729" type="line"/>
      <point x="57" y="-200" type="line"/>
      <point x="137" y="-200" type="line"/>
    </contour>
  </outline>
</glyph>
<glyph name="braceright" format="1">
  <advance width="389"/>
  <unicode hex="007D"/>
  <outline>
    <contour>
      <point x="29" y="-200" type="line"/>
      <point x="106" y="-200" type="line" smooth="yes"/>
      <point x="185" y="-200"/>
      <point x="240" y="-150"/>
      <point x="259" y="-60" type="curve" smooth="yes"/>
      <point x="304" y="151" type="line" smooth="yes"/>
      <point x="312" y="193"/>
      <point x="338" y="214"/>
      <point x="382" y="214" type="curve" smooth="yes"/>
      <point x="395" y="214" type="line"/>
      <point x="399" y="214" type="line"/>
      <point x="419" y="306" type="line"/>
      <point x="415" y="307" type="line"/>
      <point x="401" y="307" type="line" smooth="yes"/>
      <point x="367" y="307"/>
      <point x="347" y="321"/>
      <point x="347" y="345" type="curve" smooth="yes"/>
      <point x="347" y="351"/>
      <point x="349" y="364"/>
      <point x="352" y="379" type="curve" smooth="yes"/>
      <point x="397" y="589" type="line" smooth="yes"/>
      <point x="400" y="602"/>
      <point x="401" y="615"/>
      <point x="401" y="628" type="curve" smooth="yes"/>
      <point x="401" y="688"/>
      <point x="362" y="729"/>
      <point x="304" y="729" type="curve" smooth="yes"/>
      <point x="226" y="729" type="line"/>
      <point x="205" y="630" type="line"/>
      <point x="241" y="630" type="line" smooth="yes"/>
      <point x="266" y="630"/>
      <point x="280" y="621"/>
      <point x="280" y="605" type="curve" smooth="yes"/>
      <point x="280" y="595"/>
      <point x="278" y="582"/>
      <point x="275" y="565" type="curve" smooth="yes"/>
      <point x="233" y="370" type="line" smooth="yes"/>
      <point x="230" y="355"/>
      <point x="228" y="339"/>
      <point x="228" y="329" type="curve" smooth="yes"/>
      <point x="228" y="302"/>
      <point x="241" y="281"/>
      <point x="262" y="272" type="curve"/>
      <point x="274" y="266"/>
      <point x="282" y="264"/>
      <point x="307" y="260" type="curve"/>
      <point x="234" y="252"/>
      <point x="202" y="223"/>
      <point x="186" y="151" type="curve" smooth="yes"/>
      <point x="145" y="-44" type="line" smooth="yes"/>
      <point x="135" y="-91"/>
      <point x="125" y="-101"/>
      <point x="88" y="-101" type="curve" smooth="yes"/>
      <point x="50" y="-101" type="line"/>
    </contour>
  </outline>
</glyph>
<glyph name="asciitilde" format="1">
  <advance width="584"/>
  <unicode hex="007E"/>
  <outline>
    <contour>
      <point x="504" y="288" type="line"/>
      <point x="490" y="237"/>
      <point x="475" y="222"/>
      <point x="437" y="222" type="curve" smooth="yes"/>
      <point x="415" y="222"/>
      <point x="402" y="228"/>
      <point x="381" y="247" type="curve" smooth="yes"/>
      <point x="332" y="289" type="line" smooth="yes"/>
      <point x="312" y="306"/>
      <point x="288" y="314"/>
      <point x="256" y="314" type="curve" smooth="yes"/>
      <point x="176" y="314"/>
      <point x="123" y="266"/>
      <point x="97" y="169" type="curve"/>
      <point x="175" y="169" type="line"/>
      <point x="188" y="219"/>
      <point x="204" y="234"/>
      <point x="242" y="234" type="curve" smooth="yes"/>
      <point x="262" y="234"/>
      <point x="278" y="227"/>
      <point x="298" y="210" type="curve" smooth="yes"/>
      <point x="346" y="168" type="line" smooth="yes"/>
      <point x="367" y="150"/>
      <point x="390" y="142"/>
      <point x="423" y="142" type="curve" smooth="yes"/>
      <point x="503" y="142"/>
      <point x="558" y="193"/>
      <point x="581" y="288" type="curve"/>
    </contour>
  </outline>
</glyph>
<glyph name="exclamdown" format="1">
  <advance width="333"/>
  <unicode hex="00A1"/>
  <outline>
    <contour>
      <point x="26" y="-186" type="line"/>
      <point x="176" y="-186" type="line"/>
      <point x="221" y="24" type="line"/>
      <point x="245" y="333" type="line"/>
      <point x="178" y="333" type="line"/>
      <point x="71" y="24" type="line"/>
    </contour>
    <contour>
      <point x="150" y="394" type="line"/>
      <point x="300" y="394" type="line"/>
      <point x="331" y="540" type="line"/>
      <point x="181" y="540" type="line"/>
    </contour>
  </outline>
</glyph>
<glyph name="cent" format="1">
  <advance width="556"/>
  <unicode hex="00A2"/>
  <outline>
    <contour>
      <point x="410" y="435" type="line"/>
      <point x="448" y="423"/>
      <point x="460" y="398"/>
      <point x="460" y="338" type="curve"/>
      <point x="594" y="338" type="line"/>
      <point x="597" y="362"/>
      <point x="598" y="371"/>
      <point x="598" y="381" type="curve" smooth="yes"/>
      <point x="598" y="447"/>
      <point x="554" y="509"/>
      <point x="489" y="535" type="curve" smooth="yes"/>
      <point x="473" y="541"/>
      <point x="458" y="544"/>
      <point x="434" y="547" type="curve"/>
      <point x="453" y="634" type="line"/>
      <point x="387" y="634" type="line"/>
      <point x="368" y="548" type="line"/>
      <point x="280" y="541"/>
      <point x="212" y="503"/>
      <point x="163" y="433" type="curve" smooth="yes"/>
      <point x="113" y="363"/>
      <point x="79" y="256"/>
      <point x="79" y="172" type="curve" smooth="yes"/>
      <point x="79" y="92"/>
      <point x="123" y="21"/>
      <point x="191" y="-5" type="curve" smooth="yes"/>
      <point x="207" y="-12"/>
      <point x="224" y="-16"/>
      <point x="248" y="-20" type="curve"/>
      <point x="226" y="-124" type="line"/>
      <point x="292" y="-124" type="line"/>
      <point x="313" y="-22" type="line"/>
      <point x="430" y="-16"/>
      <point x="526" y="65"/>
      <point x="562" y="187" type="curve"/>
      <point x="428" y="187" type="line"/>
      <point x="404" y="128"/>
      <point x="378" y="99"/>
      <point x="337" y="89" type="curve"/>
    </contour>
    <contour>
      <point x="272" y="93" type="line"/>
      <point x="236" y="109"/>
      <point x="222" y="136"/>
      <point x="222" y="191" type="curve" smooth="yes"/>
      <point x="222" y="263"/>
      <point x="246" y="344"/>
      <point x="282" y="393" type="curve" smooth="yes"/>
      <point x="297" y="414"/>
      <point x="318" y="428"/>
      <point x="344" y="435" type="curve"/>
    </contour>
  </outline>
</glyph>
<glyph name="sterling" format="1">
  <advance width="556"/>
  <unicode hex="00A3"/>
  <outline>
    <contour>
      <point x="455" y="371" type="line"/>
      <point x="316" y="371" type="line"/>
      <point x="313" y="386"/>
      <point x="309" y="402"/>
      <point x="300" y="436" type="curve" smooth="yes"/>
      <point x="289" y="475"/>
      <point x="288" y="482"/>
      <point x="288" y="496" type="curve" smooth="yes"/>
      <point x="288" y="553"/>
      <point x="341" y="603"/>
      <point x="402" y="603" type="curve" smooth="yes"/>
      <point x="464" y="603"/>
      <point x="495" y="572"/>
      <point x="495" y="510" type="curve" smooth="yes"/>
      <point x="495" y="505"/>
      <point x="495" y="494"/>
      <point x="494" y="484" type="curve"/>
      <point x="625" y="484" type="line"/>
      <point x="628" y="509"/>
      <point x="629" y="522"/>
      <point x="629" y="539" type="curve" smooth="yes"/>
      <point x="629" y="655"/>
      <point x="559" y="715"/>
      <point x="425" y="715" type="curve" smooth="yes"/>
      <point x="344" y="715"/>
      <point x="276" y="690"/>
      <point x="224" y="642" type="curve" smooth="yes"/>
      <point x="176" y="597"/>
      <point x="145" y="534"/>
      <point x="145" y="478" type="curve" smooth="yes"/>
      <point x="145" y="451"/>
      <point x="150" y="432"/>
      <point x="171" y="371" type="curve"/>
      <point x="111" y="371" type="line"/>
      <point x="99" y="316" type="line"/>
      <point x="188" y="316" type="line"/>
      <point x="192" y="288"/>
      <point x="193" y="276"/>
      <point x="193" y="261" type="curve" smooth="yes"/>
      <point x="193" y="191"/>
      <point x="153" y="141"/>
      <point x="49" y="80" type="curve"/>
      <point x="82" y="-21" type="line"/>
      <point x="131" y="0"/>
      <point x="160" y="7"/>
      <point x="197" y="7" type="curve" smooth="yes"/>
      <point x="224" y="7"/>
      <point x="247" y="3"/>
      <point x="292" y="-8" type="curve" smooth="yes"/>
      <point x="341" y="-20"/>
      <point x="361" y="-23"/>
      <point x="388" y="-23" type="curve" smooth="yes"/>
      <point x="437" y="-23"/>
      <point x="479" y="-11"/>
      <point x="543" y="22" type="curve"/>
      <point x="525" y="131" type="line"/>
      <point x="480" y="111"/>
      <point x="447" y="102"/>
      <point x="411" y="102" type="curve" smooth="yes"/>
      <point x="395" y="102"/>
      <point x="371" y="105"/>
      <point x="345" y="110" type="curve" smooth="yes"/>
      <point x="299" y="119"/>
      <point x="298" y="119"/>
      <point x="280" y="119" type="curve" smooth="yes"/>
      <point x="250" y="119"/>
      <point x="236" y="115"/>
      <point x="172" y="86" type="curve"/>
      <point x="282" y="163"/>
      <point x="323" y="219"/>
      <point x="323" y="290" type="curve" smooth="yes"/>
      <point x="323" y="297"/>
      <point x="323" y="303"/>
      <point x="321" y="316" type="curve"/>
      <point x="443" y="316" type="line"/>
    </contour>
  </outline>
</glyph>
<glyph name="currency" format="1">
  <advance width="556"/>
  <unicode hex="00A4"/>
  <outline>
    <contour>
      <point x="501" y="528" type="line"/>
      <point x="476" y="546"/>
      <point x="439" y="558"/>
      <point x="404" y="558" type="curve" smooth="yes"/>
      <point x="365" y="558"/>
      <point x="320" y="546"/>
      <point x="286" y="527" type="curve"/>
      <point x="225" y="604" type="line"/>
      <point x="142" y="536" type="line"/>
      <point x="204" y="457" type="line"/>
      <point x="170" y="415"/>
      <point x="149" y="360"/>
      <point x="149" y="310" type="curve" smooth="yes"/>
      <point x="149" y="288"/>
      <point x="152" y="270"/>
      <point x="160" y="246" type="curve"/>
      <point x="66" y="169" type="line"/>
      <point x="120" y="100" type="line"/>
      <point x="214" y="178" type="line"/>
      <point x="235" y="160"/>
      <point x="279" y="147"/>
      <point x="317" y="147" type="curve" smooth="yes"/>
      <point x="354" y="147"/>
      <point x="377" y="153"/>
      <point x="425" y="177" type="curve"/>
      <point x="484" y="102" type="line"/>
      <point x="567" y="170" type="line"/>
      <point x="507" y="246" type="line"/>
      <point x="543" y="292"/>
      <point x="563" y="346"/>
      <point x="563" y="397" type="curve" smooth="yes"/>
      <point x="563" y="416"/>
      <point x="560" y="434"/>
      <point x="553" y="457" type="curve"/>
      <point x="644" y="532" type="line"/>
      <point x="590" y="601" type="line"/>
    </contour>
    <contour>
      <point x="377" y="460" type="curve" smooth="yes"/>
      <point x="427" y="460"/>
      <point x="463" y="425"/>
      <point x="463" y="375" type="curve" smooth="yes"/>
      <point x="463" y="303"/>
      <point x="406" y="245"/>
      <point x="335" y="245" type="curve" smooth="yes"/>
      <point x="284" y="245"/>
      <point x="249" y="280"/>
      <point x="249" y="330" type="curve" smooth="yes"/>
      <point x="249" y="403"/>
      <point x="305" y="460"/>
    </contour>
  </outline>
</glyph>
<glyph name="yen" format="1">
  <advance width="556"/>
  <unicode hex="00A5"/>
  <outline>
    <contour>
      <point x="574" y="352" type="line"/>
      <point x="435" y="352" type="line"/>
      <point x="702" y="704" type="line"/>
      <point x="566" y="704" type="line"/>
      <point x="379" y="450" type="line"/>
      <point x="294" y="704" type="line"/>
      <point x="155" y="704" type="line"/>
      <point x="283" y="352" type="line"/>
      <point x="143" y="352" type="line"/>
      <point x="131" y="292" type="line"/>
      <point x="277" y="292" type="line"/>
      <point x="266" y="240" type="line"/>
      <point x="120" y="240" type="line"/>
      <point x="107" y="180" type="line"/>
      <point x="253" y="180" type="line"/>
      <point x="215" y="0" type="line"/>
      <point x="355" y="0" type="line"/>
      <point x="393" y="180" type="line"/>
      <point x="537" y="180" type="line"/>
      <point x="550" y="240" type="line"/>
      <point x="406" y="240" type="line"/>
      <point x="417" y="292" type="line"/>
      <point x="561" y="292" type="line"/>
    </contour>
  </outline>
</glyph>
<glyph name="brokenbar" format="1">
  <advance width="280"/>
  <unicode hex="00A6"/>
  <outline>
    <contour>
      <point x="335" y="729" type="line"/>
      <point x="255" y="729" type="line"/>
      <point x="172" y="340" type="line"/>
      <point x="252" y="340" type="line"/>
    </contour>
    <contour>
      <point x="220" y="189" type="line"/>
      <point x="140" y="189" type="line"/>
      <point x="57" y="-200" type="line"/>
      <point x="137" y="-200" type="line"/>
    </contour>
  </outline>
</glyph>
<glyph name="section" format="1">
  <advance width="556"/>
  <unicode hex="00A7"/>
  <outline>
    <contour>
      <point x="589" y="544" type="line"/>
      <point x="594" y="569"/>
      <point x="596" y="580"/>
      <point x="596" y="594" type="curve" smooth="yes"/>
      <point x="596" y="675"/>
      <point x="532" y="723"/>
      <point x="425" y="723" type="curve" smooth="yes"/>
      <point x="352" y="723"/>
      <point x="287" y="700"/>
      <point x="243" y="659" type="curve" smooth="yes"/>
      <point x="202" y="622"/>
      <point x="178" y="571"/>
      <point x="178" y="524" type="curve" smooth="yes"/>
      <point x="178" y="485"/>
      <point x="190" y="455"/>
      <point x="216" y="428" type="curve"/>
      <point x="163" y="395"/>
      <point x="149" y="383"/>
      <point x="128" y="359" type="curve" smooth="yes"/>
      <point x="102" y="329"/>
      <point x="89" y="291"/>
      <point x="89" y="247" type="curve" smooth="yes"/>
      <point x="89" y="208"/>
      <point x="109" y="172"/>
      <point x="143" y="149" type="curve" smooth="yes"/>
      <point x="293" y="49" type="line" smooth="yes"/>
      <point x="343" y="18"/>
      <point x="348" y="12"/>
      <point x="348" y="-15" type="curve" smooth="yes"/>
      <point x="348" y="-57"/>
      <point x="309" y="-89"/>
      <point x="258" y="-89" type="curve" smooth="yes"/>
      <point x="216" y="-89"/>
      <point x="193" y="-70"/>
      <point x="193" y="-34" type="curve" smooth="yes"/>
      <point x="193" y="-24"/>
      <point x="194" y="-17"/>
      <point x="196" y="0" type="curve"/>
      <point x="65" y="0" type="line"/>
      <point x="58" y="-26"/>
      <point x="56" y="-40"/>
      <point x="56" y="-59" type="curve" smooth="yes"/>
      <point x="56" y="-146"/>
      <point x="124" y="-201"/>
      <point x="232" y="-201" type="curve" smooth="yes"/>
      <point x="320" y="-201"/>
      <point x="392" y="-170"/>
      <point x="441" y="-111" type="curve" smooth="yes"/>
      <point x="476" y="-71"/>
      <point x="496" y="-19"/>
      <point x="496" y="27" type="curve" smooth="yes"/>
      <point x="496" y="68"/>
      <point x="481" y="99"/>
      <point x="448" y="126" type="curve"/>
      <point x="496" y="144"/>
      <point x="517" y="157"/>
      <point x="539" y="183" type="curve" smooth="yes"/>
      <point x="564" y="212"/>
      <point x="578" y="254"/>
      <point x="578" y="302" type="curve" smooth="yes"/>
      <point x="578" y="350"/>
      <point x="557" y="385"/>
      <point x="509" y="415" type="curve" smooth="yes"/>
      <point x="397" y="485" type="line" smooth="yes"/>
      <point x="347" y="516"/>
      <point x="326" y="538"/>
      <point x="326" y="559" type="curve" smooth="yes"/>
      <point x="326" y="594"/>
      <point x="358" y="621"/>
      <point x="401" y="621" type="curve" smooth="yes"/>
      <point x="441" y="621"/>
      <point x="463" y="600"/>
      <point x="463" y="562" type="curve" smooth="yes"/>
      <point x="463" y="558"/>
      <point x="463" y="551"/>
      <point x="462" y="544" type="curve"/>
    </contour>
    <contour>
      <point x="258" y="247" type="line" smooth="yes"/>
      <point x="229" y="264"/>
      <point x="219" y="279"/>
      <point x="219" y="301" type="curve" smooth="yes"/>
      <point x="219" y="335"/>
      <point x="237" y="362"/>
      <point x="275" y="382" type="curve"/>
      <point x="402" y="306" type="line" smooth="yes"/>
      <point x="437" y="285"/>
      <point x="448" y="271"/>
      <point x="448" y="247" type="curve" smooth="yes"/>
      <point x="448" y="214"/>
      <point x="430" y="192"/>
      <point x="383" y="170" type="curve"/>
    </contour>
  </outline>
</glyph>
<glyph name="dieresis" format="1">
  <advance width="333"/>
  <unicode hex="00A8"/>
  <outline>
    <contour>
      <point x="283" y="741" type="line"/>
      <point x="173" y="741" type="line"/>
      <point x="147" y="621" type="line"/>
      <point x="257" y="621" type="line"/>
    </contour>
    <contour>
      <point x="469" y="741" type="line"/>
      <point x="359" y="741" type="line"/>
      <point x="333" y="621" type="line"/>
      <point x="443" y="621" type="line"/>
    </contour>
  </outline>
</glyph>
<glyph name="copyright" format="1">
  <advance width="737"/>
  <unicode hex="00A9"/>
  <outline>
    <contour>
      <point x="644" y="431" type="line"/>
      <point x="646" y="448"/>
      <point x="647" y="456"/>
      <point x="647" y="464" type="curve" smooth="yes"/>
      <point x="647" y="541"/>
      <point x="586" y="592"/>
      <point x="493" y="592" type="curve" smooth="yes"/>
      <point x="417" y="592"/>
      <point x="350" y="559"/>
      <point x="302" y="498" type="curve" smooth="yes"/>
      <point x="259" y="444"/>
      <point x="232" y="362"/>
      <point x="232" y="287" type="curve" smooth="yes"/>
      <point x="232" y="189"/>
      <point x="292" y="128"/>
      <point x="390" y="128" type="curve" smooth="yes"/>
      <point x="504" y="128"/>
      <point x="590" y="192"/>
      <point x="618" y="297" type="curve"/>
      <point x="526" y="297" type="line"/>
      <point x="508" y="241"/>
      <point x="468" y="211"/>
      <point x="411" y="211" type="curve" smooth="yes"/>
      <point x="356" y="211"/>
      <point x="325" y="244"/>
      <point x="325" y="305" type="curve" smooth="yes"/>
      <point x="325" y="353"/>
      <point x="341" y="408"/>
      <point x="366" y="446" type="curve" smooth="yes"/>
      <point x="395" y="488"/>
      <point x="432" y="509"/>
      <point x="478" y="509" type="curve" smooth="yes"/>
      <point x="531" y="509"/>
      <point x="554" y="485"/>
      <point x="554" y="431" type="curve"/>
    </contour>
    <contour>
      <point x="530" y="743" type="curve" smooth="yes"/>
      <point x="284" y="743"/>
      <point x="54" y="520"/>
      <point x="54" y="281" type="curve" smooth="yes"/>
      <point x="54" y="106"/>
      <point x="184" y="-22"/>
      <point x="360" y="-22" type="curve" smooth="yes"/>
      <point x="607" y="-22"/>
      <point x="837" y="201"/>
      <point x="837" y="440" type="curve" smooth="yes"/>
      <point x="837" y="615"/>
      <point x="707" y="743"/>
    </contour>
    <contour>
      <point x="514" y="671" type="curve" smooth="yes"/>
      <point x="654" y="671"/>
      <point x="757" y="568"/>
      <point x="757" y="427" type="curve" smooth="yes"/>
      <point x="757" y="232"/>
      <point x="573" y="50"/>
      <point x="377" y="50" type="curve" smooth="yes"/>
      <point x="237" y="50"/>
      <point x="134" y="154"/>
      <point x="134" y="295" type="curve" smooth="yes"/>
      <point x="134" y="489"/>
      <point x="318" y="671"/>
    </contour>
  </outline>
</glyph>
<glyph name="ordfeminine" format="1">
  <advance width="370"/>
  <unicode hex="00AA"/>
  <outline>
    <contour>
      <point x="396" y="342" type="line"/>
      <point x="113" y="342" type="line"/>
      <point x="96" y="262" type="line"/>
      <point x="380" y="262" type="line"/>
    </contour>
    <contour>
      <point x="420" y="409" type="line"/>
      <point x="412" y="419"/>
      <point x="408" y="428"/>
      <point x="408" y="436" type="curve" smooth="yes"/>
      <point x="408" y="441"/>
      <point x="408" y="444"/>
      <point x="409" y="449" type="curve" smooth="yes"/>
      <point x="448" y="629" type="line" smooth="yes"/>
      <point x="450" y="640"/>
      <point x="451" y="649"/>
      <point x="451" y="657" type="curve" smooth="yes"/>
      <point x="451" y="702"/>
      <point x="408" y="729"/>
      <point x="337" y="729" type="curve" smooth="yes"/>
      <point x="247" y="729"/>
      <point x="193" y="692"/>
      <point x="176" y="617" type="curve"/>
      <point x="255" y="617" type="line"/>
      <point x="265" y="649"/>
      <point x="284" y="661"/>
      <point x="322" y="661" type="curve" smooth="yes"/>
      <point x="353" y="661"/>
      <point x="366" y="653"/>
      <point x="366" y="636" type="curve" smooth="yes"/>
      <point x="366" y="623"/>
      <point x="358" y="610"/>
      <point x="346" y="604" type="curve" smooth="yes"/>
      <point x="333" y="598"/>
      <point x="333" y="598"/>
      <point x="290" y="592" type="curve" smooth="yes"/>
      <point x="256" y="586" type="line" smooth="yes"/>
      <point x="182" y="575"/>
      <point x="134" y="526"/>
      <point x="134" y="463" type="curve" smooth="yes"/>
      <point x="134" y="415"/>
      <point x="166" y="385"/>
      <point x="217" y="385" type="curve" smooth="yes"/>
      <point x="257" y="385"/>
      <point x="288" y="399"/>
      <point x="324" y="431" type="curve"/>
      <point x="322" y="421"/>
      <point x="322" y="419"/>
      <point x="322" y="415" type="curve" smooth="yes"/>
      <point x="322" y="409"/>
      <point x="323" y="405"/>
      <point x="326" y="399" type="curve"/>
      <point x="418" y="399" type="line"/>
    </contour>
    <contour>
      <point x="344" y="529" type="line" smooth="yes"/>
      <point x="334" y="481"/>
      <point x="304" y="453"/>
      <point x="263" y="453" type="curve" smooth="yes"/>
      <point x="236" y="453"/>
      <point x="221" y="464"/>
      <point x="221" y="483" type="curve" smooth="yes"/>
      <point x="221" y="511"/>
      <point x="243" y="531"/>
      <point x="281" y="537" type="curve" smooth="yes"/>
      <point x="311" y="543" type="line"/>
      <point x="321" y="544" type="line"/>
      <point x="327" y="545"/>
      <point x="331" y="546"/>
      <point x="333" y="546" type="curve"/>
      <point x="340" y="548"/>
      <point x="342" y="549"/>
      <point x="349" y="552" type="curve"/>
    </contour>
  </outline>
</glyph>
<glyph name="guillemotleft" format="1">
  <advance width="556"/>
  <unicode hex="00AB"/>
  <outline>
    <contour>
      <point x="135" y="218" type="line"/>
      <point x="271" y="72" type="line"/>
      <point x="295" y="186" type="line"/>
      <point x="213" y="275" type="line"/>
      <point x="333" y="364" type="line"/>
      <point x="358" y="481" type="line"/>
      <point x="159" y="332" type="line"/>
    </contour>
    <contour>
      <point x="348" y="218" type="line"/>
      <point x="484" y="72" type="line"/>
      <point x="508" y="186" type="line"/>
      <point x="426" y="275" type="line"/>
      <point x="546" y="364" type="line"/>
      <point x="571" y="481" type="line"/>
      <point x="372" y="332" type="line"/>
    </contour>
  </outline>
</glyph>
<glyph name="logicalnot" format="1">
  <advance width="584"/>
  <unicode hex="00AC"/>
  <outline>
    <contour>
      <point x="128" y="376" type="line"/>
      <point x="103" y="256" type="line"/>
      <point x="488" y="256" type="line"/>
      <point x="452" y="86" type="line"/>
      <point x="571" y="86" type="line"/>
      <point x="632" y="376" type="line"/>
    </contour>
  </outline>
</glyph>
<glyph name="registered" format="1">
  <advance width="737"/>
  <unicode hex="00AE"/>
  <outline>
    <contour>
      <point x="356" y="313" type="line"/>
      <point x="447" y="313" type="line" smooth="yes"/>
      <point x="483" y="313"/>
      <point x="500" y="302"/>
      <point x="500" y="278" type="curve" smooth="yes"/>
      <point x="500" y="272"/>
      <point x="498" y="264"/>
      <point x="494" y="247" type="curve" smooth="yes"/>
      <point x="485" y="213"/>
      <point x="480" y="183"/>
      <point x="480" y="168" type="curve" smooth="yes"/>
      <point x="480" y="159"/>
      <point x="481" y="153"/>
      <point x="485" y="140" type="curve"/>
      <point x="587" y="140" type="line"/>
      <point x="592" y="161" type="line"/>
      <point x="583" y="167"/>
      <point x="580" y="173"/>
      <point x="580" y="182" type="curve"/>
      <point x="581" y="195" type="line"/>
      <point x="593" y="266"/>
      <point x="596" y="287"/>
      <point x="596" y="304" type="curve" smooth="yes"/>
      <point x="596" y="326"/>
      <point x="585" y="340"/>
      <point x="557" y="353" type="curve"/>
      <point x="621" y="382"/>
      <point x="654" y="429"/>
      <point x="654" y="493" type="curve" smooth="yes"/>
      <point x="654" y="552"/>
      <point x="621" y="582"/>
      <point x="555" y="582" type="curve" smooth="yes"/>
      <point x="317" y="582" type="line"/>
      <point x="223" y="140" type="line"/>
      <point x="319" y="140" type="line"/>
    </contour>
    <contour>
      <point x="373" y="394" type="line"/>
      <point x="396" y="502" type="line"/>
      <point x="498" y="502" type="line" smooth="yes"/>
      <point x="538" y="502"/>
      <point x="553" y="493"/>
      <point x="553" y="469" type="curve" smooth="yes"/>
      <point x="553" y="450"/>
      <point x="546" y="426"/>
      <point x="537" y="415" type="curve"/>
      <point x="526" y="400"/>
      <point x="508" y="394"/>
      <point x="475" y="394" type="curve" smooth="yes"/>
    </contour>
    <contour>
      <point x="530" y="743" type="curve" smooth="yes"/>
      <point x="284" y="743"/>
      <point x="55" y="520"/>
      <point x="55" y="281" type="curve" smooth="yes"/>
      <point x="55" y="106"/>
      <point x="185" y="-22"/>
      <point x="361" y="-22" type="curve" smooth="yes"/>
      <point x="608" y="-22"/>
      <point x="837" y="201"/>
      <point x="837" y="440" type="curve" smooth="yes"/>
      <point x="837" y="615"/>
      <point x="708" y="743"/>
    </contour>
    <contour>
      <point x="514" y="671" type="curve" smooth="yes"/>
      <point x="654" y="671"/>
      <point x="757" y="568"/>
      <point x="757" y="427" type="curve" smooth="yes"/>
      <point x="757" y="232"/>
      <point x="574" y="50"/>
      <point x="377" y="50" type="curve" smooth="yes"/>
      <point x="237" y="50"/>
      <point x="135" y="154"/>
      <point x="135" y="295" type="curve" smooth="yes"/>
      <point x="135" y="489"/>
      <point x="318" y="671"/>
    </contour>
  </outline>
</glyph>
<glyph name="macron" format="1">
  <advance width="333"/>
  <unicode hex="00AF"/>
  <outline>
    <contour>
      <point x="467" y="722" type="line"/>
      <point x="167" y="722" type="line"/>
      <point x="150" y="642" type="line"/>
      <point x="450" y="642" type="line"/>
    </contour>
  </outline>
</glyph>
<glyph name="degree" format="1">
  <advance width="606"/>
  <unicode hex="00B0"/>
  <outline>
    <contour>
      <point x="391" y="686" type="curve" smooth="yes"/>
      <point x="308" y="686"/>
      <point x="240" y="618"/>
      <point x="240" y="535" type="curve" smooth="yes"/>
      <point x="240" y="452"/>
      <point x="308" y="383"/>
      <point x="390" y="383" type="curve" smooth="yes"/>
      <point x="475" y="383"/>
      <point x="543" y="450"/>
      <point x="543" y="535" type="curve" smooth="yes"/>
      <point x="543" y="618"/>
      <point x="475" y="686"/>
    </contour>
    <contour>
      <point x="392" y="623" type="curve" smooth="yes"/>
      <point x="440" y="623"/>
      <point x="480" y="583"/>
      <point x="480" y="535" type="curve" smooth="yes"/>
      <point x="480" y="485"/>
      <point x="440" y="446"/>
      <point x="390" y="446" type="curve" smooth="yes"/>
      <point x="343" y="446"/>
      <point x="303" y="487"/>
      <point x="303" y="534" type="curve" smooth="yes"/>
      <point x="303" y="583"/>
      <point x="343" y="623"/>
    </contour>
  </outline>
</glyph>
<glyph name="plusminus" format="1">
  <advance width="584"/>
  <unicode hex="00B1"/>
  <outline>
    <contour>
      <point x="630" y="452" type="line"/>
      <point x="447" y="452" type="line"/>
      <point x="486" y="633" type="line"/>
      <point x="367" y="633" type="line"/>
      <point x="328" y="452" type="line"/>
      <point x="146" y="452" type="line"/>
      <point x="121" y="332" type="line"/>
      <point x="303" y="332" type="line"/>
      <point x="268" y="170" type="line"/>
      <point x="387" y="170" type="line"/>
      <point x="422" y="332" type="line"/>
      <point x="605" y="332" type="line"/>
    </contour>
    <contour>
      <point x="559" y="119" type="line"/>
      <point x="75" y="119" type="line"/>
      <point x="50" y="0" type="line"/>
      <point x="534" y="0" type="line"/>
    </contour>
  </outline>
</glyph>
<glyph name="acute" format="1">
  <advance width="333"/>
  <unicode hex="00B4"/>
  <outline>
    <contour>
      <point x="475" y="757" type="line"/>
      <point x="349" y="757" type="line"/>
      <point x="247" y="607" type="line"/>
      <point x="317" y="607" type="line"/>
    </contour>
  </outline>
</glyph>
<glyph name="paragraph" format="1">
  <advance width="556"/>
  <unicode hex="00B6"/>
  <outline>
    <contour>
      <point x="684" y="729" type="line"/>
      <point x="382" y="729" type="line" smooth="yes"/>
      <point x="317" y="729"/>
      <point x="260" y="703"/>
      <point x="210" y="649" type="curve" smooth="yes"/>
      <point x="153" y="588"/>
      <point x="121" y="512"/>
      <point x="121" y="435" type="curve" smooth="yes"/>
      <point x="121" y="337"/>
      <point x="184" y="272"/>
      <point x="284" y="267" type="curve"/>
      <point x="187" y="-191" type="line"/>
      <point x="285" y="-191" type="line"/>
      <point x="465" y="656" type="line"/>
      <point x="527" y="656" type="line"/>
      <point x="347" y="-191" type="line"/>
      <point x="445" y="-191" type="line"/>
      <point x="625" y="656" type="line"/>
      <point x="669" y="656" type="line"/>
    </contour>
  </outline>
</glyph>
<glyph name="periodcentered" format="1">
  <advance width="278"/>
  <unicode hex="00B7"/>
  <outline>
    <contour>
      <point x="270" y="282" type="line"/>
      <point x="165" y="282" type="line"/>
      <point x="143" y="182" type="line"/>
      <point x="248" y="182" type="line"/>
    </contour>
  </outline>
</glyph>
<glyph name="cedilla" format="1">
  <advance width="333"/>
  <unicode hex="00B8"/>
  <outline>
    <contour>
      <point x="154" y="0" type="line"/>
      <point x="86" y="-106" type="line"/>
      <point x="110" y="-96"/>
      <point x="122" y="-93"/>
      <point x="139" y="-93" type="curve" smooth="yes"/>
      <point x="165" y="-93"/>
      <point x="183" y="-106"/>
      <point x="183" y="-126" type="curve" smooth="yes"/>
      <point x="183" y="-150"/>
      <point x="153" y="-170"/>
      <point x="115" y="-170" type="curve" smooth="yes"/>
      <point x="87" y="-170"/>
      <point x="64" y="-163"/>
      <point x="17" y="-140" type="curve"/>
      <point x="-13" y="-191" type="line"/>
      <point x="43" y="-213"/>
      <point x="75" y="-220"/>
      <point x="120" y="-220" type="curve" smooth="yes"/>
      <point x="210" y="-220"/>
      <point x="270" y="-178"/>
      <point x="270" y="-113" type="curve" smooth="yes"/>
      <point x="270" y="-77"/>
      <point x="246" y="-56"/>
      <point x="206" y="-56" type="curve" smooth="yes"/>
      <point x="191" y="-56"/>
      <point x="179" y="-58"/>
      <point x="163" y="-62" type="curve"/>
      <point x="204" y="0" type="line"/>
    </contour>
  </outline>
</glyph>
<glyph name="ordmasculine" format="1">
  <advance width="365"/>
  <unicode hex="00BA"/>
  <outline>
    <contour>
      <point x="410" y="342" type="line"/>
      <point x="109" y="342" type="line"/>
      <point x="92" y="262" type="line"/>
      <point x="393" y="262" type="line"/>
    </contour>
    <contour>
      <point x="339" y="729" type="curve" smooth="yes"/>
      <point x="278" y="729"/>
      <point x="223" y="702"/>
      <point x="188" y="655" type="curve" smooth="yes"/>
      <point x="159" y="617"/>
      <point x="140" y="558"/>
      <point x="140" y="506" type="curve" smooth="yes"/>
      <point x="140" y="432"/>
      <point x="190" y="386"/>
      <point x="269" y="386" type="curve" smooth="yes"/>
      <point x="333" y="386"/>
      <point x="386" y="411"/>
      <point x="423" y="460" type="curve" smooth="yes"/>
      <point x="452" y="497"/>
      <point x="471" y="558"/>
      <point x="471" y="610" type="curve" smooth="yes"/>
      <point x="471" y="684"/>
      <point x="421" y="729"/>
    </contour>
    <contour>
      <point x="326" y="661" type="curve" smooth="yes"/>
      <point x="361" y="661"/>
      <point x="384" y="633"/>
      <point x="384" y="590" type="curve" smooth="yes"/>
      <point x="384" y="514"/>
      <point x="339" y="449"/>
      <point x="285" y="449" type="curve" smooth="yes"/>
      <point x="250" y="449"/>
      <point x="227" y="477"/>
      <point x="227" y="520" type="curve" smooth="yes"/>
      <point x="227" y="597"/>
      <point x="272" y="661"/>
    </contour>
  </outline>
</glyph>
<glyph name="guillemotright" format="1">
  <advance width="556"/>
  <unicode hex="00BB"/>
  <outline>
    <contour>
      <point x="326" y="335" type="line"/>
      <point x="190" y="481" type="line"/>
      <point x="166" y="367" type="line"/>
      <point x="248" y="278" type="line"/>
      <point x="128" y="189" type="line"/>
      <point x="103" y="72" type="line"/>
      <point x="302" y="220" type="line"/>
    </contour>
    <contour>
      <point x="533" y="335" type="line"/>
      <point x="397" y="481" type="line"/>
      <point x="373" y="367" type="line"/>
      <point x="455" y="278" type="line"/>
      <point x="335" y="189" type="line"/>
      <point x="310" y="72" type="line"/>
      <point x="509" y="220" type="line"/>
    </contour>
  </outline>
</glyph>
<glyph name="onequarter" format="1">
  <advance width="1055"/>
  <unicode hex="00BC"/>
  <outline>
    <contour>
      <point x="316" y="573" type="line"/>
      <point x="254" y="284" type="line"/>
      <point x="348" y="284" type="line"/>
      <point x="438" y="709" type="line"/>
      <point x="375" y="709" type="line"/>
      <point x="351" y="659"/>
      <point x="301" y="634"/>
      <point x="223" y="634" type="curve"/>
      <point x="210" y="573" type="line"/>
    </contour>
    <contour>
      <point x="848" y="715" type="line"/>
      <point x="267" y="-20" type="line"/>
      <point x="352" y="-20" type="line"/>
      <point x="933" y="715" type="line"/>
    </contour>
    <contour>
      <point x="1023" y="166" type="line"/>
      <point x="977" y="166" type="line"/>
      <point x="1032" y="425" type="line"/>
      <point x="924" y="425" type="line"/>
      <point x="707" y="165" type="line"/>
      <point x="691" y="93" type="line"/>
      <point x="868" y="93" type="line"/>
      <point x="848" y="0" type="line"/>
      <point x="942" y="0" type="line"/>
      <point x="961" y="93" type="line"/>
      <point x="1007" y="93" type="line"/>
    </contour>
    <contour>
      <point x="884" y="166" type="line"/>
      <point x="779" y="166" type="line"/>
      <point x="919" y="332" type="line"/>
    </contour>
  </outline>
</glyph>
<glyph name="onehalf" format="1">
  <advance width="1055"/>
  <unicode hex="00BD"/>
  <outline>
    <contour>
      <point x="316" y="573" type="line"/>
      <point x="254" y="284" type="line"/>
      <point x="348" y="284" type="line"/>
      <point x="438" y="709" type="line"/>
      <point x="375" y="709" type="line"/>
      <point x="351" y="659"/>
      <point x="301" y="634"/>
      <point x="223" y="634" type="curve"/>
      <point x="210" y="573" type="line"/>
    </contour>
    <contour>
      <point x="838" y="715" type="line"/>
      <point x="257" y="-20" type="line"/>
      <point x="342" y="-20" type="line"/>
      <point x="923" y="715" type="line"/>
    </contour>
    <contour>
      <point x="998" y="80" type="line"/>
      <point x="814" y="80" type="line"/>
      <point x="828" y="98"/>
      <point x="847" y="112"/>
      <point x="915" y="153" type="curve" smooth="yes"/>
      <point x="967" y="184"/>
      <point x="990" y="202"/>
      <point x="1010" y="224" type="curve" smooth="yes"/>
      <point x="1036" y="255"/>
      <point x="1050" y="291"/>
      <point x="1050" y="329" type="curve" smooth="yes"/>
      <point x="1050" y="395"/>
      <point x="1001" y="434"/>
      <point x="917" y="434" type="curve" smooth="yes"/>
      <point x="818" y="434"/>
      <point x="755" y="377"/>
      <point x="739" y="273" type="curve"/>
      <point x="830" y="273" type="line"/>
      <point x="836" y="331"/>
      <point x="862" y="362"/>
      <point x="905" y="362" type="curve" smooth="yes"/>
      <point x="938" y="362"/>
      <point x="957" y="345"/>
      <point x="957" y="316" type="curve" smooth="yes"/>
      <point x="957" y="290"/>
      <point x="945" y="263"/>
      <point x="925" y="244" type="curve" smooth="yes"/>
      <point x="905" y="225"/>
      <point x="885" y="211"/>
      <point x="815" y="170" type="curve" smooth="yes"/>
      <point x="728" y="120"/>
      <point x="696" y="81"/>
      <point x="675" y="0" type="curve"/>
      <point x="981" y="0" type="line"/>
    </contour>
  </outline>
</glyph>
<glyph name="threequarters" format="1">
  <advance width="1055"/>
  <unicode hex="00BE"/>
  <outline>
    <contour>
      <point x="280" y="471" type="line"/>
      <point x="293" y="471" type="line" smooth="yes"/>
      <point x="347" y="470"/>
      <point x="369" y="456"/>
      <point x="369" y="422" type="curve" smooth="yes"/>
      <point x="369" y="382"/>
      <point x="336" y="349"/>
      <point x="296" y="349" type="curve" smooth="yes"/>
      <point x="259" y="349"/>
      <point x="240" y="365"/>
      <point x="240" y="396" type="curve" smooth="yes"/>
      <point x="240" y="402"/>
      <point x="240" y="406"/>
      <point x="242" y="414" type="curve"/>
      <point x="151" y="414" type="line"/>
      <point x="148" y="398"/>
      <point x="147" y="390"/>
      <point x="147" y="378" type="curve" smooth="yes"/>
      <point x="147" y="310"/>
      <point x="195" y="271"/>
      <point x="278" y="271" type="curve" smooth="yes"/>
      <point x="387" y="271"/>
      <point x="462" y="340"/>
      <point x="462" y="439" type="curve" smooth="yes"/>
      <point x="462" y="471"/>
      <point x="448" y="494"/>
      <point x="419" y="512" type="curve"/>
      <point x="466" y="541"/>
      <point x="490" y="579"/>
      <point x="490" y="625" type="curve" smooth="yes"/>
      <point x="490" y="684"/>
      <point x="443" y="718"/>
      <point x="362" y="718" type="curve" smooth="yes"/>
      <point x="263" y="718"/>
      <point x="210" y="673"/>
      <point x="190" y="571" type="curve"/>
      <point x="277" y="571" type="line"/>
      <point x="289" y="627"/>
      <point x="307" y="646"/>
      <point x="345" y="646" type="curve" smooth="yes"/>
      <point x="372" y="646"/>
      <point x="390" y="630"/>
      <point x="390" y="606" type="curve" smooth="yes"/>
      <point x="390" y="561"/>
      <point x="356" y="533"/>
      <point x="303" y="533" type="curve" smooth="yes"/>
      <point x="302" y="533"/>
      <point x="297" y="533"/>
      <point x="293" y="534" type="curve"/>
    </contour>
    <contour>
      <point x="868" y="715" type="line"/>
      <point x="287" y="-20" type="line"/>
      <point x="372" y="-20" type="line"/>
      <point x="953" y="715" type="line"/>
    </contour>
    <contour>
      <point x="1023" y="166" type="line"/>
      <point x="977" y="166" type="line"/>
      <point x="1032" y="425" type="line"/>
      <point x="924" y="425" type="line"/>
      <point x="707" y="165" type="line"/>
      <point x="691" y="93" type="line"/>
      <point x="868" y="93" type="line"/>
      <point x="848" y="0" type="line"/>
      <point x="942" y="0" type="line"/>
      <point x="961" y="93" type="line"/>
      <point x="1007" y="93" type="line"/>
    </contour>
    <contour>
      <point x="884" y="166" type="line"/>
      <point x="779" y="166" type="line"/>
      <point x="919" y="332" type="line"/>
    </contour>
  </outline>
</glyph>
<glyph name="questiondown" format="1">
  <advance width="611"/>
  <unicode hex="00BF"/>
  <outline>
    <contour>
      <point x="310" y="339" type="line"/>
      <point x="296" y="273"/>
      <point x="287" y="261"/>
      <point x="219" y="220" type="curve" smooth="yes"/>
      <point x="147" y="175"/>
      <point x="111" y="144"/>
      <point x="89" y="108" type="curve" smooth="yes"/>
      <point x="66" y="69"/>
      <point x="52" y="18"/>
      <point x="52" y="-26" type="curve" smooth="yes"/>
      <point x="52" y="-135"/>
      <point x="135" y="-204"/>
      <point x="268" y="-204" type="curve" smooth="yes"/>
      <point x="352" y="-204"/>
      <point x="423" y="-174"/>
      <point x="476" y="-117" type="curve" smooth="yes"/>
      <point x="515" y="-74"/>
      <point x="537" y="-25"/>
      <point x="556" y="59" type="curve"/>
      <point x="420" y="59" type="line"/>
      <point x="404" y="-28"/>
      <point x="354" y="-80"/>
      <point x="287" y="-80" type="curve" smooth="yes"/>
      <point x="233" y="-80"/>
      <point x="195" y="-44"/>
      <point x="195" y="7" type="curve" smooth="yes"/>
      <point x="195" y="27"/>
      <point x="201" y="48"/>
      <point x="211" y="67" type="curve" smooth="yes"/>
      <point x="226" y="93"/>
      <point x="236" y="102"/>
      <point x="292" y="141" type="curve" smooth="yes"/>
      <point x="386" y="207"/>
      <point x="425" y="262"/>
      <point x="432" y="339" type="curve"/>
    </contour>
    <contour>
      <point x="306" y="394" type="line"/>
      <point x="456" y="394" type="line"/>
      <point x="487" y="540" type="line"/>
      <point x="337" y="540" type="line"/>
    </contour>
  </outline>
</glyph>
<glyph name="Aacute" format="1">
  <advance width="722"/>
  <unicode hex="00C1"/>
  <outline>
    <contour>
      <point x="532" y="147" type="line"/>
      <point x="550" y="0" type="line"/>
      <point x="703" y="0" type="line"/>
      <point x="606" y="729" type="line"/>
      <point x="433" y="729" type="line"/>
      <point x="26" y="0" type="line"/>
      <point x="179" y="0" type="line"/>
      <point x="260" y="147" type="line"/>
    </contour>
    <contour>
      <point x="518" y="272" type="line"/>
      <point x="329" y="272" type="line"/>
      <point x="483" y="555" type="line"/>
    </contour>
    <contour>
      <point x="714" y="936" type="line"/>
      <point x="588" y="936" type="line"/>
      <point x="486" y="786" type="line"/>
      <point x="556" y="786" type="line"/>
    </contour>
  </outline>
</glyph>
<glyph name="Acircumflex" format="1">
  <advance width="722"/>
  <unicode hex="00C2"/>
  <outline>
    <contour>
      <point x="532" y="147" type="line"/>
      <point x="550" y="0" type="line"/>
      <point x="703" y="0" type="line"/>
      <point x="606" y="729" type="line"/>
      <point x="433" y="729" type="line"/>
      <point x="26" y="0" type="line"/>
      <point x="179" y="0" type="line"/>
      <point x="260" y="147" type="line"/>
    </contour>
    <contour>
      <point x="518" y="272" type="line"/>
      <point x="329" y="272" type="line"/>
      <point x="483" y="555" type="line"/>
    </contour>
    <contour>
      <point x="511" y="936" type="line"/>
      <point x="372" y="789" type="line"/>
      <point x="448" y="789" type="line"/>
      <point x="551" y="886" type="line"/>
      <point x="612" y="789" type="line"/>
      <point x="690" y="789" type="line"/>
      <point x="619" y="936" type="line"/>
    </contour>
  </outline>
</glyph>
<glyph name="Atilde" format="1">
  <advance width="722"/>
  <unicode hex="00C3"/>
  <outline>
    <contour>
      <point x="532" y="147" type="line"/>
      <point x="550" y="0" type="line"/>
      <point x="703" y="0" type="line"/>
      <point x="606" y="729" type="line"/>
      <point x="433" y="729" type="line"/>
      <point x="26" y="0" type="line"/>
      <point x="179" y="0" type="line"/>
      <point x="260" y="147" type="line"/>
    </contour>
    <contour>
      <point x="518" y="272" type="line"/>
      <point x="329" y="272" type="line"/>
      <point x="483" y="555" type="line"/>
    </contour>
    <contour>
      <point x="685" y="923" type="line"/>
      <point x="671" y="889"/>
      <point x="653" y="873"/>
      <point x="631" y="873" type="curve" smooth="yes"/>
      <point x="619" y="873"/>
      <point x="616" y="874"/>
      <point x="598" y="882" type="curve" smooth="yes"/>
      <point x="548" y="903" type="line" smooth="yes"/>
      <point x="512" y="919"/>
      <point x="503" y="921"/>
      <point x="477" y="921" type="curve" smooth="yes"/>
      <point x="422" y="921"/>
      <point x="380" y="879"/>
      <point x="356" y="803" type="curve"/>
      <point x="410" y="803" type="line"/>
      <point x="427" y="837"/>
      <point x="443" y="852"/>
      <point x="461" y="852" type="curve" smooth="yes"/>
      <point x="469" y="852"/>
      <point x="488" y="846"/>
      <point x="505" y="837" type="curve" smooth="yes"/>
      <point x="555" y="812" type="line" smooth="yes"/>
      <point x="568" y="806"/>
      <point x="589" y="801"/>
      <point x="606" y="801" type="curve" smooth="yes"/>
      <point x="638" y="801"/>
      <point x="673" y="816"/>
      <point x="698" y="842" type="curve" smooth="yes"/>
      <point x="717" y="862"/>
      <point x="728" y="883"/>
      <point x="739" y="923" type="curve"/>
    </contour>
  </outline>
</glyph>
<glyph name="Adieresis" format="1">
  <advance width="722"/>
  <unicode hex="00C4"/>
  <outline>
    <contour>
      <point x="532" y="147" type="line"/>
      <point x="550" y="0" type="line"/>
      <point x="703" y="0" type="line"/>
      <point x="606" y="729" type="line"/>
      <point x="433" y="729" type="line"/>
      <point x="26" y="0" type="line"/>
      <point x="179" y="0" type="line"/>
      <point x="260" y="147" type="line"/>
    </contour>
    <contour>
      <point x="518" y="272" type="line"/>
      <point x="329" y="272" type="line"/>
      <point x="483" y="555" type="line"/>
    </contour>
    <contour>
      <point x="522" y="920" type="line"/>
      <point x="412" y="920" type="line"/>
      <point x="386" y="800" type="line"/>
      <point x="496" y="800" type="line"/>
    </contour>
    <contour>
      <point x="708" y="920" type="line"/>
      <point x="598" y="920" type="line"/>
      <point x="572" y="800" type="line"/>
      <point x="682" y="800" type="line"/>
    </contour>
  </outline>
</glyph>
<glyph name="Aring" format="1">
  <advance width="722"/>
  <unicode hex="00C5"/>
  <outline>
    <contour>
      <point x="532" y="147" type="line"/>
      <point x="550" y="0" type="line"/>
      <point x="703" y="0" type="line"/>
      <point x="606" y="729" type="line"/>
      <point x="433" y="729" type="line"/>
      <point x="26" y="0" type="line"/>
      <point x="179" y="0" type="line"/>
      <point x="260" y="147" type="line"/>
    </contour>
    <contour>
      <point x="518" y="272" type="line"/>
      <point x="329" y="272" type="line"/>
      <point x="483" y="555" type="line"/>
    </contour>
    <contour>
      <point x="564" y="953" type="curve" smooth="yes"/>
      <point x="506" y="953"/>
      <point x="452" y="901"/>
      <point x="452" y="844" type="curve" smooth="yes"/>
      <point x="452" y="803"/>
      <point x="482" y="773"/>
      <point x="524" y="773" type="curve" smooth="yes"/>
      <point x="582" y="773"/>
      <point x="636" y="825"/>
      <point x="636" y="882" type="curve" smooth="yes"/>
      <point x="636" y="923"/>
      <point x="606" y="953"/>
    </contour>
    <contour>
      <point x="554" y="903" type="curve" smooth="yes"/>
      <point x="573" y="903"/>
      <point x="587" y="890"/>
      <point x="587" y="872" type="curve" smooth="yes"/>
      <point x="587" y="847"/>
      <point x="562" y="823"/>
      <point x="535" y="823" type="curve" smooth="yes"/>
      <point x="515" y="823"/>
      <point x="501" y="837"/>
      <point x="501" y="855" type="curve" smooth="yes"/>
      <point x="501" y="880"/>
      <point x="527" y="903"/>
    </contour>
  </outline>
</glyph>
<glyph name="AE" format="1">
  <advance width="1000"/>
  <unicode hex="00C6"/>
  <outline>
    <contour>
      <point x="464" y="152" type="line"/>
      <point x="432" y="0" type="line"/>
      <point x="968" y="0" type="line"/>
      <point x="995" y="125" type="line"/>
      <point x="609" y="125" type="line"/>
      <point x="649" y="314" type="line"/>
      <point x="988" y="314" type="line"/>
      <point x="1014" y="439" type="line"/>
      <point x="675" y="439" type="line"/>
      <point x="711" y="604" type="line"/>
      <point x="1078" y="604" type="line"/>
      <point x="1104" y="729" type="line"/>
      <point x="421" y="729" type="line"/>
      <point x="1" y="0" type="line"/>
      <point x="160" y="0" type="line"/>
      <point x="245" y="152" type="line"/>
    </contour>
    <contour>
      <point x="491" y="277" type="line"/>
      <point x="310" y="277" type="line"/>
      <point x="495" y="604" type="line"/>
      <point x="561" y="604" type="line"/>
    </contour>
  </outline>
</glyph>
<glyph name="Ccedilla" format="1">
  <advance width="722"/>
  <unicode hex="00C7"/>
  <outline>
    <contour>
      <point x="389" y="-23" type="line"/>
      <point x="565" y="-22"/>
      <point x="701" y="82"/>
      <point x="742" y="249" type="curve"/>
      <point x="599" y="249" type="line"/>
      <point x="570" y="157"/>
      <point x="499" y="105"/>
      <point x="403" y="105" type="curve" smooth="yes"/>
      <point x="306" y="105"/>
      <point x="256" y="159"/>
      <point x="256" y="265" type="curve" smooth="yes"/>
      <point x="256" y="347"/>
      <point x="282" y="434"/>
      <point x="327" y="504" type="curve" smooth="yes"/>
      <point x="374" y="578"/>
      <point x="436" y="613"/>
      <point x="516" y="613" type="curve" smooth="yes"/>
      <point x="569" y="613"/>
      <point x="610" y="594"/>
      <point x="631" y="560" type="curve" smooth="yes"/>
      <point x="644" y="540"/>
      <point x="648" y="521"/>
      <point x="648" y="482" type="curve"/>
      <point x="789" y="482" type="line"/>
      <point x="792" y="508"/>
      <point x="793" y="520"/>
      <point x="793" y="531" type="curve" smooth="yes"/>
      <point x="793" y="656"/>
      <point x="688" y="741"/>
      <point x="533" y="741" type="curve" smooth="yes"/>
      <point x="410" y="741"/>
      <point x="303" y="688"/>
      <point x="222" y="586" type="curve" smooth="yes"/>
      <point x="151" y="499"/>
      <point x="107" y="363"/>
      <point x="107" y="235" type="curve" smooth="yes"/>
      <point x="107" y="90"/>
      <point x="199" y="-11"/>
      <point x="340" y="-22" type="curve"/>
      <point x="285" y="-106" type="line"/>
      <point x="310" y="-96"/>
      <point x="322" y="-93"/>
      <point x="339" y="-93" type="curve" smooth="yes"/>
      <point x="365" y="-93"/>
      <point x="383" y="-106"/>
      <point x="383" y="-126" type="curve" smooth="yes"/>
      <point x="383" y="-150"/>
      <point x="353" y="-170"/>
      <point x="315" y="-170" type="curve" smooth="yes"/>
      <point x="287" y="-170"/>
      <point x="264" y="-163"/>
      <point x="216" y="-140" type="curve"/>
      <point x="186" y="-191" type="line"/>
      <point x="243" y="-213"/>
      <point x="275" y="-220"/>
      <point x="319" y="-220" type="curve" smooth="yes"/>
      <point x="410" y="-220"/>
      <point x="470" y="-178"/>
      <point x="470" y="-113" type="curve" smooth="yes"/>
      <point x="470" y="-77"/>
      <point x="446" y="-56"/>
      <point x="406" y="-56" type="curve" smooth="yes"/>
      <point x="391" y="-56"/>
      <point x="377" y="-58"/>
      <point x="363" y="-63" type="curve"/>
    </contour>
  </outline>
</glyph>
<glyph name="Egrave" format="1">
  <advance width="667"/>
  <unicode hex="00C8"/>
  <outline>
    <contour>
      <point x="296" y="314" type="line"/>
      <point x="645" y="314" type="line"/>
      <point x="671" y="439" type="line"/>
      <point x="322" y="439" type="line"/>
      <point x="357" y="604" type="line"/>
      <point x="735" y="604" type="line"/>
      <point x="762" y="729" type="line"/>
      <point x="234" y="729" type="line"/>
      <point x="79" y="0" type="line"/>
      <point x="624" y="0" type="line"/>
      <point x="651" y="125" type="line"/>
      <point x="256" y="125" type="line"/>
    </contour>
    <contour>
      <point x="400" y="936" type="line"/>
      <point x="501" y="786" type="line"/>
      <point x="564" y="786" type="line"/>
      <point x="519" y="936" type="line"/>
    </contour>
  </outline>
</glyph>
<glyph name="Eacute" format="1">
  <advance width="667"/>
  <unicode hex="00C9"/>
  <outline>
    <contour>
      <point x="296" y="314" type="line"/>
      <point x="645" y="314" type="line"/>
      <point x="671" y="439" type="line"/>
      <point x="322" y="439" type="line"/>
      <point x="357" y="604" type="line"/>
      <point x="735" y="604" type="line"/>
      <point x="762" y="729" type="line"/>
      <point x="234" y="729" type="line"/>
      <point x="79" y="0" type="line"/>
      <point x="624" y="0" type="line"/>
      <point x="651" y="125" type="line"/>
      <point x="256" y="125" type="line"/>
    </contour>
    <contour>
      <point x="675" y="936" type="line"/>
      <point x="549" y="936" type="line"/>
      <point x="447" y="786" type="line"/>
      <point x="517" y="786" type="line"/>
    </contour>
  </outline>
</glyph>
<glyph name="Ecircumflex" format="1">
  <advance width="667"/>
  <unicode hex="00CA"/>
  <outline>
    <contour>
      <point x="296" y="314" type="line"/>
      <point x="645" y="314" type="line"/>
      <point x="671" y="439" type="line"/>
      <point x="322" y="439" type="line"/>
      <point x="357" y="604" type="line"/>
      <point x="735" y="604" type="line"/>
      <point x="762" y="729" type="line"/>
      <point x="234" y="729" type="line"/>
      <point x="79" y="0" type="line"/>
      <point x="624" y="0" type="line"/>
      <point x="651" y="125" type="line"/>
      <point x="256" y="125" type="line"/>
    </contour>
    <contour>
      <point x="494" y="936" type="line"/>
      <point x="355" y="789" type="line"/>
      <point x="431" y="789" type="line"/>
      <point x="534" y="886" type="line"/>
      <point x="595" y="789" type="line"/>
      <point x="673" y="789" type="line"/>
      <point x="602" y="936" type="line"/>
    </contour>
  </outline>
</glyph>
<glyph name="Edieresis" format="1">
  <advance width="667"/>
  <unicode hex="00CB"/>
  <outline>
    <contour>
      <point x="296" y="314" type="line"/>
      <point x="645" y="314" type="line"/>
      <point x="671" y="439" type="line"/>
      <point x="322" y="439" type="line"/>
      <point x="357" y="604" type="line"/>
      <point x="735" y="604" type="line"/>
      <point x="762" y="729" type="line"/>
      <point x="234" y="729" type="line"/>
      <point x="79" y="0" type="line"/>
      <point x="624" y="0" type="line"/>
      <point x="651" y="125" type="line"/>
      <point x="256" y="125" type="line"/>
    </contour>
    <contour>
      <point x="502" y="920" type="line"/>
      <point x="392" y="920" type="line"/>
      <point x="366" y="800" type="line"/>
      <point x="476" y="800" type="line"/>
    </contour>
    <contour>
      <point x="688" y="920" type="line"/>
      <point x="578" y="920" type="line"/>
      <point x="552" y="800" type="line"/>
      <point x="662" y="800" type="line"/>
    </contour>
  </outline>
</glyph>
<glyph name="Igrave" format="1">
  <advance width="278"/>
  <unicode hex="00CC"/>
  <outline>
    <contour>
      <point x="368" y="729" type="line"/>
      <point x="218" y="729" type="line"/>
      <point x="63" y="0" type="line"/>
      <point x="213" y="0" type="line"/>
    </contour>
    <contour>
      <point x="181" y="936" type="line"/>
      <point x="282" y="786" type="line"/>
      <point x="345" y="786" type="line"/>
      <point x="300" y="936" type="line"/>
    </contour>
  </outline>
</glyph>
<glyph name="Iacute" format="1">
  <advance width="278"/>
  <unicode hex="00CD"/>
  <outline>
    <contour>
      <point x="368" y="729" type="line"/>
      <point x="218" y="729" type="line"/>
      <point x="63" y="0" type="line"/>
      <point x="213" y="0" type="line"/>
    </contour>
    <contour>
      <point x="489" y="936" type="line"/>
      <point x="363" y="936" type="line"/>
      <point x="261" y="786" type="line"/>
      <point x="331" y="786" type="line"/>
    </contour>
  </outline>
</glyph>
<glyph name="Icircumflex" format="1">
  <advance width="278"/>
  <unicode hex="00CE"/>
  <outline>
    <contour>
      <point x="368" y="729" type="line"/>
      <point x="218" y="729" type="line"/>
      <point x="63" y="0" type="line"/>
      <point x="213" y="0" type="line"/>
    </contour>
    <contour>
      <point x="288" y="936" type="line"/>
      <point x="149" y="789" type="line"/>
      <point x="225" y="789" type="line"/>
      <point x="328" y="886" type="line"/>
      <point x="389" y="789" type="line"/>
      <point x="467" y="789" type="line"/>
      <point x="396" y="936" type="line"/>
    </contour>
  </outline>
</glyph>
<glyph name="Idieresis" format="1">
  <advance width="278"/>
  <unicode hex="00CF"/>
  <outline>
    <contour>
      <point x="368" y="729" type="line"/>
      <point x="218" y="729" type="line"/>
      <point x="63" y="0" type="line"/>
      <point x="213" y="0" type="line"/>
    </contour>
    <contour>
      <point x="297" y="920" type="line"/>
      <point x="187" y="920" type="line"/>
      <point x="161" y="800" type="line"/>
      <point x="271" y="800" type="line"/>
    </contour>
    <contour>
      <point x="483" y="920" type="line"/>
      <point x="373" y="920" type="line"/>
      <point x="347" y="800" type="line"/>
      <point x="457" y="800" type="line"/>
    </contour>
  </outline>
</glyph>
<glyph name="Eth" format="1">
  <advance width="722"/>
  <unicode hex="00D0"/>
  <outline>
    <contour>
      <point x="150" y="341" type="line"/>
      <point x="77" y="0" type="line"/>
      <point x="362" y="0" type="line" smooth="yes"/>
      <point x="507" y="0"/>
      <point x="591" y="39"/>
      <point x="664" y="140" type="curve" smooth="yes"/>
      <point x="735" y="238"/>
      <point x="776" y="361"/>
      <point x="776" y="479" type="curve" smooth="yes"/>
      <point x="776" y="654"/>
      <point x="698" y="729"/>
      <point x="517" y="729" type="curve" smooth="yes"/>
      <point x="232" y="729" type="line"/>
      <point x="166" y="421" type="line"/>
      <point x="90" y="421" type="line"/>
      <point x="73" y="341" type="line"/>
    </contour>
    <contour>
      <point x="300" y="341" type="line"/>
      <point x="473" y="341" type="line"/>
      <point x="490" y="421" type="line"/>
      <point x="316" y="421" type="line"/>
      <point x="355" y="604" type="line"/>
      <point x="490" y="604" type="line" smooth="yes"/>
      <point x="582" y="604"/>
      <point x="627" y="560"/>
      <point x="627" y="469" type="curve" smooth="yes"/>
      <point x="627" y="390"/>
      <point x="601" y="287"/>
      <point x="567" y="228" type="curve" smooth="yes"/>
      <point x="524" y="153"/>
      <point x="475" y="125"/>
      <point x="388" y="125" type="curve" smooth="yes"/>
      <point x="254" y="125" type="line"/>
    </contour>
  </outline>
</glyph>
<glyph name="Ntilde" format="1">
  <advance width="722"/>
  <unicode hex="00D1"/>
  <outline>
    <contour>
      <point x="816" y="729" type="line"/>
      <point x="674" y="729" type="line"/>
      <point x="565" y="214" type="line"/>
      <point x="373" y="729" type="line"/>
      <point x="223" y="729" type="line"/>
      <point x="68" y="0" type="line"/>
      <point x="210" y="0" type="line"/>
      <point x="321" y="523" type="line"/>
      <point x="513" y="0" type="line"/>
      <point x="661" y="0" type="line"/>
    </contour>
    <contour>
      <point x="683" y="923" type="line"/>
      <point x="669" y="889"/>
      <point x="651" y="873"/>
      <point x="629" y="873" type="curve" smooth="yes"/>
      <point x="617" y="873"/>
      <point x="614" y="874"/>
      <point x="596" y="882" type="curve" smooth="yes"/>
      <point x="546" y="903" type="line" smooth="yes"/>
      <point x="510" y="919"/>
      <point x="501" y="921"/>
      <point x="475" y="921" type="curve" smooth="yes"/>
      <point x="420" y="921"/>
      <point x="378" y="879"/>
      <point x="354" y="803" type="curve"/>
      <point x="408" y="803" type="line"/>
      <point x="425" y="837"/>
      <point x="441" y="852"/>
      <point x="459" y="852" type="curve" smooth="yes"/>
      <point x="467" y="852"/>
      <point x="486" y="846"/>
      <point x="503" y="837" type="curve" smooth="yes"/>
      <point x="553" y="812" type="line" smooth="yes"/>
      <point x="566" y="806"/>
      <point x="587" y="801"/>
      <point x="604" y="801" type="curve" smooth="yes"/>
      <point x="636" y="801"/>
      <point x="671" y="816"/>
      <point x="696" y="842" type="curve" smooth="yes"/>
      <point x="715" y="862"/>
      <point x="726" y="883"/>
      <point x="737" y="923" type="curve"/>
    </contour>
  </outline>
</glyph>
<glyph name="Otilde" format="1">
  <advance width="778"/>
  <unicode hex="00D5"/>
  <outline>
    <contour>
      <point x="538" y="741" type="curve" smooth="yes"/>
      <point x="414" y="741"/>
      <point x="313" y="693"/>
      <point x="231" y="594" type="curve" smooth="yes"/>
      <point x="153" y="502"/>
      <point x="106" y="376"/>
      <point x="106" y="261" type="curve" smooth="yes"/>
      <point x="106" y="86"/>
      <point x="217" y="-23"/>
      <point x="395" y="-23" type="curve" smooth="yes"/>
      <point x="523" y="-23"/>
      <point x="619" y="22"/>
      <point x="705" y="124" type="curve" smooth="yes"/>
      <point x="783" y="215"/>
      <point x="828" y="337"/>
      <point x="828" y="455" type="curve" smooth="yes"/>
      <point x="828" y="635"/>
      <point x="721" y="741"/>
    </contour>
    <contour>
      <point x="519" y="613" type="curve" smooth="yes"/>
      <point x="619" y="613"/>
      <point x="679" y="547"/>
      <point x="679" y="437" type="curve" smooth="yes"/>
      <point x="679" y="358"/>
      <point x="652" y="270"/>
      <point x="609" y="210" type="curve" smooth="yes"/>
      <point x="559" y="140"/>
      <point x="496" y="105"/>
      <point x="419" y="105" type="curve" smooth="yes"/>
      <point x="318" y="105"/>
      <point x="255" y="173"/>
      <point x="255" y="282" type="curve" smooth="yes"/>
      <point x="255" y="360"/>
      <point x="283" y="448"/>
      <point x="327" y="509" type="curve" smooth="yes"/>
      <point x="377" y="577"/>
      <point x="443" y="613"/>
    </contour>
    <contour>
      <point x="715" y="923" type="line"/>
      <point x="701" y="889"/>
      <point x="683" y="873"/>
      <point x="661" y="873" type="curve" smooth="yes"/>
      <point x="649" y="873"/>
      <point x="646" y="874"/>
      <point x="628" y="882" type="curve" smooth="yes"/>
      <point x="578" y="903" type="line" smooth="yes"/>
      <point x="542" y="919"/>
      <point x="533" y="921"/>
      <point x="507" y="921" type="curve" smooth="yes"/>
      <point x="452" y="921"/>
      <point x="410" y="879"/>
      <point x="386" y="803" type="curve"/>
      <point x="440" y="803" type="line"/>
      <point x="457" y="837"/>
      <point x="473" y="852"/>
      <point x="491" y="852" type="curve" smooth="yes"/>
      <point x="499" y="852"/>
      <point x="518" y="846"/>
      <point x="535" y="837" type="curve" smooth="yes"/>
      <point x="585" y="812" type="line" smooth="yes"/>
      <point x="598" y="806"/>
      <point x="619" y="801"/>
      <point x="636" y="801" type="curve" smooth="yes"/>
      <point x="668" y="801"/>
      <point x="703" y="816"/>
      <point x="728" y="842" type="curve" smooth="yes"/>
      <point x="747" y="862"/>
      <point x="758" y="883"/>
      <point x="769" y="923" type="curve"/>
    </contour>
  </outline>
</glyph>
<glyph name="multiply" format="1">
  <advance width="584"/>
  <unicode hex="00D7"/>
  <outline>
    <contour>
      <point x="516" y="444" type="line"/>
      <point x="359" y="315" type="line"/>
      <point x="258" y="444" type="line"/>
      <point x="156" y="359" type="line"/>
      <point x="257" y="231" type="line"/>
      <point x="102" y="103" type="line"/>
      <point x="168" y="19" type="line"/>
      <point x="323" y="147" type="line"/>
      <point x="424" y="18" type="line"/>
      <point x="526" y="102" type="line"/>
      <point x="425" y="231" type="line"/>
      <point x="582" y="360" type="line"/>
    </contour>
  </outline>
</glyph>
<glyph name="Oslash" format="1">
  <advance width="778"/>
  <unicode hex="00D8"/>
  <outline>
    <contour>
      <point x="181" y="56" type="line"/>
      <point x="228" y="4"/>
      <point x="302" y="-23"/>
      <point x="395" y="-23" type="curve" smooth="yes"/>
      <point x="519" y="-23"/>
      <point x="625" y="27"/>
      <point x="707" y="123" type="curve" smooth="yes"/>
      <point x="785" y="215"/>
      <point x="832" y="339"/>
      <point x="832" y="452" type="curve" smooth="yes"/>
      <point x="832" y="510"/>
      <point x="821" y="560"/>
      <point x="798" y="607" type="curve"/>
      <point x="906" y="704" type="line"/>
      <point x="864" y="749" type="line"/>
      <point x="763" y="659" type="line"/>
      <point x="713" y="714"/>
      <point x="641" y="741"/>
      <point x="547" y="741" type="curve" smooth="yes"/>
      <point x="422" y="741"/>
      <point x="317" y="692"/>
      <point x="234" y="595" type="curve" smooth="yes"/>
      <point x="157" y="503"/>
      <point x="109" y="377"/>
      <point x="109" y="263" type="curve" smooth="yes"/>
      <point x="109" y="204"/>
      <point x="122" y="150"/>
      <point x="145" y="106" type="curve"/>
      <point x="34" y="7" type="line"/>
      <point x="75" y="-39" type="line"/>
    </contour>
    <contour>
      <point x="678" y="500" type="line"/>
      <point x="682" y="478"/>
      <point x="683" y="460"/>
      <point x="683" y="439" type="curve" smooth="yes"/>
      <point x="683" y="358"/>
      <point x="656" y="271"/>
      <point x="611" y="210" type="curve" smooth="yes"/>
      <point x="561" y="140"/>
      <point x="497" y="105"/>
      <point x="421" y="105" type="curve" smooth="yes"/>
      <point x="367" y="105"/>
      <point x="323" y="123"/>
      <point x="294" y="157" type="curve"/>
    </contour>
    <contour>
      <point x="264" y="213" type="line"/>
      <point x="260" y="235"/>
      <point x="258" y="258"/>
      <point x="258" y="281" type="curve" smooth="yes"/>
      <point x="258" y="359"/>
      <point x="286" y="448"/>
      <point x="330" y="509" type="curve" smooth="yes"/>
      <point x="379" y="577"/>
      <point x="445" y="613"/>
      <point x="521" y="613" type="curve" smooth="yes"/>
      <point x="577" y="613"/>
      <point x="620" y="594"/>
      <point x="650" y="557" type="curve"/>
    </contour>
  </outline>
</glyph>
<glyph name="Ucircumflex" format="1">
  <advance width="722"/>
  <unicode hex="00DB"/>
  <outline>
    <contour>
      <point x="659" y="729" type="line"/>
      <point x="554" y="235" type="line" smooth="yes"/>
      <point x="535" y="145"/>
      <point x="485" y="105"/>
      <point x="394" y="105" type="curve" smooth="yes"/>
      <point x="316" y="105"/>
      <point x="271" y="137"/>
      <point x="271" y="190" type="curve" smooth="yes"/>
      <point x="271" y="205"/>
      <point x="273" y="219"/>
      <point x="276" y="235" type="curve" smooth="yes"/>
      <point x="381" y="729" type="line"/>
      <point x="231" y="729" type="line"/>
      <point x="130" y="255" type="line" smooth="yes"/>
      <point x="123" y="222"/>
      <point x="119" y="189"/>
      <point x="119" y="167" type="curve" smooth="yes"/>
      <point x="119" y="51"/>
      <point x="215" y="-23"/>
      <point x="366" y="-23" type="curve" smooth="yes"/>
      <point x="454" y="-23"/>
      <point x="536" y="3"/>
      <point x="597" y="51" type="curve" smooth="yes"/>
      <point x="654" y="96"/>
      <point x="686" y="152"/>
      <point x="704" y="235" type="curve" smooth="yes"/>
      <point x="809" y="729" type="line"/>
    </contour>
    <contour>
      <point x="516" y="936" type="line"/>
      <point x="377" y="789" type="line"/>
      <point x="453" y="789" type="line"/>
      <point x="556" y="886" type="line"/>
      <point x="617" y="789" type="line"/>
      <point x="695" y="789" type="line"/>
      <point x="624" y="936" type="line"/>
    </contour>
  </outline>
</glyph>
<glyph name="Yacute" format="1">
  <advance width="667"/>
  <unicode hex="00DD"/>
  <outline>
    <contour>
      <point x="477" y="270" type="line"/>
      <point x="805" y="729" type="line"/>
      <point x="638" y="729" type="line"/>
      <point x="431" y="414" type="line"/>
      <point x="349" y="729" type="line"/>
      <point x="182" y="729" type="line"/>
      <point x="327" y="270" type="line"/>
      <point x="269" y="0" type="line"/>
      <point x="419" y="0" type="line"/>
    </contour>
    <contour>
      <point x="668" y="936" type="line"/>
      <point x="542" y="936" type="line"/>
      <point x="440" y="786" type="line"/>
      <point x="510" y="786" type="line"/>
    </contour>
  </outline>
</glyph>
<glyph name="Thorn" format="1">
  <advance width="667"/>
  <unicode hex="00DE"/>
  <outline>
    <contour>
      <point x="256" y="140" type="line"/>
      <point x="443" y="140" type="line" smooth="yes"/>
      <point x="522" y="140"/>
      <point x="579" y="164"/>
      <point x="633" y="221" type="curve" smooth="yes"/>
      <point x="687" y="278"/>
      <point x="721" y="363"/>
      <point x="721" y="440" type="curve" smooth="yes"/>
      <point x="721" y="492"/>
      <point x="698" y="539"/>
      <point x="657" y="570" type="curve" smooth="yes"/>
      <point x="621" y="598"/>
      <point x="580" y="609"/>
      <point x="514" y="609" type="curve" smooth="yes"/>
      <point x="355" y="609" type="line"/>
      <point x="381" y="729" type="line"/>
      <point x="231" y="729" type="line"/>
      <point x="76" y="0" type="line"/>
      <point x="226" y="0" type="line"/>
    </contour>
    <contour>
      <point x="282" y="265" type="line"/>
      <point x="329" y="484" type="line"/>
      <point x="482" y="484" type="line" smooth="yes"/>
      <point x="536" y="484"/>
      <point x="572" y="452"/>
      <point x="572" y="405" type="curve" smooth="yes"/>
      <point x="572" y="376"/>
      <point x="561" y="337"/>
      <point x="547" y="316" type="curve" smooth="yes"/>
      <point x="522" y="281"/>
      <point x="488" y="265"/>
      <point x="435" y="265" type="curve" smooth="yes"/>
    </contour>
  </outline>
</glyph>
<glyph name="germandbls" format="1">
  <advance width="611"/>
  <unicode hex="00DF"/>
  <outline>
    <contour>
      <point x="359" y="349" type="line"/>
      <point x="374" y="349" type="line" smooth="yes"/>
      <point x="449" y="349"/>
      <point x="487" y="316"/>
      <point x="487" y="251" type="curve" smooth="yes"/>
      <point x="487" y="207"/>
      <point x="467" y="163"/>
      <point x="433" y="133" type="curve" smooth="yes"/>
      <point x="402" y="106"/>
      <point x="374" y="97"/>
      <point x="319" y="96" type="curve" smooth="yes"/>
      <point x="305" y="96" type="line"/>
      <point x="281" y="-16" type="line"/>
      <point x="313" y="-21"/>
      <point x="329" y="-23"/>
      <point x="349" y="-23" type="curve" smooth="yes"/>
      <point x="439" y="-23"/>
      <point x="519" y="22"/>
      <point x="574" y="103" type="curve" smooth="yes"/>
      <point x="607" y="153"/>
      <point x="630" y="223"/>
      <point x="630" y="277" type="curve" smooth="yes"/>
      <point x="630" y="348"/>
      <point x="594" y="397"/>
      <point x="532" y="411" type="curve"/>
      <point x="606" y="437"/>
      <point x="654" y="504"/>
      <point x="654" y="582" type="curve" smooth="yes"/>
      <point x="654" y="670"/>
      <point x="574" y="729"/>
      <point x="452" y="729" type="curve" smooth="yes"/>
      <point x="312" y="729"/>
      <point x="208" y="662"/>
      <point x="186" y="558" type="curve" smooth="yes"/>
      <point x="67" y="0" type="line"/>
      <point x="207" y="0" type="line"/>
      <point x="321" y="537" type="line" smooth="yes"/>
      <point x="332" y="590"/>
      <point x="367" y="617"/>
      <point x="422" y="617" type="curve" smooth="yes"/>
      <point x="477" y="617"/>
      <point x="511" y="593"/>
      <point x="511" y="552" type="curve" smooth="yes"/>
      <point x="511" y="522"/>
      <point x="495" y="490"/>
      <point x="471" y="471" type="curve" smooth="yes"/>
      <point x="449" y="453"/>
      <point x="420" y="444"/>
      <point x="379" y="444" type="curve"/>
    </contour>
  </outline>
</glyph>
<glyph name="adieresis" format="1">
  <advance width="556"/>
  <unicode hex="00E4"/>
  <outline>
    <contour>
      <point x="527" y="17" type="line"/>
      <point x="512" y="34"/>
      <point x="506" y="47"/>
      <point x="506" y="62" type="curve" smooth="yes"/>
      <point x="506" y="68"/>
      <point x="507" y="75"/>
      <point x="509" y="83" type="curve" smooth="yes"/>
      <point x="572" y="383" type="line" smooth="yes"/>
      <point x="576" y="401"/>
      <point x="578" y="416"/>
      <point x="578" y="428" type="curve" smooth="yes"/>
      <point x="578" y="457"/>
      <point x="560" y="492"/>
      <point x="537" y="511" type="curve" smooth="yes"/>
      <point x="505" y="537"/>
      <point x="456" y="549"/>
      <point x="386" y="549" type="curve" smooth="yes"/>
      <point x="229" y="549"/>
      <point x="148" y="492"/>
      <point x="120" y="362" type="curve"/>
      <point x="251" y="362" type="line"/>
      <point x="268" y="417"/>
      <point x="299" y="437"/>
      <point x="363" y="437" type="curve" smooth="yes"/>
      <point x="414" y="437"/>
      <point x="436" y="424"/>
      <point x="436" y="394" type="curve" smooth="yes"/>
      <point x="436" y="373"/>
      <point x="422" y="351"/>
      <point x="402" y="341" type="curve" smooth="yes"/>
      <point x="382" y="330"/>
      <point x="382" y="330"/>
      <point x="310" y="320" type="curve" smooth="yes"/>
      <point x="252" y="311" type="line" smooth="yes"/>
      <point x="204" y="303"/>
      <point x="167" y="289"/>
      <point x="136" y="267" type="curve" smooth="yes"/>
      <point x="83" y="229"/>
      <point x="50" y="168"/>
      <point x="50" y="108" type="curve" smooth="yes"/>
      <point x="50" y="70"/>
      <point x="68" y="32"/>
      <point x="97" y="8" type="curve" smooth="yes"/>
      <point x="122" y="-13"/>
      <point x="156" y="-23"/>
      <point x="199" y="-23" type="curve" smooth="yes"/>
      <point x="257" y="-23"/>
      <point x="306" y="0"/>
      <point x="366" y="54" type="curve"/>
      <point x="363" y="39"/>
      <point x="363" y="34"/>
      <point x="363" y="27" type="curve" smooth="yes"/>
      <point x="363" y="17"/>
      <point x="365" y="11"/>
      <point x="370" y="0" type="curve"/>
      <point x="523" y="0" type="line"/>
    </contour>
    <contour>
      <point x="400" y="217" type="line" smooth="yes"/>
      <point x="382" y="135"/>
      <point x="334" y="89"/>
      <point x="266" y="89" type="curve" smooth="yes"/>
      <point x="218" y="89"/>
      <point x="193" y="106"/>
      <point x="193" y="139" type="curve" smooth="yes"/>
      <point x="193" y="186"/>
      <point x="230" y="219"/>
      <point x="295" y="230" type="curve" smooth="yes"/>
      <point x="345" y="238" type="line"/>
      <point x="361" y="241" type="line" smooth="yes"/>
      <point x="371" y="243"/>
      <point x="378" y="244"/>
      <point x="382" y="245" type="curve"/>
      <point x="393" y="247"/>
      <point x="396" y="248"/>
      <point x="408" y="255" type="curve"/>
    </contour>
    <contour>
      <point x="395" y="741" type="line"/>
      <point x="285" y="741" type="line"/>
      <point x="259" y="621" type="line"/>
      <point x="369" y="621" type="line"/>
    </contour>
    <contour>
      <point x="581" y="741" type="line"/>
      <point x="471" y="741" type="line"/>
      <point x="445" y="621" type="line"/>
      <point x="555" y="621" type="line"/>
    </contour>
  </outline>
</glyph>
<glyph name="ae" format="1">
  <advance width="889"/>
  <unicode hex="00E6"/>
  <outline>
    <contour>
      <point x="750" y="152" type="line"/>
      <point x="730" y="114"/>
      <point x="685" y="89"/>
      <point x="636" y="89" type="curve" smooth="yes"/>
      <point x="579" y="89"/>
      <point x="540" y="124"/>
      <point x="540" y="175" type="curve" smooth="yes"/>
      <point x="540" y="189"/>
      <point x="541" y="200"/>
      <point x="547" y="226" type="curve"/>
      <point x="909" y="226" type="line"/>
      <point x="921" y="271"/>
      <point x="927" y="313"/>
      <point x="927" y="351" type="curve" smooth="yes"/>
      <point x="927" y="397"/>
      <point x="910" y="445"/>
      <point x="881" y="480" type="curve" smooth="yes"/>
      <point x="845" y="525"/>
      <point x="789" y="549"/>
      <point x="718" y="549" type="curve" smooth="yes"/>
      <point x="659" y="549"/>
      <point x="599" y="531"/>
      <point x="553" y="500" type="curve"/>
      <point x="521" y="533"/>
      <point x="469" y="549"/>
      <point x="392" y="549" type="curve" smooth="yes"/>
      <point x="302" y="549"/>
      <point x="232" y="528"/>
      <point x="187" y="488" type="curve" smooth="yes"/>
      <point x="154" y="459"/>
      <point x="137" y="425"/>
      <point x="124" y="362" type="curve"/>
      <point x="255" y="362" type="line"/>
      <point x="272" y="417"/>
      <point x="303" y="437"/>
      <point x="367" y="437" type="curve" smooth="yes"/>
      <point x="418" y="437"/>
      <point x="440" y="424"/>
      <point x="440" y="394" type="curve" smooth="yes"/>
      <point x="440" y="373"/>
      <point x="426" y="351"/>
      <point x="406" y="341" type="curve" smooth="yes"/>
      <point x="385" y="330"/>
      <point x="385" y="330"/>
      <point x="313" y="320" type="curve" smooth="yes"/>
      <point x="256" y="311" type="line" smooth="yes"/>
      <point x="208" y="303"/>
      <point x="171" y="289"/>
      <point x="139" y="266" type="curve" smooth="yes"/>
      <point x="86" y="228"/>
      <point x="54" y="168"/>
      <point x="54" y="106" type="curve" smooth="yes"/>
      <point x="54" y="25"/>
      <point x="112" y="-23"/>
      <point x="209" y="-23" type="curve" smooth="yes"/>
      <point x="301" y="-23"/>
      <point x="355" y="2"/>
      <point x="425" y="77" type="curve"/>
      <point x="453" y="13"/>
      <point x="518" y="-23"/>
      <point x="606" y="-23" type="curve" smooth="yes"/>
      <point x="726" y="-23"/>
      <point x="835" y="45"/>
      <point x="888" y="152" type="curve"/>
    </contour>
    <contour>
      <point x="404" y="216" type="line" smooth="yes"/>
      <point x="386" y="134"/>
      <point x="338" y="89"/>
      <point x="268" y="89" type="curve" smooth="yes"/>
      <point x="222" y="89"/>
      <point x="197" y="106"/>
      <point x="197" y="139" type="curve" smooth="yes"/>
      <point x="197" y="186"/>
      <point x="234" y="219"/>
      <point x="299" y="230" type="curve" smooth="yes"/>
      <point x="349" y="238" type="line"/>
      <point x="365" y="241" type="line"/>
      <point x="375" y="242"/>
      <point x="382" y="244"/>
      <point x="386" y="244" type="curve"/>
      <point x="397" y="247"/>
      <point x="400" y="248"/>
      <point x="412" y="254" type="curve"/>
    </contour>
    <contour>
      <point x="784" y="319" type="line"/>
      <point x="568" y="319" type="line"/>
      <point x="589" y="396"/>
      <point x="635" y="437"/>
      <point x="699" y="437" type="curve" smooth="yes"/>
      <point x="753" y="437"/>
      <point x="784" y="404"/>
      <point x="784" y="346" type="curve" smooth="yes"/>
    </contour>
  </outline>
</glyph>
<glyph name="ccedilla" format="1">
  <advance width="556"/>
  <unicode hex="00E7"/>
  <outline>
    <contour>
      <point x="288" y="-23" type="line"/>
      <point x="289" y="-23" type="line"/>
      <point x="338" y="-27"/>
      <point x="411" y="-4"/>
      <point x="456" y="30" type="curve" smooth="yes"/>
      <point x="506" y="68"/>
      <point x="539" y="117"/>
      <point x="561" y="187" type="curve"/>
      <point x="427" y="187" type="line"/>
      <point x="396" y="116"/>
      <point x="363" y="89"/>
      <point x="309" y="89" type="curve" smooth="yes"/>
      <point x="249" y="89"/>
      <point x="220" y="123"/>
      <point x="220" y="192" type="curve" smooth="yes"/>
      <point x="220" y="245"/>
      <point x="233" y="304"/>
      <point x="257" y="352" type="curve" smooth="yes"/>
      <point x="285" y="411"/>
      <point x="322" y="437"/>
      <point x="377" y="437" type="curve" smooth="yes"/>
      <point x="410" y="437"/>
      <point x="435" y="425"/>
      <point x="448" y="404" type="curve"/>
      <point x="456" y="389"/>
      <point x="458" y="377"/>
      <point x="459" y="338" type="curve"/>
      <point x="593" y="338" type="line"/>
      <point x="596" y="362"/>
      <point x="597" y="371"/>
      <point x="597" y="381" type="curve" smooth="yes"/>
      <point x="597" y="423"/>
      <point x="580" y="463"/>
      <point x="549" y="494" type="curve" smooth="yes"/>
      <point x="511" y="532"/>
      <point x="465" y="549"/>
      <point x="398" y="549" type="curve" smooth="yes"/>
      <point x="304" y="549"/>
      <point x="230" y="517"/>
      <point x="177" y="454" type="curve" smooth="yes"/>
      <point x="119" y="384"/>
      <point x="77" y="267"/>
      <point x="77" y="173" type="curve" smooth="yes"/>
      <point x="77" y="101"/>
      <point x="113" y="34"/>
      <point x="168" y="4" type="curve" smooth="yes"/>
      <point x="187" y="-6"/>
      <point x="205" y="-12"/>
      <point x="241" y="-19" type="curve"/>
      <point x="184" y="-106" type="line"/>
      <point x="209" y="-96"/>
      <point x="221" y="-93"/>
      <point x="238" y="-93" type="curve" smooth="yes"/>
      <point x="264" y="-93"/>
      <point x="282" y="-106"/>
      <point x="282" y="-126" type="curve" smooth="yes"/>
      <point x="282" y="-150"/>
      <point x="252" y="-170"/>
      <point x="214" y="-170" type="curve" smooth="yes"/>
      <point x="186" y="-170"/>
      <point x="162" y="-163"/>
      <point x="115" y="-139" type="curve"/>
      <point x="85" y="-191" type="line"/>
      <point x="141" y="-213"/>
      <point x="174" y="-220"/>
      <point x="218" y="-220" type="curve" smooth="yes"/>
      <point x="309" y="-220"/>
      <point x="369" y="-178"/>
      <point x="369" y="-113" type="curve" smooth="yes"/>
      <point x="369" y="-77"/>
      <point x="345" y="-56"/>
      <point x="305" y="-56" type="curve" smooth="yes"/>
      <point x="289" y="-56"/>
      <point x="277" y="-58"/>
      <point x="262" y="-62" type="curve"/>
    </contour>
  </outline>
</glyph>
<glyph name="igrave" format="1">
  <advance width="278"/>
  <unicode hex="00EC"/>
  <outline>
    <contour>
      <point x="322" y="540" type="line"/>
      <point x="182" y="540" type="line"/>
      <point x="67" y="0" type="line"/>
      <point x="207" y="0" type="line"/>
    </contour>
    <contour>
      <point x="147" y="757" type="line"/>
      <point x="248" y="607" type="line"/>
      <point x="311" y="607" type="line"/>
      <point x="266" y="757" type="line"/>
    </contour>
  </outline>
</glyph>
<glyph name="iacute" format="1">
  <advance width="278"/>
  <unicode hex="00ED"/>
  <outline>
    <contour>
      <point x="322" y="540" type="line"/>
      <point x="182" y="540" type="line"/>
      <point x="67" y="0" type="line"/>
      <point x="207" y="0" type="line"/>
    </contour>
    <contour>
      <point x="448" y="757" type="line"/>
      <point x="322" y="757" type="line"/>
      <point x="220" y="607" type="line"/>
      <point x="290" y="607" type="line"/>
    </contour>
  </outline>
</glyph>
<glyph name="icircumflex" format="1">
  <advance width="278"/>
  <unicode hex="00EE"/>
  <outline>
    <contour>
      <point x="322" y="540" type="line"/>
      <point x="182" y="540" type="line"/>
      <point x="67" y="0" type="line"/>
      <point x="207" y="0" type="line"/>
    </contour>
    <contour>
      <point x="247" y="757" type="line"/>
      <point x="108" y="610" type="line"/>
      <point x="184" y="610" type="line"/>
      <point x="287" y="707" type="line"/>
      <point x="348" y="610" type="line"/>
      <point x="426" y="610" type="line"/>
      <point x="355" y="757" type="line"/>
    </contour>
  </outline>
</glyph>
<glyph name="idieresis" format="1">
  <advance width="278"/>
  <unicode hex="00EF"/>
  <outline>
    <contour>
      <point x="322" y="540" type="line"/>
      <point x="182" y="540" type="line"/>
      <point x="67" y="0" type="line"/>
      <point x="207" y="0" type="line"/>
    </contour>
    <contour>
      <point x="256" y="741" type="line"/>
      <point x="146" y="741" type="line"/>
      <point x="120" y="621" type="line"/>
      <point x="230" y="621" type="line"/>
    </contour>
    <contour>
      <point x="442" y="741" type="line"/>
      <point x="332" y="741" type="line"/>
      <point x="306" y="621" type="line"/>
      <point x="416" y="621" type="line"/>
    </contour>
  </outline>
</glyph>
<glyph name="eth" format="1">
  <advance width="611"/>
  <unicode hex="00F0"/>
  <outline>
    <contour>
      <point x="355" y="609" type="line"/>
      <point x="393" y="582"/>
      <point x="428" y="544"/>
      <point x="452" y="503" type="curve"/>
      <point x="414" y="524"/>
      <point x="394" y="530"/>
      <point x="362" y="530" type="curve" smooth="yes"/>
      <point x="292" y="530"/>
      <point x="225" y="500"/>
      <point x="180" y="449" type="curve" smooth="yes"/>
      <point x="121" y="382"/>
      <point x="83" y="276"/>
      <point x="83" y="178" type="curve" smooth="yes"/>
      <point x="83" y="52"/>
      <point x="166" y="-23"/>
      <point x="305" y="-23" type="curve" smooth="yes"/>
      <point x="409" y="-23"/>
      <point x="495" y="18"/>
      <point x="553" y="97" type="curve" smooth="yes"/>
      <point x="605" y="166"/>
      <point x="633" y="254"/>
      <point x="633" y="345" type="curve" smooth="yes"/>
      <point x="633" y="473"/>
      <point x="584" y="558"/>
      <point x="454" y="654" type="curve"/>
      <point x="547" y="695" type="line"/>
      <point x="504" y="738" type="line"/>
      <point x="400" y="693" type="line"/>
      <point x="394" y="697"/>
      <point x="389" y="699"/>
      <point x="387" y="701" type="curve"/>
      <point x="341" y="728"/>
      <point x="339" y="729"/>
      <point x="305" y="744" type="curve"/>
      <point x="235" y="694" type="line"/>
      <point x="273" y="670"/>
      <point x="279" y="666"/>
      <point x="305" y="648" type="curve"/>
      <point x="217" y="607" type="line"/>
      <point x="258" y="564" type="line"/>
    </contour>
    <contour>
      <point x="387" y="431" type="curve" smooth="yes"/>
      <point x="411" y="431"/>
      <point x="438" y="422"/>
      <point x="458" y="408" type="curve"/>
      <point x="481" y="390"/>
      <point x="491" y="366"/>
      <point x="491" y="326" type="curve" smooth="yes"/>
      <point x="491" y="190"/>
      <point x="420" y="89"/>
      <point x="326" y="89" type="curve" smooth="yes"/>
      <point x="302" y="89"/>
      <point x="278" y="98"/>
      <point x="259" y="113" type="curve" smooth="yes"/>
      <point x="237" y="132"/>
      <point x="227" y="161"/>
      <point x="227" y="206" type="curve" smooth="yes"/>
      <point x="227" y="256"/>
      <point x="240" y="309"/>
      <point x="264" y="351" type="curve" smooth="yes"/>
      <point x="293" y="403"/>
      <point x="336" y="431"/>
    </contour>
  </outline>
</glyph>
<glyph name="ntilde" format="1">
  <advance width="611"/>
  <unicode hex="00F1"/>
  <outline>
    <contour>
      <point x="178" y="540" type="line"/>
      <point x="63" y="0" type="line"/>
      <point x="203" y="0" type="line"/>
      <point x="268" y="304" type="line" smooth="yes"/>
      <point x="285" y="386"/>
      <point x="338" y="437"/>
      <point x="405" y="437" type="curve" smooth="yes"/>
      <point x="453" y="437"/>
      <point x="479" y="410"/>
      <point x="479" y="362" type="curve" smooth="yes"/>
      <point x="479" y="349"/>
      <point x="477" y="335"/>
      <point x="473" y="313" type="curve" smooth="yes"/>
      <point x="406" y="0" type="line"/>
      <point x="546" y="0" type="line"/>
      <point x="623" y="362" type="line" smooth="yes"/>
      <point x="627" y="381"/>
      <point x="629" y="399"/>
      <point x="629" y="417" type="curve" smooth="yes"/>
      <point x="629" y="497"/>
      <point x="571" y="549"/>
      <point x="482" y="549" type="curve" smooth="yes"/>
      <point x="408" y="549"/>
      <point x="354" y="522"/>
      <point x="300" y="458" type="curve"/>
      <point x="318" y="540" type="line"/>
    </contour>
    <contour>
      <point x="592" y="744" type="line"/>
      <point x="578" y="710"/>
      <point x="561" y="693"/>
      <point x="538" y="693" type="curve" smooth="yes"/>
      <point x="526" y="693"/>
      <point x="524" y="694"/>
      <point x="505" y="703" type="curve" smooth="yes"/>
      <point x="455" y="724" type="line" smooth="yes"/>
      <point x="423" y="738"/>
      <point x="409" y="741"/>
      <point x="384" y="741" type="curve" smooth="yes"/>
      <point x="330" y="741"/>
      <point x="286" y="699"/>
      <point x="263" y="624" type="curve"/>
      <point x="317" y="624" type="line"/>
      <point x="334" y="657"/>
      <point x="350" y="672"/>
      <point x="368" y="672" type="curve" smooth="yes"/>
      <point x="376" y="672"/>
      <point x="397" y="665"/>
      <point x="412" y="658" type="curve" smooth="yes"/>
      <point x="462" y="633" type="line" smooth="yes"/>
      <point x="475" y="627"/>
      <point x="496" y="622"/>
      <point x="513" y="622" type="curve" smooth="yes"/>
      <point x="545" y="622"/>
      <point x="580" y="637"/>
      <point x="605" y="663" type="curve" smooth="yes"/>
      <point x="624" y="683"/>
      <point x="635" y="705"/>
      <point x="646" y="744" type="curve"/>
    </contour>
  </outline>
</glyph>
<glyph name="otilde" format="1">
  <advance width="611"/>
  <unicode hex="00F5"/>
  <outline>
    <contour>
      <point x="413" y="549" type="curve" smooth="yes"/>
      <point x="310" y="549"/>
      <point x="220" y="505"/>
      <point x="161" y="426" type="curve" smooth="yes"/>
      <point x="113" y="363"/>
      <point x="82" y="263"/>
      <point x="82" y="177" type="curve" smooth="yes"/>
      <point x="82" y="55"/>
      <point x="167" y="-23"/>
      <point x="299" y="-23" type="curve" smooth="yes"/>
      <point x="407" y="-23"/>
      <point x="494" y="19"/>
      <point x="555" y="100" type="curve" smooth="yes"/>
      <point x="602" y="163"/>
      <point x="634" y="263"/>
      <point x="634" y="349" type="curve" smooth="yes"/>
      <point x="634" y="473"/>
      <point x="550" y="549"/>
    </contour>
    <contour>
      <point x="391" y="437" type="curve" smooth="yes"/>
      <point x="452" y="437"/>
      <point x="491" y="391"/>
      <point x="491" y="320" type="curve" smooth="yes"/>
      <point x="491" y="271"/>
      <point x="477" y="218"/>
      <point x="453" y="176" type="curve" smooth="yes"/>
      <point x="422" y="120"/>
      <point x="376" y="89"/>
      <point x="324" y="89" type="curve" smooth="yes"/>
      <point x="264" y="89"/>
      <point x="225" y="135"/>
      <point x="225" y="205" type="curve" smooth="yes"/>
      <point x="225" y="332"/>
      <point x="301" y="437"/>
    </contour>
    <contour>
      <point x="585" y="744" type="line"/>
      <point x="564" y="710"/>
      <point x="543" y="693"/>
      <point x="520" y="693" type="curve" smooth="yes"/>
      <point x="509" y="693"/>
      <point x="506" y="694"/>
      <point x="489" y="703" type="curve"/>
      <point x="444" y="724" type="line" smooth="yes"/>
      <point x="411" y="739"/>
      <point x="402" y="742"/>
      <point x="377" y="742" type="curve" smooth="yes"/>
      <point x="322" y="742"/>
      <point x="270" y="700"/>
      <point x="231" y="624" type="curve"/>
      <point x="285" y="624" type="line"/>
      <point x="308" y="657"/>
      <point x="327" y="672"/>
      <point x="345" y="672" type="curve" smooth="yes"/>
      <point x="353" y="672"/>
      <point x="374" y="665"/>
      <point x="387" y="658" type="curve" smooth="yes"/>
      <point x="432" y="633" type="line" smooth="yes"/>
      <point x="443" y="627"/>
      <point x="463" y="622"/>
      <point x="480" y="622" type="curve" smooth="yes"/>
      <point x="544" y="622"/>
      <point x="602" y="667"/>
      <point x="639" y="744" type="curve"/>
    </contour>
  </outline>
</glyph>
<glyph name="odieresis" format="1">
  <advance width="611"/>
  <unicode hex="00F6"/>
  <outline>
    <contour>
      <point x="413" y="549" type="curve" smooth="yes"/>
      <point x="310" y="549"/>
      <point x="220" y="505"/>
      <point x="161" y="426" type="curve" smooth="yes"/>
      <point x="113" y="363"/>
      <point x="82" y="263"/>
      <point x="82" y="177" type="curve" smooth="yes"/>
      <point x="82" y="55"/>
      <point x="167" y="-23"/>
      <point x="299" y="-23" type="curve" smooth="yes"/>
      <point x="407" y="-23"/>
      <point x="494" y="19"/>
      <point x="555" y="100" type="curve" smooth="yes"/>
      <point x="602" y="163"/>
      <point x="634" y="263"/>
      <point x="634" y="349" type="curve" smooth="yes"/>
      <point x="634" y="473"/>
      <point x="550" y="549"/>
    </contour>
    <contour>
      <point x="391" y="437" type="curve" smooth="yes"/>
      <point x="452" y="437"/>
      <point x="491" y="391"/>
      <point x="491" y="320" type="curve" smooth="yes"/>
      <point x="491" y="271"/>
      <point x="477" y="218"/>
      <point x="453" y="176" type="curve" smooth="yes"/>
      <point x="422" y="120"/>
      <point x="376" y="89"/>
      <point x="324" y="89" type="curve" smooth="yes"/>
      <point x="264" y="89"/>
      <point x="225" y="134"/>
      <point x="225" y="205" type="curve" smooth="yes"/>
      <point x="225" y="332"/>
      <point x="301" y="437"/>
    </contour>
    <contour>
      <point x="421" y="741" type="line"/>
      <point x="311" y="741" type="line"/>
      <point x="285" y="621" type="line"/>
      <point x="395" y="621" type="line"/>
    </contour>
    <contour>
      <point x="607" y="741" type="line"/>
      <point x="497" y="741" type="line"/>
      <point x="471" y="621" type="line"/>
      <point x="581" y="621" type="line"/>
    </contour>
  </outline>
</glyph>
<glyph name="divide" format="1">
  <advance width="584"/>
  <unicode hex="00F7"/>
  <outline>
    <contour>
      <point x="606" y="292" type="line"/>
      <point x="102" y="292" type="line"/>
      <point x="77" y="172" type="line"/>
      <point x="581" y="172" type="line"/>
    </contour>
    <contour>
      <point x="318" y="124" type="curve" smooth="yes"/>
      <point x="279" y="124"/>
      <point x="242" y="88"/>
      <point x="242" y="49" type="curve" smooth="yes"/>
      <point x="242" y="21"/>
      <point x="263" y="0"/>
      <point x="292" y="0" type="curve" smooth="yes"/>
      <point x="331" y="0"/>
      <point x="368" y="36"/>
      <point x="368" y="73" type="curve" smooth="yes"/>
      <point x="368" y="103"/>
      <point x="347" y="124"/>
    </contour>
    <contour>
      <point x="390" y="462" type="curve" smooth="yes"/>
      <point x="351" y="462"/>
      <point x="314" y="425"/>
      <point x="314" y="387" type="curve" smooth="yes"/>
      <point x="314" y="359"/>
      <point x="335" y="338"/>
      <point x="363" y="338" type="curve" smooth="yes"/>
      <point x="403" y="338"/>
      <point x="440" y="374"/>
      <point x="440" y="411" type="curve" smooth="yes"/>
      <point x="440" y="441"/>
      <point x="419" y="462"/>
    </contour>
  </outline>
</glyph>
<glyph name="oslash" format="1">
  <advance width="611"/>
  <unicode hex="00F8"/>
  <outline>
    <contour>
      <point x="135" y="36" type="line"/>
      <point x="175" y="-2"/>
      <point x="233" y="-23"/>
      <point x="304" y="-23" type="curve" smooth="yes"/>
      <point x="406" y="-23"/>
      <point x="496" y="21"/>
      <point x="556" y="100" type="curve" smooth="yes"/>
      <point x="603" y="161"/>
      <point x="636" y="263"/>
      <point x="636" y="344" type="curve" smooth="yes"/>
      <point x="636" y="379"/>
      <point x="630" y="411"/>
      <point x="618" y="440" type="curve"/>
      <point x="709" y="516" type="line"/>
      <point x="675" y="557" type="line"/>
      <point x="590" y="486" type="line"/>
      <point x="551" y="527"/>
      <point x="490" y="549"/>
      <point x="417" y="549" type="curve" smooth="yes"/>
      <point x="314" y="549"/>
      <point x="224" y="505"/>
      <point x="164" y="426" type="curve" smooth="yes"/>
      <point x="116" y="363"/>
      <point x="84" y="263"/>
      <point x="84" y="178" type="curve" smooth="yes"/>
      <point x="84" y="143"/>
      <point x="91" y="110"/>
      <point x="105" y="80" type="curve"/>
      <point x="12" y="2" type="line"/>
      <point x="46" y="-38" type="line"/>
    </contour>
    <contour>
      <point x="493" y="336" type="line"/>
      <point x="494" y="329"/>
      <point x="494" y="324"/>
      <point x="494" y="321" type="curve" smooth="yes"/>
      <point x="494" y="283"/>
      <point x="485" y="239"/>
      <point x="469" y="203" type="curve" smooth="yes"/>
      <point x="439" y="131"/>
      <point x="387" y="89"/>
      <point x="328" y="89" type="curve" smooth="yes"/>
      <point x="294" y="89"/>
      <point x="263" y="104"/>
      <point x="246" y="129" type="curve"/>
    </contour>
    <contour>
      <point x="228" y="183" type="line"/>
      <point x="227" y="194"/>
      <point x="227" y="199"/>
      <point x="227" y="208" type="curve" smooth="yes"/>
      <point x="227" y="253"/>
      <point x="242" y="309"/>
      <point x="265" y="350" type="curve" smooth="yes"/>
      <point x="296" y="406"/>
      <point x="342" y="437"/>
      <point x="395" y="437" type="curve" smooth="yes"/>
      <point x="430" y="437"/>
      <point x="460" y="421"/>
      <point x="478" y="392" type="curve"/>
    </contour>
  </outline>
</glyph>
<glyph name="ucircumflex" format="1">
  <advance width="611"/>
  <unicode hex="00FB"/>
  <outline>
    <contour>
      <point x="541" y="0" type="line"/>
      <point x="656" y="540" type="line"/>
      <point x="516" y="540" type="line"/>
      <point x="448" y="222" type="line" smooth="yes"/>
      <point x="431" y="141"/>
      <point x="379" y="89"/>
      <point x="314" y="89" type="curve" smooth="yes"/>
      <point x="264" y="89"/>
      <point x="238" y="115"/>
      <point x="238" y="164" type="curve" smooth="yes"/>
      <point x="238" y="178"/>
      <point x="240" y="190"/>
      <point x="244" y="213" type="curve" smooth="yes"/>
      <point x="314" y="540" type="line"/>
      <point x="174" y="540" type="line"/>
      <point x="94" y="164" type="line" smooth="yes"/>
      <point x="90" y="145"/>
      <point x="88" y="127"/>
      <point x="88" y="109" type="curve" smooth="yes"/>
      <point x="88" y="29"/>
      <point x="146" y="-23"/>
      <point x="234" y="-23" type="curve" smooth="yes"/>
      <point x="308" y="-23"/>
      <point x="362" y="4"/>
      <point x="416" y="68" type="curve"/>
      <point x="401" y="0" type="line"/>
    </contour>
    <contour>
      <point x="405" y="757" type="line"/>
      <point x="266" y="610" type="line"/>
      <point x="342" y="610" type="line"/>
      <point x="445" y="707" type="line"/>
      <point x="506" y="610" type="line"/>
      <point x="584" y="610" type="line"/>
      <point x="513" y="757" type="line"/>
    </contour>
  </outline>
</glyph>
<glyph name="thorn" format="1">
  <advance width="611"/>
  <unicode hex="00FE"/>
  <outline>
    <contour>
      <point x="352" y="729" type="line"/>
      <point x="212" y="729" type="line"/>
      <point x="11" y="-218" type="line"/>
      <point x="151" y="-218" type="line"/>
      <point x="211" y="64" type="line"/>
      <point x="232" y="5"/>
      <point x="274" y="-23"/>
      <point x="344" y="-23" type="curve" smooth="yes"/>
      <point x="505" y="-23"/>
      <point x="637" y="142"/>
      <point x="637" y="343" type="curve" smooth="yes"/>
      <point x="637" y="468"/>
      <point x="569" y="549"/>
      <point x="464" y="549" type="curve" smooth="yes"/>
      <point x="397" y="549"/>
      <point x="341" y="519"/>
      <point x="295" y="460" type="curve"/>
    </contour>
    <contour>
      <point x="406" y="437" type="curve" smooth="yes"/>
      <point x="459" y="437"/>
      <point x="494" y="392"/>
      <point x="494" y="323" type="curve" smooth="yes"/>
      <point x="494" y="197"/>
      <point x="420" y="89"/>
      <point x="334" y="89" type="curve" smooth="yes"/>
      <point x="281" y="89"/>
      <point x="246" y="134"/>
      <point x="246" y="202" type="curve" smooth="yes"/>
      <point x="246" y="327"/>
      <point x="320" y="437"/>
    </contour>
  </outline>
</glyph>
<glyph name="ydieresis" format="1">
  <advance width="556"/>
  <unicode hex="00FF"/>
  <outline>
    <contour>
      <point x="509" y="540" type="line"/>
      <point x="314" y="147" type="line"/>
      <point x="278" y="540" type="line"/>
      <point x="124" y="540" type="line"/>
      <point x="200" y="0" type="line"/>
      <point x="201" y="-15" type="line"/>
      <point x="201" y="-72"/>
      <point x="157" y="-108"/>
      <point x="88" y="-108" type="curve" smooth="yes"/>
      <point x="76" y="-108"/>
      <point x="71" y="-108"/>
      <point x="60" y="-106" type="curve"/>
      <point x="37" y="-215" type="line"/>
      <point x="50" y="-218"/>
      <point x="60" y="-219"/>
      <point x="81" y="-219" type="curve" smooth="yes"/>
      <point x="125" y="-219"/>
      <point x="164" y="-213"/>
      <point x="194" y="-202" type="curve" smooth="yes"/>
      <point x="237" y="-185"/>
      <point x="259" y="-163"/>
      <point x="295" y="-98" type="curve" smooth="yes"/>
      <point x="653" y="540" type="line"/>
    </contour>
    <contour>
      <point x="397" y="741" type="line"/>
      <point x="287" y="741" type="line"/>
      <point x="261" y="621" type="line"/>
      <point x="371" y="621" type="line"/>
    </contour>
    <contour>
      <point x="583" y="741" type="line"/>
      <point x="473" y="741" type="line"/>
      <point x="447" y="621" type="line"/>
      <point x="557" y="621" type="line"/>
    </contour>
  </outline>
</glyph>
<glyph name="Abreve" format="1">
  <advance width="722"/>
  <unicode hex="0102"/>
  <outline>
    <contour>
      <point x="532" y="147" type="line"/>
      <point x="550" y="0" type="line"/>
      <point x="703" y="0" type="line"/>
      <point x="606" y="729" type="line"/>
      <point x="433" y="729" type="line"/>
      <point x="26" y="0" type="line"/>
      <point x="179" y="0" type="line"/>
      <point x="260" y="147" type="line"/>
    </contour>
    <contour>
      <point x="518" y="272" type="line"/>
      <point x="329" y="272" type="line"/>
      <point x="483" y="555" type="line"/>
    </contour>
    <contour>
      <point x="651" y="934" type="line"/>
      <point x="634" y="891"/>
      <point x="599" y="869"/>
      <point x="548" y="869" type="curve" smooth="yes"/>
      <point x="501" y="869"/>
      <point x="474" y="890"/>
      <point x="474" y="926" type="curve" smooth="yes"/>
      <point x="474" y="934" type="line"/>
      <point x="432" y="934" type="line"/>
      <point x="427" y="916"/>
      <point x="426" y="907"/>
      <point x="426" y="895" type="curve" smooth="yes"/>
      <point x="426" y="833"/>
      <point x="469" y="791"/>
      <point x="532" y="791" type="curve" smooth="yes"/>
      <point x="611" y="791"/>
      <point x="679" y="852"/>
      <point x="693" y="934" type="curve"/>
    </contour>
  </outline>
</glyph>
<glyph name="Aogonek" format="1">
  <advance width="722"/>
  <unicode hex="0104"/>
  <outline>
    <contour>
      <point x="532" y="147" type="line"/>
      <point x="550" y="0" type="line"/>
      <point x="625" y="0" type="line"/>
      <point x="581" y="-15"/>
      <point x="561" y="-25"/>
      <point x="537" y="-43" type="curve" smooth="yes"/>
      <point x="494" y="-74"/>
      <point x="469" y="-115"/>
      <point x="469" y="-155" type="curve" smooth="yes"/>
      <point x="469" y="-205"/>
      <point x="518" y="-233"/>
      <point x="605" y="-233" type="curve" smooth="yes"/>
      <point x="633" y="-233"/>
      <point x="654" y="-231"/>
      <point x="685" y="-224" type="curve"/>
      <point x="696" y="-172" type="line"/>
      <point x="672" y="-180"/>
      <point x="650" y="-183"/>
      <point x="624" y="-183" type="curve" smooth="yes"/>
      <point x="586" y="-183"/>
      <point x="569" y="-170"/>
      <point x="569" y="-140" type="curve" smooth="yes"/>
      <point x="569" y="-91"/>
      <point x="625" y="-32"/>
      <point x="703" y="0" type="curve"/>
      <point x="606" y="729" type="line"/>
      <point x="433" y="729" type="line"/>
      <point x="26" y="0" type="line"/>
      <point x="179" y="0" type="line"/>
      <point x="260" y="147" type="line"/>
    </contour>
    <contour>
      <point x="518" y="272" type="line"/>
      <point x="329" y="272" type="line"/>
      <point x="483" y="555" type="line"/>
    </contour>
  </outline>
</glyph>
<glyph name="aogonek" format="1">
  <advance width="556"/>
  <unicode hex="0105"/>
  <outline>
    <contour>
      <point x="527" y="17" type="line"/>
      <point x="512" y="34"/>
      <point x="506" y="47"/>
      <point x="506" y="62" type="curve" smooth="yes"/>
      <point x="506" y="68"/>
      <point x="507" y="75"/>
      <point x="509" y="83" type="curve" smooth="yes"/>
      <point x="572" y="383" type="line" smooth="yes"/>
      <point x="576" y="401"/>
      <point x="578" y="416"/>
      <point x="578" y="428" type="curve" smooth="yes"/>
      <point x="578" y="457"/>
      <point x="560" y="492"/>
      <point x="537" y="511" type="curve" smooth="yes"/>
      <point x="505" y="537"/>
      <point x="456" y="549"/>
      <point x="386" y="549" type="curve" smooth="yes"/>
      <point x="229" y="549"/>
      <point x="148" y="492"/>
      <point x="120" y="362" type="curve"/>
      <point x="251" y="362" type="line"/>
      <point x="268" y="417"/>
      <point x="299" y="437"/>
      <point x="363" y="437" type="curve" smooth="yes"/>
      <point x="414" y="437"/>
      <point x="436" y="424"/>
      <point x="436" y="394" type="curve" smooth="yes"/>
      <point x="436" y="373"/>
      <point x="422" y="351"/>
      <point x="402" y="341" type="curve" smooth="yes"/>
      <point x="382" y="330"/>
      <point x="382" y="330"/>
      <point x="310" y="320" type="curve" smooth="yes"/>
      <point x="252" y="311" type="line" smooth="yes"/>
      <point x="204" y="303"/>
      <point x="167" y="289"/>
      <point x="136" y="267" type="curve" smooth="yes"/>
      <point x="83" y="229"/>
      <point x="50" y="168"/>
      <point x="50" y="108" type="curve" smooth="yes"/>
      <point x="50" y="70"/>
      <point x="68" y="32"/>
      <point x="97" y="8" type="curve" smooth="yes"/>
      <point x="122" y="-13"/>
      <point x="156" y="-23"/>
      <point x="199" y="-23" type="curve" smooth="yes"/>
      <point x="257" y="-23"/>
      <point x="306" y="0"/>
      <point x="366" y="54" type="curve"/>
      <point x="363" y="39"/>
      <point x="363" y="34"/>
      <point x="363" y="27" type="curve" smooth="yes"/>
      <point x="363" y="17"/>
      <point x="365" y="11"/>
      <point x="370" y="0" type="curve"/>
      <point x="449" y="0" type="line"/>
      <point x="346" y="-39"/>
      <point x="293" y="-92"/>
      <point x="293" y="-154" type="curve" smooth="yes"/>
      <point x="293" y="-206"/>
      <point x="340" y="-233"/>
      <point x="428" y="-233" type="curve" smooth="yes"/>
      <point x="457" y="-233"/>
      <point x="477" y="-231"/>
      <point x="509" y="-224" type="curve"/>
      <point x="519" y="-172" type="line"/>
      <point x="495" y="-180"/>
      <point x="474" y="-183"/>
      <point x="443" y="-183" type="curve" smooth="yes"/>
      <point x="408" y="-183"/>
      <point x="392" y="-169"/>
      <point x="392" y="-140" type="curve" smooth="yes"/>
      <point x="392" y="-93"/>
      <point x="435" y="-47"/>
      <point x="523" y="0" type="curve"/>
    </contour>
    <contour>
      <point x="400" y="217" type="line" smooth="yes"/>
      <point x="382" y="135"/>
      <point x="334" y="89"/>
      <point x="266" y="89" type="curve" smooth="yes"/>
      <point x="218" y="89"/>
      <point x="193" y="106"/>
      <point x="193" y="139" type="curve" smooth="yes"/>
      <point x="193" y="186"/>
      <point x="230" y="219"/>
      <point x="295" y="230" type="curve" smooth="yes"/>
      <point x="345" y="238" type="line"/>
      <point x="361" y="241" type="line" smooth="yes"/>
      <point x="371" y="243"/>
      <point x="378" y="244"/>
      <point x="382" y="245" type="curve"/>
      <point x="393" y="247"/>
      <point x="396" y="248"/>
      <point x="408" y="255" type="curve"/>
    </contour>
  </outline>
</glyph>
<glyph name="Ccaron" format="1">
  <advance width="722"/>
  <unicode hex="010C"/>
  <outline>
    <contour>
      <point x="789" y="482" type="line"/>
      <point x="792" y="510"/>
      <point x="793" y="521"/>
      <point x="793" y="532" type="curve" smooth="yes"/>
      <point x="793" y="656"/>
      <point x="688" y="741"/>
      <point x="533" y="741" type="curve" smooth="yes"/>
      <point x="410" y="741"/>
      <point x="303" y="688"/>
      <point x="222" y="587" type="curve" smooth="yes"/>
      <point x="151" y="499"/>
      <point x="107" y="364"/>
      <point x="107" y="235" type="curve" smooth="yes"/>
      <point x="107" y="75"/>
      <point x="211" y="-23"/>
      <point x="382" y="-23" type="curve" smooth="yes"/>
      <point x="564" y="-23"/>
      <point x="698" y="78"/>
      <point x="742" y="249" type="curve"/>
      <point x="599" y="249" type="line"/>
      <point x="570" y="157"/>
      <point x="499" y="105"/>
      <point x="403" y="105" type="curve" smooth="yes"/>
      <point x="306" y="105"/>
      <point x="256" y="159"/>
      <point x="256" y="264" type="curve" smooth="yes"/>
      <point x="256" y="346"/>
      <point x="282" y="434"/>
      <point x="327" y="504" type="curve" smooth="yes"/>
      <point x="374" y="578"/>
      <point x="436" y="613"/>
      <point x="516" y="613" type="curve" smooth="yes"/>
      <point x="569" y="613"/>
      <point x="610" y="594"/>
      <point x="631" y="560" type="curve" smooth="yes"/>
      <point x="644" y="540"/>
      <point x="648" y="521"/>
      <point x="648" y="482" type="curve"/>
    </contour>
    <contour>
      <point x="610" y="789" type="line"/>
      <point x="749" y="936" type="line"/>
      <point x="673" y="936" type="line"/>
      <point x="570" y="839" type="line"/>
      <point x="509" y="936" type="line"/>
      <point x="431" y="936" type="line"/>
      <point x="502" y="789" type="line"/>
    </contour>
  </outline>
</glyph>
<glyph name="ccaron" format="1">
  <advance width="556"/>
  <unicode hex="010D"/>
  <outline>
    <contour>
      <point x="593" y="338" type="line"/>
      <point x="596" y="362"/>
      <point x="597" y="371"/>
      <point x="597" y="381" type="curve" smooth="yes"/>
      <point x="597" y="423"/>
      <point x="580" y="463"/>
      <point x="549" y="494" type="curve" smooth="yes"/>
      <point x="511" y="532"/>
      <point x="465" y="549"/>
      <point x="398" y="549" type="curve" smooth="yes"/>
      <point x="304" y="549"/>
      <point x="230" y="517"/>
      <point x="178" y="454" type="curve" smooth="yes"/>
      <point x="119" y="384"/>
      <point x="77" y="267"/>
      <point x="77" y="172" type="curve" smooth="yes"/>
      <point x="77" y="122"/>
      <point x="95" y="73"/>
      <point x="127" y="38" type="curve" smooth="yes"/>
      <point x="163" y="-3"/>
      <point x="218" y="-23"/>
      <point x="292" y="-23" type="curve" smooth="yes"/>
      <point x="421" y="-23"/>
      <point x="519" y="53"/>
      <point x="561" y="187" type="curve"/>
      <point x="427" y="187" type="line"/>
      <point x="396" y="116"/>
      <point x="363" y="89"/>
      <point x="309" y="89" type="curve" smooth="yes"/>
      <point x="249" y="89"/>
      <point x="220" y="123"/>
      <point x="220" y="192" type="curve" smooth="yes"/>
      <point x="220" y="245"/>
      <point x="233" y="304"/>
      <point x="257" y="352" type="curve" smooth="yes"/>
      <point x="285" y="411"/>
      <point x="322" y="437"/>
      <point x="377" y="437" type="curve" smooth="yes"/>
      <point x="410" y="437"/>
      <point x="435" y="425"/>
      <point x="448" y="404" type="curve"/>
      <point x="456" y="389"/>
      <point x="458" y="377"/>
      <point x="459" y="338" type="curve"/>
    </contour>
    <contour>
      <point x="468" y="610" type="line"/>
      <point x="607" y="757" type="line"/>
      <point x="531" y="757" type="line"/>
      <point x="428" y="660" type="line"/>
      <point x="367" y="757" type="line"/>
      <point x="289" y="757" type="line"/>
      <point x="360" y="610" type="line"/>
    </contour>
  </outline>
</glyph>
<glyph name="Dcaron" format="1">
  <advance width="722"/>
  <unicode hex="010E"/>
  <outline>
    <contour>
      <point x="77" y="0" type="line"/>
      <point x="362" y="0" type="line" smooth="yes"/>
      <point x="507" y="0"/>
      <point x="591" y="39"/>
      <point x="664" y="140" type="curve" smooth="yes"/>
      <point x="735" y="238"/>
      <point x="776" y="361"/>
      <point x="776" y="479" type="curve" smooth="yes"/>
      <point x="776" y="654"/>
      <point x="698" y="729"/>
      <point x="517" y="729" type="curve" smooth="yes"/>
      <point x="232" y="729" type="line"/>
    </contour>
    <contour>
      <point x="254" y="125" type="line"/>
      <point x="355" y="604" type="line"/>
      <point x="490" y="604" type="line" smooth="yes"/>
      <point x="582" y="604"/>
      <point x="627" y="560"/>
      <point x="627" y="469" type="curve" smooth="yes"/>
      <point x="627" y="390"/>
      <point x="601" y="287"/>
      <point x="567" y="228" type="curve" smooth="yes"/>
      <point x="524" y="153"/>
      <point x="475" y="125"/>
      <point x="388" y="125" type="curve" smooth="yes"/>
    </contour>
    <contour>
      <point x="547" y="789" type="line"/>
      <point x="686" y="936" type="line"/>
      <point x="610" y="936" type="line"/>
      <point x="507" y="839" type="line"/>
      <point x="446" y="936" type="line"/>
      <point x="368" y="936" type="line"/>
      <point x="439" y="789" type="line"/>
    </contour>
  </outline>
</glyph>
<glyph name="dcaron" format="1">
  <advance width="722"/>
  <unicode hex="010F"/>
  <outline>
    <contour>
      <point x="405" y="0" type="line"/>
      <point x="545" y="0" type="line"/>
      <point x="700" y="729" type="line"/>
      <point x="560" y="729" type="line"/>
      <point x="505" y="470" type="line"/>
      <point x="482" y="524"/>
      <point x="440" y="549"/>
      <point x="372" y="549" type="curve" smooth="yes"/>
      <point x="291" y="549"/>
      <point x="209" y="503"/>
      <point x="157" y="428" type="curve" smooth="yes"/>
      <point x="108" y="357"/>
      <point x="79" y="267"/>
      <point x="79" y="185" type="curve" smooth="yes"/>
      <point x="79" y="59"/>
      <point x="147" y="-23"/>
      <point x="251" y="-23" type="curve" smooth="yes"/>
      <point x="318" y="-23"/>
      <point x="371" y="2"/>
      <point x="417" y="55" type="curve"/>
    </contour>
    <contour>
      <point x="380" y="437" type="curve" smooth="yes"/>
      <point x="434" y="437"/>
      <point x="468" y="393"/>
      <point x="468" y="323" type="curve" smooth="yes"/>
      <point x="468" y="197"/>
      <point x="394" y="89"/>
      <point x="309" y="89" type="curve" smooth="yes"/>
      <point x="256" y="89"/>
      <point x="222" y="134"/>
      <point x="222" y="206" type="curve" smooth="yes"/>
      <point x="222" y="327"/>
      <point x="297" y="437"/>
    </contour>
    <contour>
      <point x="760" y="729" type="line"/>
      <point x="736" y="617" type="line"/>
      <point x="803" y="617" type="line"/>
      <point x="797" y="572"/>
      <point x="762" y="536"/>
      <point x="718" y="528" type="curve"/>
      <point x="708" y="482" type="line"/>
      <point x="784" y="488"/>
      <point x="851" y="555"/>
      <point x="861" y="633" type="curve"/>
      <point x="882" y="729" type="line"/>
    </contour>
  </outline>
</glyph>
<glyph name="dcroat" format="1">
  <advance width="611"/>
  <unicode hex="0111"/>
  <outline>
    <contour>
      <point x="546" y="663" type="line"/>
      <point x="406" y="663" type="line"/>
      <point x="392" y="596" type="line"/>
      <point x="532" y="596" type="line"/>
      <point x="505" y="470" type="line"/>
      <point x="482" y="524"/>
      <point x="440" y="549"/>
      <point x="372" y="549" type="curve" smooth="yes"/>
      <point x="291" y="549"/>
      <point x="210" y="503"/>
      <point x="157" y="428" type="curve" smooth="yes"/>
      <point x="108" y="357"/>
      <point x="79" y="267"/>
      <point x="79" y="185" type="curve" smooth="yes"/>
      <point x="79" y="59"/>
      <point x="147" y="-23"/>
      <point x="251" y="-23" type="curve" smooth="yes"/>
      <point x="318" y="-23"/>
      <point x="371" y="2"/>
      <point x="417" y="55" type="curve"/>
      <point x="405" y="0" type="line"/>
      <point x="545" y="0" type="line"/>
      <point x="672" y="596" type="line"/>
      <point x="732" y="596" type="line"/>
      <point x="746" y="663" type="line"/>
      <point x="686" y="663" type="line"/>
      <point x="700" y="729" type="line"/>
      <point x="560" y="729" type="line"/>
    </contour>
    <contour>
      <point x="380" y="437" type="curve" smooth="yes"/>
      <point x="434" y="437"/>
      <point x="468" y="392"/>
      <point x="468" y="323" type="curve" smooth="yes"/>
      <point x="468" y="197"/>
      <point x="394" y="89"/>
      <point x="309" y="89" type="curve" smooth="yes"/>
      <point x="256" y="89"/>
      <point x="222" y="134"/>
      <point x="222" y="206" type="curve" smooth="yes"/>
      <point x="222" y="327"/>
      <point x="297" y="437"/>
    </contour>
  </outline>
</glyph>
<glyph name="Emacron" format="1">
  <advance width="667"/>
  <unicode hex="0112"/>
  <outline>
    <contour>
      <point x="296" y="314" type="line"/>
      <point x="645" y="314" type="line"/>
      <point x="671" y="439" type="line"/>
      <point x="322" y="439" type="line"/>
      <point x="357" y="604" type="line"/>
      <point x="735" y="604" type="line"/>
      <point x="762" y="729" type="line"/>
      <point x="234" y="729" type="line"/>
      <point x="79" y="0" type="line"/>
      <point x="624" y="0" type="line"/>
      <point x="651" y="125" type="line"/>
      <point x="256" y="125" type="line"/>
    </contour>
    <contour>
      <point x="686" y="901" type="line"/>
      <point x="386" y="901" type="line"/>
      <point x="369" y="821" type="line"/>
      <point x="669" y="821" type="line"/>
    </contour>
  </outline>
</glyph>
<glyph name="emacron" format="1">
  <advance width="556"/>
  <unicode hex="0113"/>
  <outline>
    <contour>
      <point x="573" y="226" type="line"/>
      <point x="585" y="271"/>
      <point x="591" y="313"/>
      <point x="591" y="351" type="curve" smooth="yes"/>
      <point x="591" y="397"/>
      <point x="574" y="444"/>
      <point x="546" y="480" type="curve" smooth="yes"/>
      <point x="510" y="525"/>
      <point x="452" y="549"/>
      <point x="379" y="549" type="curve" smooth="yes"/>
      <point x="301" y="549"/>
      <point x="221" y="518"/>
      <point x="174" y="469" type="curve" smooth="yes"/>
      <point x="110" y="402"/>
      <point x="64" y="285"/>
      <point x="64" y="185" type="curve" smooth="yes"/>
      <point x="64" y="61"/>
      <point x="150" y="-23"/>
      <point x="275" y="-23" type="curve" smooth="yes"/>
      <point x="396" y="-23"/>
      <point x="497" y="41"/>
      <point x="552" y="152" type="curve"/>
      <point x="414" y="152" type="line"/>
      <point x="394" y="114"/>
      <point x="350" y="89"/>
      <point x="302" y="89" type="curve" smooth="yes"/>
      <point x="245" y="89"/>
      <point x="207" y="126"/>
      <point x="207" y="181" type="curve" smooth="yes"/>
      <point x="207" y="190"/>
      <point x="207" y="198"/>
      <point x="210" y="226" type="curve"/>
    </contour>
    <contour>
      <point x="448" y="319" type="line"/>
      <point x="228" y="319" type="line"/>
      <point x="237" y="351"/>
      <point x="245" y="369"/>
      <point x="258" y="386" type="curve" smooth="yes"/>
      <point x="282" y="418"/>
      <point x="322" y="437"/>
      <point x="362" y="437" type="curve" smooth="yes"/>
      <point x="397" y="437"/>
      <point x="426" y="420"/>
      <point x="439" y="392" type="curve" smooth="yes"/>
      <point x="446" y="377"/>
      <point x="448" y="366"/>
      <point x="448" y="334" type="curve" smooth="yes"/>
    </contour>
    <contour>
      <point x="577" y="722" type="line"/>
      <point x="277" y="722" type="line"/>
      <point x="260" y="642" type="line"/>
      <point x="560" y="642" type="line"/>
    </contour>
  </outline>
</glyph>
<glyph name="Edotaccent" format="1">
  <advance width="667"/>
  <unicode hex="0116"/>
  <outline>
    <contour>
      <point x="296" y="314" type="line"/>
      <point x="645" y="314" type="line"/>
      <point x="671" y="439" type="line"/>
      <point x="322" y="439" type="line"/>
      <point x="357" y="604" type="line"/>
      <point x="735" y="604" type="line"/>
      <point x="762" y="729" type="line"/>
      <point x="234" y="729" type="line"/>
      <point x="79" y="0" type="line"/>
      <point x="624" y="0" type="line"/>
      <point x="651" y="125" type="line"/>
      <point x="256" y="125" type="line"/>
    </contour>
    <contour>
      <point x="592" y="918" type="line"/>
      <point x="482" y="918" type="line"/>
      <point x="456" y="798" type="line"/>
      <point x="566" y="798" type="line"/>
    </contour>
  </outline>
</glyph>
<glyph name="Eogonek" format="1">
  <advance width="667"/>
  <unicode hex="0118"/>
  <outline>
    <contour>
      <point x="296" y="314" type="line"/>
      <point x="645" y="314" type="line"/>
      <point x="671" y="439" type="line"/>
      <point x="322" y="439" type="line"/>
      <point x="357" y="604" type="line"/>
      <point x="735" y="604" type="line"/>
      <point x="762" y="729" type="line"/>
      <point x="234" y="729" type="line"/>
      <point x="79" y="0" type="line"/>
      <point x="551" y="0" type="line"/>
      <point x="507" y="-15"/>
      <point x="487" y="-25"/>
      <point x="463" y="-43" type="curve" smooth="yes"/>
      <point x="419" y="-74"/>
      <point x="395" y="-115"/>
      <point x="395" y="-156" type="curve" smooth="yes"/>
      <point x="395" y="-205"/>
      <point x="444" y="-233"/>
      <point x="531" y="-233" type="curve" smooth="yes"/>
      <point x="559" y="-233"/>
      <point x="580" y="-231"/>
      <point x="611" y="-224" type="curve"/>
      <point x="622" y="-172" type="line"/>
      <point x="598" y="-180"/>
      <point x="576" y="-183"/>
      <point x="549" y="-183" type="curve" smooth="yes"/>
      <point x="512" y="-183"/>
      <point x="495" y="-170"/>
      <point x="495" y="-143" type="curve" smooth="yes"/>
      <point x="495" y="-93"/>
      <point x="533" y="-51"/>
      <point x="624" y="0" type="curve"/>
      <point x="651" y="125" type="line"/>
      <point x="256" y="125" type="line"/>
    </contour>
  </outline>
</glyph>
